<svg width="1436" height="104" viewBox="0 0 1436 104" fill="none" xmlns="http://www.w3.org/2000/svg">
<path d="M1435.96 96.3496H1392V103.13H1435.96V96.3496Z" fill="#323232" fill-opacity="0.3"/>
<path d="M1387.96 96.3496H1344V103.13H1387.96V96.3496Z" fill="#323232" fill-opacity="0.3"/>
<path d="M1339.96 96.3496H1296V103.13H1339.96V96.3496Z" fill="#323232" fill-opacity="0.3"/>
<path d="M1339.96 84.3799H1296V91.1599H1339.96V84.3799Z" fill="#323232" fill-opacity="0.3"/>
<path d="M1291.96 96.3496H1248V103.13H1291.96V96.3496Z" fill="#323232" fill-opacity="0.3"/>
<path d="M1243.96 96.3496H1200V103.13H1243.96V96.3496Z" fill="#323232" fill-opacity="0.3"/>
<path d="M1195.96 96.3496H1152V103.13H1195.96V96.3496Z" fill="#323232" fill-opacity="0.3"/>
<path d="M1195.96 84.3799H1152V91.1599H1195.96V84.3799Z" fill="#323232" fill-opacity="0.3"/>
<path d="M1147.96 72.4297H1104V79.2097H1147.96V72.4297Z" fill="#323232" fill-opacity="0.3"/>
<path d="M1147.96 96.3496H1104V103.13H1147.96V96.3496Z" fill="#323232" fill-opacity="0.3"/>
<path d="M1147.96 84.3799H1104V91.1599H1147.96V84.3799Z" fill="#323232" fill-opacity="0.3"/>
<path d="M1099.96 96.3496H1056V103.13H1099.96V96.3496Z" fill="#323232" fill-opacity="0.3"/>
<path d="M1099.96 84.3799H1056V91.1599H1099.96V84.3799Z" fill="#323232" fill-opacity="0.3"/>
<path d="M1051.96 96.3496H1008V103.13H1051.96V96.3496Z" fill="#323232" fill-opacity="0.3"/>
<path d="M1051.96 84.3799H1008V91.1599H1051.96V84.3799Z" fill="#323232" fill-opacity="0.3"/>
<path d="M1003.96 72.4297H960V79.2097H1003.96V72.4297Z" fill="#323232" fill-opacity="0.3"/>
<path d="M1003.96 96.3496H960V103.13H1003.96V96.3496Z" fill="#323232" fill-opacity="0.3"/>
<path d="M1003.96 84.3799H960V91.1599H1003.96V84.3799Z" fill="#323232" fill-opacity="0.3"/>
<path d="M619.96 72.4297H576V79.2097H619.96V72.4297Z" fill="#323232" fill-opacity="0.3"/>
<path d="M619.96 96.3496H576V103.13H619.96V96.3496Z" fill="#323232" fill-opacity="0.3"/>
<path d="M619.96 84.3799H576V91.1599H619.96V84.3799Z" fill="#323232" fill-opacity="0.3"/>
<path d="M619.96 36.5703H576V43.3503H619.96V36.5703Z" fill="#323232" fill-opacity="0.3"/>
<path d="M619.96 48.5195H576V55.2995H619.96V48.5195Z" fill="#323232" fill-opacity="0.3"/>
<path d="M619.96 60.4805H576V67.2605H619.96V60.4805Z" fill="#323232" fill-opacity="0.3"/>
<path d="M571.96 72.4297H528V79.2097H571.96V72.4297Z" fill="#323232" fill-opacity="0.3"/>
<path d="M571.96 96.3496H528V103.13H571.96V96.3496Z" fill="#323232" fill-opacity="0.3"/>
<path d="M571.96 84.3799H528V91.1599H571.96V84.3799Z" fill="#323232" fill-opacity="0.3"/>
<path d="M571.96 48.5195H528V55.2995H571.96V48.5195Z" fill="#323232" fill-opacity="0.3"/>
<path d="M571.96 60.4805H528V67.2605H571.96V60.4805Z" fill="#323232" fill-opacity="0.3"/>
<path d="M523.96 72.4297H480V79.2097H523.96V72.4297Z" fill="#323232" fill-opacity="0.3"/>
<path d="M523.96 96.3496H480V103.13H523.96V96.3496Z" fill="#323232" fill-opacity="0.3"/>
<path d="M523.96 84.3799H480V91.1599H523.96V84.3799Z" fill="#323232" fill-opacity="0.3"/>
<path d="M523.96 36.5703H480V43.3503H523.96V36.5703Z" fill="#323232" fill-opacity="0.3"/>
<path d="M523.96 24.6191H480V31.3991H523.96V24.6191Z" fill="#323232" fill-opacity="0.3"/>
<path d="M523.96 48.5195H480V55.2995H523.96V48.5195Z" fill="#323232" fill-opacity="0.3"/>
<path d="M523.96 60.4805H480V67.2605H523.96V60.4805Z" fill="#323232" fill-opacity="0.3"/>
<path d="M475.96 72.4297H432V79.2097H475.96V72.4297Z" fill="#323232" fill-opacity="0.3"/>
<path d="M475.96 96.3496H432V103.13H475.96V96.3496Z" fill="#323232" fill-opacity="0.3"/>
<path d="M475.96 84.3799H432V91.1599H475.96V84.3799Z" fill="#323232" fill-opacity="0.3"/>
<path d="M475.96 0.709961H432V7.48996H475.96V0.709961Z" fill="#323232" fill-opacity="0.3"/>
<path d="M475.96 36.5703H432V43.3503H475.96V36.5703Z" fill="#323232" fill-opacity="0.3"/>
<path d="M475.96 24.6191H432V31.3991H475.96V24.6191Z" fill="#323232" fill-opacity="0.3"/>
<path d="M475.96 48.5195H432V55.2995H475.96V48.5195Z" fill="#323232" fill-opacity="0.3"/>
<path d="M475.96 12.6699H432V19.4499H475.96V12.6699Z" fill="#323232" fill-opacity="0.3"/>
<path d="M475.96 60.4805H432V67.2605H475.96V60.4805Z" fill="#323232" fill-opacity="0.3"/>
<path d="M427.96 72.4297H384V79.2097H427.96V72.4297Z" fill="#323232" fill-opacity="0.3"/>
<path d="M427.96 96.3496H384V103.13H427.96V96.3496Z" fill="#323232" fill-opacity="0.3"/>
<path d="M427.96 84.3799H384V91.1599H427.96V84.3799Z" fill="#323232" fill-opacity="0.3"/>
<path d="M427.96 60.4805H384V67.2605H427.96V60.4805Z" fill="#323232" fill-opacity="0.3"/>
<path d="M379.96 72.4297H336V79.2097H379.96V72.4297Z" fill="#323232" fill-opacity="0.3"/>
<path d="M379.96 96.3496H336V103.13H379.96V96.3496Z" fill="#323232" fill-opacity="0.3"/>
<path d="M379.96 84.3799H336V91.1599H379.96V84.3799Z" fill="#323232" fill-opacity="0.3"/>
<path d="M379.96 0.709961H336V7.48996H379.96V0.709961Z" fill="#323232" fill-opacity="0.3"/>
<path d="M379.96 36.5703H336V43.3503H379.96V36.5703Z" fill="#323232" fill-opacity="0.3"/>
<path d="M379.96 24.6191H336V31.3991H379.96V24.6191Z" fill="#323232" fill-opacity="0.3"/>
<path d="M379.96 48.5195H336V55.2995H379.96V48.5195Z" fill="#323232" fill-opacity="0.3"/>
<path d="M379.96 12.6699H336V19.4499H379.96V12.6699Z" fill="#323232" fill-opacity="0.3"/>
<path d="M379.96 60.4805H336V67.2605H379.96V60.4805Z" fill="#323232" fill-opacity="0.3"/>
<path d="M331.96 72.4297H288V79.2097H331.96V72.4297Z" fill="#323232" fill-opacity="0.3"/>
<path d="M331.96 96.3496H288V103.13H331.96V96.3496Z" fill="#323232" fill-opacity="0.3"/>
<path d="M331.96 84.3799H288V91.1599H331.96V84.3799Z" fill="#323232" fill-opacity="0.3"/>
<path d="M331.96 0.709961H288V7.48996H331.96V0.709961Z" fill="#323232" fill-opacity="0.3"/>
<path d="M331.96 36.5703H288V43.3503H331.96V36.5703Z" fill="#323232" fill-opacity="0.3"/>
<path d="M331.96 24.6191H288V31.3991H331.96V24.6191Z" fill="#323232" fill-opacity="0.3"/>
<path d="M331.96 48.5195H288V55.2995H331.96V48.5195Z" fill="#323232" fill-opacity="0.3"/>
<path d="M331.96 12.6699H288V19.4499H331.96V12.6699Z" fill="#323232" fill-opacity="0.3"/>
<path d="M331.96 60.4805H288V67.2605H331.96V60.4805Z" fill="#323232" fill-opacity="0.3"/>
<path d="M283.96 72.4297H240V79.2097H283.96V72.4297Z" fill="#323232" fill-opacity="0.3"/>
<path d="M283.96 96.3496H240V103.13H283.96V96.3496Z" fill="#323232" fill-opacity="0.3"/>
<path d="M283.96 84.3799H240V91.1599H283.96V84.3799Z" fill="#323232" fill-opacity="0.3"/>
<path d="M283.96 0.709961H240V7.48996H283.96V0.709961Z" fill="#323232" fill-opacity="0.3"/>
<path d="M283.96 36.5703H240V43.3503H283.96V36.5703Z" fill="#323232" fill-opacity="0.3"/>
<path d="M283.96 24.6191H240V31.3991H283.96V24.6191Z" fill="#323232" fill-opacity="0.3"/>
<path d="M283.96 48.5195H240V55.2995H283.96V48.5195Z" fill="#323232" fill-opacity="0.3"/>
<path d="M283.96 12.6699H240V19.4499H283.96V12.6699Z" fill="#323232" fill-opacity="0.3"/>
<path d="M283.96 60.4805H240V67.2605H283.96V60.4805Z" fill="#323232" fill-opacity="0.3"/>
<path d="M235.96 72.4297H192V79.2097H235.96V72.4297Z" fill="#323232" fill-opacity="0.3"/>
<path d="M235.96 96.3496H192V103.13H235.96V96.3496Z" fill="#323232" fill-opacity="0.3"/>
<path d="M235.96 84.3799H192V91.1599H235.96V84.3799Z" fill="#323232" fill-opacity="0.3"/>
<path d="M235.96 36.5703H192V43.3503H235.96V36.5703Z" fill="#323232" fill-opacity="0.3"/>
<path d="M235.96 48.5195H192V55.2995H235.96V48.5195Z" fill="#323232" fill-opacity="0.3"/>
<path d="M235.96 60.4805H192V67.2605H235.96V60.4805Z" fill="#323232" fill-opacity="0.3"/>
<path d="M187.96 72.4297H144V79.2097H187.96V72.4297Z" fill="#323232" fill-opacity="0.3"/>
<path d="M187.96 96.3496H144V103.13H187.96V96.3496Z" fill="#323232" fill-opacity="0.3"/>
<path d="M187.96 84.3799H144V91.1599H187.96V84.3799Z" fill="#323232" fill-opacity="0.3"/>
<path d="M187.96 36.5703H144V43.3503H187.96V36.5703Z" fill="#323232" fill-opacity="0.3"/>
<path d="M187.96 24.6191H144V31.3991H187.96V24.6191Z" fill="#323232" fill-opacity="0.3"/>
<path d="M187.96 48.5195H144V55.2995H187.96V48.5195Z" fill="#323232" fill-opacity="0.3"/>
<path d="M187.96 60.4805H144V67.2605H187.96V60.4805Z" fill="#323232" fill-opacity="0.3"/>
<path d="M139.96 72.4297H96V79.2097H139.96V72.4297Z" fill="#323232" fill-opacity="0.3"/>
<path d="M139.96 96.3496H96V103.13H139.96V96.3496Z" fill="#323232" fill-opacity="0.3"/>
<path d="M139.96 84.3799H96V91.1599H139.96V84.3799Z" fill="#323232" fill-opacity="0.3"/>
<path d="M139.96 36.5703H96V43.3503H139.96V36.5703Z" fill="#323232" fill-opacity="0.3"/>
<path d="M139.96 48.5195H96V55.2995H139.96V48.5195Z" fill="#323232" fill-opacity="0.3"/>
<path d="M139.96 60.4805H96V67.2605H139.96V60.4805Z" fill="#323232" fill-opacity="0.3"/>
<path d="M91.9601 72.4297H48V79.2097H91.9601V72.4297Z" fill="#323232" fill-opacity="0.3"/>
<path d="M91.9601 96.3496H48V103.13H91.9601V96.3496Z" fill="#323232" fill-opacity="0.3"/>
<path d="M91.9601 84.3799H48V91.1599H91.9601V84.3799Z" fill="#323232" fill-opacity="0.3"/>
<path d="M91.9601 60.4805H48V67.2605H91.9601V60.4805Z" fill="#323232" fill-opacity="0.3"/>
<path d="M43.9601 72.4297H0V79.2097H43.9601V72.4297Z" fill="#323232" fill-opacity="0.3"/>
<path d="M43.9601 96.3496H0V103.13H43.9601V96.3496Z" fill="#323232" fill-opacity="0.3"/>
<path d="M43.9601 84.3799H0V91.1599H43.9601V84.3799Z" fill="#323232" fill-opacity="0.3"/>
<path d="M91.9601 96H48V102.78H91.9601V96Z" fill="url(#paint0_linear)" fill-opacity="0.2"/>
<path d="M91.9601 60.4707H48V67.2507H91.9601V60.4707Z" fill="url(#paint1_linear)"/>
<path d="M91.9601 72.4199H48V79.1999H91.9601V72.4199Z" fill="url(#paint2_linear)" fill-opacity="0.2"/>
<path d="M91.9601 84.3809H48V91.1609H91.9601V84.3809Z" fill="url(#paint3_linear)" fill-opacity="0.2"/>
<path d="M283.96 96.3301H240V103.11H283.96V96.3301Z" fill="url(#paint4_linear)" fill-opacity="0.2"/>
<path d="M283.96 12.6602H240V19.4402H283.96V12.6602Z" fill="url(#paint5_linear)" fill-opacity="0.2"/>
<path d="M283.96 24.6104H240V31.3904H283.96V24.6104Z" fill="url(#paint6_linear)" fill-opacity="0.2"/>
<path d="M283.96 60.4707H240V67.2507H283.96V60.4707Z" fill="url(#paint7_linear)" fill-opacity="0.2"/>
<path d="M283.96 48.5195H240V55.2995H283.96V48.5195Z" fill="url(#paint8_linear)" fill-opacity="0.2"/>
<path d="M283.96 72.4199H240V79.1999H283.96V72.4199Z" fill="url(#paint9_linear)" fill-opacity="0.2"/>
<path d="M283.96 36.5703H240V43.3503H283.96V36.5703Z" fill="url(#paint10_linear)" fill-opacity="0.2"/>
<path d="M283.96 84.3809H240V91.1609H283.96V84.3809Z" fill="#323232" fill-opacity="0.5"/>
<path d="M283.96 84.3809H240V91.1609H283.96V84.3809Z" fill="#323232" fill-opacity="0.5"/>
<path d="M283.96 84.3809H240V91.1609H283.96V84.3809Z" fill="url(#paint11_linear)" fill-opacity="0.2"/>
<path d="M283.96 0.710938H240V7.49094H283.96V0.710938Z" fill="url(#paint12_linear)"/>
<path d="M475.96 96.3301H432V103.11H475.96V96.3301Z" fill="url(#paint13_linear)" fill-opacity="0.2"/>
<path d="M475.96 12.6602H432V19.4402H475.96V12.6602Z" fill="url(#paint14_linear)" fill-opacity="0.9"/>
<path d="M475.96 24.6104H432V31.3904H475.96V24.6104Z" fill="url(#paint15_linear)" fill-opacity="0.2"/>
<path d="M475.96 60.4707H432V67.2507H475.96V60.4707Z" fill="url(#paint16_linear)" fill-opacity="0.2"/>
<path d="M475.96 48.5195H432V55.2995H475.96V48.5195Z" fill="url(#paint17_linear)" fill-opacity="0.2"/>
<path d="M475.96 72.4199H432V79.1999H475.96V72.4199Z" fill="url(#paint18_linear)" fill-opacity="0.2"/>
<path d="M475.96 36.5703H432V43.3503H475.96V36.5703Z" fill="url(#paint19_linear)" fill-opacity="0.2"/>
<path d="M475.96 84.3809H432V91.1609H475.96V84.3809Z" fill="url(#paint20_linear)" fill-opacity="0.2"/>
<path d="M475.96 0.710938H432V7.49094H475.96V0.710938Z" fill="url(#paint21_linear)"/>
<path d="M1051.96 96.3301H1008V103.11H1051.96V96.3301Z" fill="url(#paint22_linear)" fill-opacity="0.2"/>
<path d="M1051.96 84.3809H1008V91.1609H1051.96V84.3809Z" fill="url(#paint23_linear)"/>
<path d="M1243.96 96.3301H1200V103.11H1243.96V96.3301Z" fill="url(#paint24_linear)" fill-opacity="0.2"/>
<path d="M1435.96 96.3301H1392V103.11H1435.96V96.3301Z" fill="url(#paint25_linear)" fill-opacity="0.2"/>
<path d="M-0.00012207 96.3301H43.96V103.11H-0.00012207V96.3301Z" fill="url(#paint26_linear)" fill-opacity="0.2"/>
<path d="M-0.00012207 72.4199H43.96V79.1999H-0.00012207V72.4199Z" fill="url(#paint27_linear)"/>
<path d="M-0.00012207 84.3809H43.96V91.1609H-0.00012207V84.3809Z" fill="url(#paint28_linear)" fill-opacity="0.2"/>
<path d="M187.96 96.3301H144V103.11H187.96V96.3301Z" fill="url(#paint29_linear)" fill-opacity="0.2"/>
<path d="M187.96 24.6104H144V31.3904H187.96V24.6104Z" fill="url(#paint30_linear)"/>
<path d="M187.96 60.4707H144V67.2507H187.96V60.4707Z" fill="url(#paint31_linear)" fill-opacity="0.2"/>
<path d="M187.96 48.5195H144V55.2995H187.96V48.5195Z" fill="url(#paint32_linear)" fill-opacity="0.2"/>
<path d="M187.96 72.4199H144V79.1999H187.96V72.4199Z" fill="url(#paint33_linear)" fill-opacity="0.2"/>
<path d="M187.96 36.5703H144V43.3503H187.96V36.5703Z" fill="url(#paint34_linear)"/>
<path d="M187.96 84.3809H144V91.1609H187.96V84.3809Z" fill="url(#paint35_linear)" fill-opacity="0.2"/>
<path d="M379.96 96.3301H336V103.11H379.96V96.3301Z" fill="url(#paint36_linear)" fill-opacity="0.2"/>
<path d="M379.96 12.6602H336V19.4402H379.96V12.6602Z" fill="url(#paint37_linear)" fill-opacity="0.8"/>
<path d="M379.96 24.6104H336V31.3904H379.96V24.6104Z" fill="#323232" fill-opacity="0.5"/>
<path d="M379.96 24.6104H336V31.3904H379.96V24.6104Z" fill="url(#paint38_linear)" fill-opacity="0.2"/>
<path d="M379.96 60.4707H336V67.2507H379.96V60.4707Z" fill="url(#paint39_linear)" fill-opacity="0.2"/>
<path d="M379.96 48.5195H336V55.2995H379.96V48.5195Z" fill="url(#paint40_linear)" fill-opacity="0.2"/>
<path d="M379.96 72.4199H336V79.1999H379.96V72.4199Z" fill="url(#paint41_linear)" fill-opacity="0.2"/>
<path d="M379.96 37H336V43.78H379.96V37Z" fill="url(#paint42_linear)" fill-opacity="0.2"/>
<path d="M379.96 84.3809H336V91.1609H379.96V84.3809Z" fill="url(#paint43_linear)" fill-opacity="0.2"/>
<path d="M379.96 0.710938H336V7.49094H379.96V0.710938Z" fill="url(#paint44_linear)"/>
<path d="M571.96 96.3301H528V103.11H571.96V96.3301Z" fill="url(#paint45_linear)" fill-opacity="0.2"/>
<path d="M571.96 60.4707H528V67.2507H571.96V60.4707Z" fill="url(#paint46_linear)" fill-opacity="0.2"/>
<path d="M571.96 48.5195H528V55.2995H571.96V48.5195Z" fill="url(#paint47_linear)"/>
<path d="M571.96 72.4199H528V79.1999H571.96V72.4199Z" fill="url(#paint48_linear)" fill-opacity="0.2"/>
<path d="M571.96 84.3809H528V91.1609H571.96V84.3809Z" fill="url(#paint49_linear)" fill-opacity="0.2"/>
<path d="M1147.96 96.3301H1104V103.11H1147.96V96.3301Z" fill="url(#paint50_linear)" fill-opacity="0.2"/>
<path d="M1147.96 72.4199H1104V79.1999H1147.96V72.4199Z" fill="url(#paint51_linear)"/>
<path d="M1147.96 84.3809H1104V91.1609H1147.96V84.3809Z" fill="url(#paint52_linear)" fill-opacity="0.2"/>
<path d="M1339.96 96.3301H1296V103.11H1339.96V96.3301Z" fill="url(#paint53_linear)" fill-opacity="0.2"/>
<path d="M1339.96 84.3809H1296V91.1609H1339.96V84.3809Z" fill="url(#paint54_linear)"/>
<path d="M139.96 96.3301H96V103.11H139.96V96.3301Z" fill="url(#paint55_linear)" fill-opacity="0.2"/>
<path d="M139.96 60.4707H96V67.2507H139.96V60.4707Z" fill="url(#paint56_linear)" fill-opacity="0.2"/>
<path d="M139.96 48.5195H96V55.2995H139.96V48.5195Z" fill="url(#paint57_linear)" fill-opacity="0.2"/>
<path d="M139.96 72.4199H96V79.1999H139.96V72.4199Z" fill="url(#paint58_linear)" fill-opacity="0.2"/>
<path d="M139.96 36.5703H96V43.3503H139.96V36.5703Z" fill="url(#paint59_linear)" fill-opacity="0.8"/>
<path d="M139.96 84.3809H96V91.1609H139.96V84.3809Z" fill="url(#paint60_linear)" fill-opacity="0.2"/>
<path d="M331.96 96.3301H288V103.11H331.96V96.3301Z" fill="url(#paint61_linear)" fill-opacity="0.2"/>
<path d="M331.96 12.6602H288V19.4402H331.96V12.6602Z" fill="url(#paint62_linear)" fill-opacity="0.8"/>
<path d="M331.96 24.6104H288V31.3904H331.96V24.6104Z" fill="url(#paint63_linear)" fill-opacity="0.2"/>
<path d="M331.96 60.4707H288V67.2507H331.96V60.4707Z" fill="url(#paint64_linear)" fill-opacity="0.2"/>
<path d="M331.96 48.5195H288V55.2995H331.96V48.5195Z" fill="url(#paint65_linear)" fill-opacity="0.2"/>
<path d="M331.96 72.4199H288V79.1999H331.96V72.4199Z" fill="url(#paint66_linear)" fill-opacity="0.2"/>
<path d="M331.96 36.5703H288V43.3503H331.96V36.5703Z" fill="url(#paint67_linear)" fill-opacity="0.2"/>
<path d="M331.96 84.3809H288V91.1609H331.96V84.3809Z" fill="#323232" fill-opacity="0.5"/>
<path d="M331.96 84.3809H288V91.1609H331.96V84.3809Z" fill="#323232" fill-opacity="0.5"/>
<path d="M331.96 84.3809H288V91.1609H331.96V84.3809Z" fill="url(#paint68_linear)" fill-opacity="0.2"/>
<path d="M331.96 0.710938H288V7.49094H331.96V0.710938Z" fill="url(#paint69_linear)" fill-opacity="0.8"/>
<path d="M523.96 96.3301H480V103.11H523.96V96.3301Z" fill="url(#paint70_linear)" fill-opacity="0.2"/>
<path d="M523.96 24.6104H480V31.3904H523.96V24.6104Z" fill="url(#paint71_linear)"/>
<path d="M523.96 60.4707H480V67.2507H523.96V60.4707Z" fill="url(#paint72_linear)" fill-opacity="0.2"/>
<path d="M523.96 48.5195H480V55.2995H523.96V48.5195Z" fill="url(#paint73_linear)" fill-opacity="0.2"/>
<path d="M523.96 72.4199H480V79.1999H523.96V72.4199Z" fill="url(#paint74_linear)" fill-opacity="0.2"/>
<path d="M523.96 36.5703H480V43.3503H523.96V36.5703Z" fill="url(#paint75_linear)" fill-opacity="0.8"/>
<path d="M523.96 84.3809H480V91.1609H523.96V84.3809Z" fill="url(#paint76_linear)" fill-opacity="0.2"/>
<path d="M1099.96 96.3301H1056V103.11H1099.96V96.3301Z" fill="url(#paint77_linear)" fill-opacity="0.2"/>
<path d="M1099.96 84.3809H1056V91.1609H1099.96V84.3809Z" fill="url(#paint78_linear)"/>
<path d="M1291.96 96.3301H1248V103.11H1291.96V96.3301Z" fill="url(#paint79_linear)"/>
<path d="M235.96 96.3301H192V103.11H235.96V96.3301Z" fill="url(#paint80_linear)" fill-opacity="0.2"/>
<path d="M235.96 60.4707H192V67.2507H235.96V60.4707Z" fill="url(#paint81_linear)" fill-opacity="0.2"/>
<path d="M235.96 48.5195H192V55.2995H235.96V48.5195Z" fill="url(#paint82_linear)" fill-opacity="0.2"/>
<path d="M235.96 72.4199H192V79.1999H235.96V72.4199Z" fill="url(#paint83_linear)" fill-opacity="0.2"/>
<path d="M235.96 36.5703H192V43.3503H235.96V36.5703Z" fill="url(#paint84_linear)"/>
<path d="M235.96 84.3809H192V91.1609H235.96V84.3809Z" fill="url(#paint85_linear)" fill-opacity="0.2"/>
<path d="M427.96 96.3301H384V103.11H427.96V96.3301Z" fill="url(#paint86_linear)" fill-opacity="0.2"/>
<path d="M427.96 60.4707H384V67.2507H427.96V60.4707Z" fill="url(#paint87_linear)" fill-opacity="0.2"/>
<path d="M427.96 72.4199H384V79.1999H427.96V72.4199Z" fill="url(#paint88_linear)" fill-opacity="0.2"/>
<path d="M427.96 84.3809H384V91.1609H427.96V84.3809Z" fill="url(#paint89_linear)" fill-opacity="0.2"/>
<path d="M619.96 96.3301H576V103.11H619.96V96.3301Z" fill="url(#paint90_linear)" fill-opacity="0.2"/>
<path d="M619.96 60.4707H576V67.2507H619.96V60.4707Z" fill="url(#paint91_linear)" fill-opacity="0.2"/>
<path d="M619.96 48.5195H576V55.2995H619.96V48.5195Z" fill="url(#paint92_linear)" fill-opacity="0.2"/>
<path d="M619.96 72.4199H576V79.1999H619.96V72.4199Z" fill="url(#paint93_linear)" fill-opacity="0.2"/>
<path d="M619.96 36.5703H576V43.3503H619.96V36.5703Z" fill="url(#paint94_linear)"/>
<path d="M619.96 84.3809H576V91.1609H619.96V84.3809Z" fill="url(#paint95_linear)" fill-opacity="0.2"/>
<path d="M1003.96 96.3301H960V103.11H1003.96V96.3301Z" fill="url(#paint96_linear)" fill-opacity="0.2"/>
<path d="M1003.96 72.4199H960V79.1999H1003.96V72.4199Z" fill="url(#paint97_linear)"/>
<path d="M1003.96 84.3809H960V91.1609H1003.96V84.3809Z" fill="#323232" fill-opacity="0.5"/>
<path d="M1003.96 84.3809H960V91.1609H1003.96V84.3809Z" fill="url(#paint98_linear)" fill-opacity="0.2"/>
<path d="M1195.96 96.3301H1152V103.11H1195.96V96.3301Z" fill="url(#paint99_linear)" fill-opacity="0.2"/>
<path d="M1195.96 84.3809H1152V91.1609H1195.96V84.3809Z" fill="url(#paint100_linear)"/>
<path d="M1387.96 96.3301H1344V103.11H1387.96V96.3301Z" fill="url(#paint101_linear)"/>
<defs>
<linearGradient id="paint0_linear" x1="69.98" y1="96" x2="69.98" y2="102.78" gradientUnits="userSpaceOnUse">
<stop stop-color="#EB1F1F"/>
<stop offset="1" stop-color="#E95515"/>
</linearGradient>
<linearGradient id="paint1_linear" x1="69.98" y1="60.4707" x2="69.98" y2="67.2507" gradientUnits="userSpaceOnUse">
<stop stop-color="#EB1F1F"/>
<stop offset="1" stop-color="#E95515"/>
</linearGradient>
<linearGradient id="paint2_linear" x1="69.98" y1="72.4199" x2="69.98" y2="79.1999" gradientUnits="userSpaceOnUse">
<stop stop-color="#EB1F1F"/>
<stop offset="1" stop-color="#E95515"/>
</linearGradient>
<linearGradient id="paint3_linear" x1="69.98" y1="84.3809" x2="69.98" y2="91.1609" gradientUnits="userSpaceOnUse">
<stop stop-color="#EB1F1F"/>
<stop offset="1" stop-color="#E95515"/>
</linearGradient>
<linearGradient id="paint4_linear" x1="261.98" y1="96.3301" x2="261.98" y2="103.11" gradientUnits="userSpaceOnUse">
<stop stop-color="#EB1F1F"/>
<stop offset="1" stop-color="#E95515"/>
</linearGradient>
<linearGradient id="paint5_linear" x1="261.98" y1="12.6602" x2="261.98" y2="19.4402" gradientUnits="userSpaceOnUse">
<stop stop-color="#EB1F1F"/>
<stop offset="1" stop-color="#E95515"/>
</linearGradient>
<linearGradient id="paint6_linear" x1="261.98" y1="24.6104" x2="261.98" y2="31.3904" gradientUnits="userSpaceOnUse">
<stop stop-color="#EB1F1F"/>
<stop offset="1" stop-color="#E95515"/>
</linearGradient>
<linearGradient id="paint7_linear" x1="261.98" y1="60.4707" x2="261.98" y2="67.2507" gradientUnits="userSpaceOnUse">
<stop stop-color="#EB1F1F"/>
<stop offset="1" stop-color="#E95515"/>
</linearGradient>
<linearGradient id="paint8_linear" x1="261.98" y1="48.5195" x2="261.98" y2="55.2995" gradientUnits="userSpaceOnUse">
<stop stop-color="#EB1F1F"/>
<stop offset="1" stop-color="#E95515"/>
</linearGradient>
<linearGradient id="paint9_linear" x1="261.98" y1="72.4199" x2="261.98" y2="79.1999" gradientUnits="userSpaceOnUse">
<stop stop-color="#EB1F1F"/>
<stop offset="1" stop-color="#E95515"/>
</linearGradient>
<linearGradient id="paint10_linear" x1="261.98" y1="36.5703" x2="261.98" y2="43.3503" gradientUnits="userSpaceOnUse">
<stop stop-color="#EB1F1F"/>
<stop offset="1" stop-color="#E95515"/>
</linearGradient>
<linearGradient id="paint11_linear" x1="261.98" y1="84.3809" x2="261.98" y2="91.1609" gradientUnits="userSpaceOnUse">
<stop stop-color="#EB1F1F"/>
<stop offset="1" stop-color="#E95515"/>
</linearGradient>
<linearGradient id="paint12_linear" x1="261.98" y1="0.710937" x2="261.98" y2="7.49094" gradientUnits="userSpaceOnUse">
<stop stop-color="#EB1F1F"/>
<stop offset="1" stop-color="#E95515"/>
</linearGradient>
<linearGradient id="paint13_linear" x1="453.98" y1="96.3301" x2="453.98" y2="103.11" gradientUnits="userSpaceOnUse">
<stop stop-color="#EB1F1F"/>
<stop offset="1" stop-color="#E95515"/>
</linearGradient>
<linearGradient id="paint14_linear" x1="453.98" y1="12.6602" x2="453.98" y2="19.4402" gradientUnits="userSpaceOnUse">
<stop stop-color="#EB1F1F"/>
<stop offset="1" stop-color="#E95515"/>
</linearGradient>
<linearGradient id="paint15_linear" x1="453.98" y1="24.6104" x2="453.98" y2="31.3904" gradientUnits="userSpaceOnUse">
<stop stop-color="#EB1F1F"/>
<stop offset="1" stop-color="#E95515"/>
</linearGradient>
<linearGradient id="paint16_linear" x1="453.98" y1="60.4707" x2="453.98" y2="67.2507" gradientUnits="userSpaceOnUse">
<stop stop-color="#EB1F1F"/>
<stop offset="1" stop-color="#E95515"/>
</linearGradient>
<linearGradient id="paint17_linear" x1="453.98" y1="48.5195" x2="453.98" y2="55.2995" gradientUnits="userSpaceOnUse">
<stop stop-color="#EB1F1F"/>
<stop offset="1" stop-color="#E95515"/>
</linearGradient>
<linearGradient id="paint18_linear" x1="453.98" y1="72.4199" x2="453.98" y2="79.1999" gradientUnits="userSpaceOnUse">
<stop stop-color="#EB1F1F"/>
<stop offset="1" stop-color="#E95515"/>
</linearGradient>
<linearGradient id="paint19_linear" x1="453.98" y1="36.5703" x2="453.98" y2="43.3503" gradientUnits="userSpaceOnUse">
<stop stop-color="#EB1F1F"/>
<stop offset="1" stop-color="#E95515"/>
</linearGradient>
<linearGradient id="paint20_linear" x1="453.98" y1="84.3809" x2="453.98" y2="91.1609" gradientUnits="userSpaceOnUse">
<stop stop-color="#EB1F1F"/>
<stop offset="1" stop-color="#E95515"/>
</linearGradient>
<linearGradient id="paint21_linear" x1="453.98" y1="0.710937" x2="453.98" y2="7.49094" gradientUnits="userSpaceOnUse">
<stop stop-color="#EB1F1F"/>
<stop offset="1" stop-color="#E95515"/>
</linearGradient>
<linearGradient id="paint22_linear" x1="1029.98" y1="96.3301" x2="1029.98" y2="103.11" gradientUnits="userSpaceOnUse">
<stop stop-color="#EB1F1F"/>
<stop offset="1" stop-color="#E95515"/>
</linearGradient>
<linearGradient id="paint23_linear" x1="1029.98" y1="84.3809" x2="1029.98" y2="91.1609" gradientUnits="userSpaceOnUse">
<stop stop-color="#EB1F1F"/>
<stop offset="1" stop-color="#E95515"/>
</linearGradient>
<linearGradient id="paint24_linear" x1="1221.98" y1="96.3301" x2="1221.98" y2="103.11" gradientUnits="userSpaceOnUse">
<stop stop-color="#EB1F1F"/>
<stop offset="1" stop-color="#E95515"/>
</linearGradient>
<linearGradient id="paint25_linear" x1="1413.98" y1="96.3301" x2="1413.98" y2="103.11" gradientUnits="userSpaceOnUse">
<stop stop-color="#EB1F1F"/>
<stop offset="1" stop-color="#E95515"/>
</linearGradient>
<linearGradient id="paint26_linear" x1="21.9799" y1="96.3301" x2="21.9799" y2="103.11" gradientUnits="userSpaceOnUse">
<stop stop-color="#EB1F1F"/>
<stop offset="1" stop-color="#E95515"/>
</linearGradient>
<linearGradient id="paint27_linear" x1="21.9799" y1="72.4199" x2="21.9799" y2="79.1999" gradientUnits="userSpaceOnUse">
<stop stop-color="#EB1F1F"/>
<stop offset="1" stop-color="#E95515"/>
</linearGradient>
<linearGradient id="paint28_linear" x1="21.9799" y1="84.3809" x2="21.9799" y2="91.1609" gradientUnits="userSpaceOnUse">
<stop stop-color="#EB1F1F"/>
<stop offset="1" stop-color="#E95515"/>
</linearGradient>
<linearGradient id="paint29_linear" x1="165.98" y1="96.3301" x2="165.98" y2="103.11" gradientUnits="userSpaceOnUse">
<stop stop-color="#EB1F1F"/>
<stop offset="1" stop-color="#E95515"/>
</linearGradient>
<linearGradient id="paint30_linear" x1="165.98" y1="24.6104" x2="165.98" y2="31.3904" gradientUnits="userSpaceOnUse">
<stop stop-color="#EB1F1F"/>
<stop offset="1" stop-color="#E95515"/>
</linearGradient>
<linearGradient id="paint31_linear" x1="165.98" y1="60.4707" x2="165.98" y2="67.2507" gradientUnits="userSpaceOnUse">
<stop stop-color="#EB1F1F"/>
<stop offset="1" stop-color="#E95515"/>
</linearGradient>
<linearGradient id="paint32_linear" x1="165.98" y1="48.5195" x2="165.98" y2="55.2995" gradientUnits="userSpaceOnUse">
<stop stop-color="#EB1F1F"/>
<stop offset="1" stop-color="#E95515"/>
</linearGradient>
<linearGradient id="paint33_linear" x1="165.98" y1="72.4199" x2="165.98" y2="79.1999" gradientUnits="userSpaceOnUse">
<stop stop-color="#EB1F1F"/>
<stop offset="1" stop-color="#E95515"/>
</linearGradient>
<linearGradient id="paint34_linear" x1="165.98" y1="36.5703" x2="165.98" y2="43.3503" gradientUnits="userSpaceOnUse">
<stop stop-color="#EB1F1F"/>
<stop offset="1" stop-color="#E95515"/>
</linearGradient>
<linearGradient id="paint35_linear" x1="165.98" y1="84.3809" x2="165.98" y2="91.1609" gradientUnits="userSpaceOnUse">
<stop stop-color="#EB1F1F"/>
<stop offset="1" stop-color="#E95515"/>
</linearGradient>
<linearGradient id="paint36_linear" x1="357.98" y1="96.3301" x2="357.98" y2="103.11" gradientUnits="userSpaceOnUse">
<stop stop-color="#EBBE1F"/>
<stop offset="1" stop-color="#E9AE15"/>
</linearGradient>
<linearGradient id="paint37_linear" x1="357.98" y1="12.6602" x2="357.98" y2="19.4402" gradientUnits="userSpaceOnUse">
<stop stop-color="#EBBE1F"/>
<stop offset="1" stop-color="#E9AE15"/>
</linearGradient>
<linearGradient id="paint38_linear" x1="357.98" y1="24.6104" x2="357.98" y2="31.3904" gradientUnits="userSpaceOnUse">
<stop stop-color="#EBBE1F"/>
<stop offset="1" stop-color="#E9AE15"/>
</linearGradient>
<linearGradient id="paint39_linear" x1="357.98" y1="60.4707" x2="357.98" y2="67.2507" gradientUnits="userSpaceOnUse">
<stop stop-color="#EBBE1F"/>
<stop offset="1" stop-color="#E9AE15"/>
</linearGradient>
<linearGradient id="paint40_linear" x1="357.98" y1="48.5195" x2="357.98" y2="55.2995" gradientUnits="userSpaceOnUse">
<stop stop-color="#EBBE1F"/>
<stop offset="1" stop-color="#E9AE15"/>
</linearGradient>
<linearGradient id="paint41_linear" x1="357.98" y1="72.4199" x2="357.98" y2="79.1999" gradientUnits="userSpaceOnUse">
<stop stop-color="#EBBE1F"/>
<stop offset="1" stop-color="#E9AE15"/>
</linearGradient>
<linearGradient id="paint42_linear" x1="357.98" y1="37" x2="357.98" y2="43.78" gradientUnits="userSpaceOnUse">
<stop stop-color="#EBBE1F"/>
<stop offset="1" stop-color="#E9AE15"/>
</linearGradient>
<linearGradient id="paint43_linear" x1="357.98" y1="84.3809" x2="357.98" y2="91.1609" gradientUnits="userSpaceOnUse">
<stop stop-color="#EBBE1F"/>
<stop offset="1" stop-color="#E9AE15"/>
</linearGradient>
<linearGradient id="paint44_linear" x1="357.98" y1="0.710937" x2="357.98" y2="7.49094" gradientUnits="userSpaceOnUse">
<stop stop-color="#EBBE1F"/>
<stop offset="1" stop-color="#E9AE15"/>
</linearGradient>
<linearGradient id="paint45_linear" x1="549.98" y1="96.3301" x2="549.98" y2="103.11" gradientUnits="userSpaceOnUse">
<stop stop-color="#EBBE1F"/>
<stop offset="1" stop-color="#E9AE15"/>
</linearGradient>
<linearGradient id="paint46_linear" x1="549.98" y1="60.4707" x2="549.98" y2="67.2507" gradientUnits="userSpaceOnUse">
<stop stop-color="#EBBE1F"/>
<stop offset="1" stop-color="#E9AE15"/>
</linearGradient>
<linearGradient id="paint47_linear" x1="549.98" y1="48.5195" x2="549.98" y2="55.2995" gradientUnits="userSpaceOnUse">
<stop stop-color="#EBBE1F"/>
<stop offset="1" stop-color="#E9AE15"/>
</linearGradient>
<linearGradient id="paint48_linear" x1="549.98" y1="72.4199" x2="549.98" y2="79.1999" gradientUnits="userSpaceOnUse">
<stop stop-color="#EBBE1F"/>
<stop offset="1" stop-color="#E9AE15"/>
</linearGradient>
<linearGradient id="paint49_linear" x1="549.98" y1="84.3809" x2="549.98" y2="91.1609" gradientUnits="userSpaceOnUse">
<stop stop-color="#EBBE1F"/>
<stop offset="1" stop-color="#E9AE15"/>
</linearGradient>
<linearGradient id="paint50_linear" x1="1125.98" y1="96.3301" x2="1125.98" y2="103.11" gradientUnits="userSpaceOnUse">
<stop stop-color="#EB1F1F"/>
<stop offset="1" stop-color="#E95515"/>
</linearGradient>
<linearGradient id="paint51_linear" x1="1125.98" y1="72.4199" x2="1125.98" y2="79.1999" gradientUnits="userSpaceOnUse">
<stop stop-color="#EB1F1F"/>
<stop offset="1" stop-color="#E95515"/>
</linearGradient>
<linearGradient id="paint52_linear" x1="1125.98" y1="84.3809" x2="1125.98" y2="91.1609" gradientUnits="userSpaceOnUse">
<stop stop-color="#EB1F1F"/>
<stop offset="1" stop-color="#E95515"/>
</linearGradient>
<linearGradient id="paint53_linear" x1="1317.98" y1="96.3301" x2="1317.98" y2="103.11" gradientUnits="userSpaceOnUse">
<stop stop-color="#EBBE1F"/>
<stop offset="1" stop-color="#E9AE15"/>
</linearGradient>
<linearGradient id="paint54_linear" x1="1317.98" y1="84.3809" x2="1317.98" y2="91.1609" gradientUnits="userSpaceOnUse">
<stop stop-color="#EBBE1F"/>
<stop offset="1" stop-color="#E9AE15"/>
</linearGradient>
<linearGradient id="paint55_linear" x1="117.98" y1="96.3301" x2="117.98" y2="103.11" gradientUnits="userSpaceOnUse">
<stop stop-color="#EB1F1F"/>
<stop offset="1" stop-color="#E95515"/>
</linearGradient>
<linearGradient id="paint56_linear" x1="117.98" y1="60.4707" x2="117.98" y2="67.2507" gradientUnits="userSpaceOnUse">
<stop stop-color="#EB1F1F"/>
<stop offset="1" stop-color="#E95515"/>
</linearGradient>
<linearGradient id="paint57_linear" x1="117.98" y1="48.5195" x2="117.98" y2="55.2995" gradientUnits="userSpaceOnUse">
<stop stop-color="#EB1F1F"/>
<stop offset="1" stop-color="#E95515"/>
</linearGradient>
<linearGradient id="paint58_linear" x1="117.98" y1="72.4199" x2="117.98" y2="79.1999" gradientUnits="userSpaceOnUse">
<stop stop-color="#EB1F1F"/>
<stop offset="1" stop-color="#E95515"/>
</linearGradient>
<linearGradient id="paint59_linear" x1="117.98" y1="36.5703" x2="117.98" y2="43.3503" gradientUnits="userSpaceOnUse">
<stop stop-color="#EB1F1F"/>
<stop offset="1" stop-color="#E95515"/>
</linearGradient>
<linearGradient id="paint60_linear" x1="117.98" y1="84.3809" x2="117.98" y2="91.1609" gradientUnits="userSpaceOnUse">
<stop stop-color="#EB1F1F"/>
<stop offset="1" stop-color="#E95515"/>
</linearGradient>
<linearGradient id="paint61_linear" x1="309.98" y1="96.3301" x2="309.98" y2="103.11" gradientUnits="userSpaceOnUse">
<stop stop-color="#EB1F1F"/>
<stop offset="1" stop-color="#E95515"/>
</linearGradient>
<linearGradient id="paint62_linear" x1="309.98" y1="12.6602" x2="309.98" y2="19.4402" gradientUnits="userSpaceOnUse">
<stop stop-color="#EB1F1F"/>
<stop offset="1" stop-color="#E95515"/>
</linearGradient>
<linearGradient id="paint63_linear" x1="309.98" y1="24.6104" x2="309.98" y2="31.3904" gradientUnits="userSpaceOnUse">
<stop stop-color="#EB1F1F"/>
<stop offset="1" stop-color="#E95515"/>
</linearGradient>
<linearGradient id="paint64_linear" x1="309.98" y1="60.4707" x2="309.98" y2="67.2507" gradientUnits="userSpaceOnUse">
<stop stop-color="#EB1F1F"/>
<stop offset="1" stop-color="#E95515"/>
</linearGradient>
<linearGradient id="paint65_linear" x1="309.98" y1="48.5195" x2="309.98" y2="55.2995" gradientUnits="userSpaceOnUse">
<stop stop-color="#EB1F1F"/>
<stop offset="1" stop-color="#E95515"/>
</linearGradient>
<linearGradient id="paint66_linear" x1="309.98" y1="72.4199" x2="309.98" y2="79.1999" gradientUnits="userSpaceOnUse">
<stop stop-color="#EB1F1F"/>
<stop offset="1" stop-color="#E95515"/>
</linearGradient>
<linearGradient id="paint67_linear" x1="309.98" y1="36.5703" x2="309.98" y2="43.3503" gradientUnits="userSpaceOnUse">
<stop stop-color="#EB1F1F"/>
<stop offset="1" stop-color="#E95515"/>
</linearGradient>
<linearGradient id="paint68_linear" x1="309.98" y1="84.3809" x2="309.98" y2="91.1609" gradientUnits="userSpaceOnUse">
<stop stop-color="#EB1F1F"/>
<stop offset="1" stop-color="#E95515"/>
</linearGradient>
<linearGradient id="paint69_linear" x1="309.98" y1="0.710937" x2="309.98" y2="7.49094" gradientUnits="userSpaceOnUse">
<stop stop-color="#EB1F1F"/>
<stop offset="1" stop-color="#E95515"/>
</linearGradient>
<linearGradient id="paint70_linear" x1="501.98" y1="96.3301" x2="501.98" y2="103.11" gradientUnits="userSpaceOnUse">
<stop stop-color="#EBBE1F"/>
<stop offset="1" stop-color="#E9AE15"/>
</linearGradient>
<linearGradient id="paint71_linear" x1="501.98" y1="24.6104" x2="501.98" y2="31.3904" gradientUnits="userSpaceOnUse">
<stop stop-color="#EBBE1F"/>
<stop offset="1" stop-color="#E9AE15"/>
</linearGradient>
<linearGradient id="paint72_linear" x1="501.98" y1="60.4707" x2="501.98" y2="67.2507" gradientUnits="userSpaceOnUse">
<stop stop-color="#EBBE1F"/>
<stop offset="1" stop-color="#E9AE15"/>
</linearGradient>
<linearGradient id="paint73_linear" x1="501.98" y1="48.5195" x2="501.98" y2="55.2995" gradientUnits="userSpaceOnUse">
<stop stop-color="#EBBE1F"/>
<stop offset="1" stop-color="#E9AE15"/>
</linearGradient>
<linearGradient id="paint74_linear" x1="501.98" y1="72.4199" x2="501.98" y2="79.1999" gradientUnits="userSpaceOnUse">
<stop stop-color="#EBBE1F"/>
<stop offset="1" stop-color="#E9AE15"/>
</linearGradient>
<linearGradient id="paint75_linear" x1="501.98" y1="36.5703" x2="501.98" y2="43.3503" gradientUnits="userSpaceOnUse">
<stop stop-color="#EBBE1F"/>
<stop offset="1" stop-color="#E9AE15"/>
</linearGradient>
<linearGradient id="paint76_linear" x1="501.98" y1="84.3809" x2="501.98" y2="91.1609" gradientUnits="userSpaceOnUse">
<stop stop-color="#EBBE1F"/>
<stop offset="1" stop-color="#E9AE15"/>
</linearGradient>
<linearGradient id="paint77_linear" x1="1077.98" y1="96.3301" x2="1077.98" y2="103.11" gradientUnits="userSpaceOnUse">
<stop stop-color="#EBBE1F"/>
<stop offset="1" stop-color="#E9AE15"/>
</linearGradient>
<linearGradient id="paint78_linear" x1="1077.98" y1="84.3809" x2="1077.98" y2="91.1609" gradientUnits="userSpaceOnUse">
<stop stop-color="#EBBE1F"/>
<stop offset="1" stop-color="#E9AE15"/>
</linearGradient>
<linearGradient id="paint79_linear" x1="1269.98" y1="96.3301" x2="1269.98" y2="103.11" gradientUnits="userSpaceOnUse">
<stop stop-color="#EBBE1F"/>
<stop offset="1" stop-color="#E9AE15"/>
</linearGradient>
<linearGradient id="paint80_linear" x1="213.98" y1="96.3301" x2="213.98" y2="103.11" gradientUnits="userSpaceOnUse">
<stop stop-color="#EBBE1F"/>
<stop offset="1" stop-color="#E9AE15"/>
</linearGradient>
<linearGradient id="paint81_linear" x1="213.98" y1="60.4707" x2="213.98" y2="67.2507" gradientUnits="userSpaceOnUse">
<stop stop-color="#EBBE1F"/>
<stop offset="1" stop-color="#E9AE15"/>
</linearGradient>
<linearGradient id="paint82_linear" x1="213.98" y1="48.5195" x2="213.98" y2="55.2995" gradientUnits="userSpaceOnUse">
<stop stop-color="#EBBE1F"/>
<stop offset="1" stop-color="#E9AE15"/>
</linearGradient>
<linearGradient id="paint83_linear" x1="213.98" y1="72.4199" x2="213.98" y2="79.1999" gradientUnits="userSpaceOnUse">
<stop stop-color="#EBBE1F"/>
<stop offset="1" stop-color="#E9AE15"/>
</linearGradient>
<linearGradient id="paint84_linear" x1="213.98" y1="36.5703" x2="213.98" y2="43.3503" gradientUnits="userSpaceOnUse">
<stop stop-color="#EBBE1F"/>
<stop offset="1" stop-color="#E9AE15"/>
</linearGradient>
<linearGradient id="paint85_linear" x1="213.98" y1="84.3809" x2="213.98" y2="91.1609" gradientUnits="userSpaceOnUse">
<stop stop-color="#EBBE1F"/>
<stop offset="1" stop-color="#E9AE15"/>
</linearGradient>
<linearGradient id="paint86_linear" x1="405.98" y1="96.3301" x2="405.98" y2="103.11" gradientUnits="userSpaceOnUse">
<stop stop-color="#EB1F1F"/>
<stop offset="1" stop-color="#E95515"/>
</linearGradient>
<linearGradient id="paint87_linear" x1="405.98" y1="60.4707" x2="405.98" y2="67.2507" gradientUnits="userSpaceOnUse">
<stop stop-color="#EB1F1F"/>
<stop offset="1" stop-color="#E95515"/>
</linearGradient>
<linearGradient id="paint88_linear" x1="405.98" y1="72.4199" x2="405.98" y2="79.1999" gradientUnits="userSpaceOnUse">
<stop stop-color="#EB1F1F"/>
<stop offset="1" stop-color="#E95515"/>
</linearGradient>
<linearGradient id="paint89_linear" x1="405.98" y1="84.3809" x2="405.98" y2="91.1609" gradientUnits="userSpaceOnUse">
<stop stop-color="#EB1F1F"/>
<stop offset="1" stop-color="#E95515"/>
</linearGradient>
<linearGradient id="paint90_linear" x1="597.98" y1="96.3301" x2="597.98" y2="103.11" gradientUnits="userSpaceOnUse">
<stop stop-color="#EB1F1F"/>
<stop offset="1" stop-color="#E95515"/>
</linearGradient>
<linearGradient id="paint91_linear" x1="597.98" y1="60.4707" x2="597.98" y2="67.2507" gradientUnits="userSpaceOnUse">
<stop stop-color="#EB1F1F"/>
<stop offset="1" stop-color="#E95515"/>
</linearGradient>
<linearGradient id="paint92_linear" x1="597.98" y1="48.5195" x2="597.98" y2="55.2995" gradientUnits="userSpaceOnUse">
<stop stop-color="#EB1F1F"/>
<stop offset="1" stop-color="#E95515"/>
</linearGradient>
<linearGradient id="paint93_linear" x1="597.98" y1="72.4199" x2="597.98" y2="79.1999" gradientUnits="userSpaceOnUse">
<stop stop-color="#EB1F1F"/>
<stop offset="1" stop-color="#E95515"/>
</linearGradient>
<linearGradient id="paint94_linear" x1="597.98" y1="36.5703" x2="597.98" y2="43.3503" gradientUnits="userSpaceOnUse">
<stop stop-color="#EB1F1F"/>
<stop offset="1" stop-color="#E95515"/>
</linearGradient>
<linearGradient id="paint95_linear" x1="597.98" y1="84.3809" x2="597.98" y2="91.1609" gradientUnits="userSpaceOnUse">
<stop stop-color="#EB1F1F"/>
<stop offset="1" stop-color="#E95515"/>
</linearGradient>
<linearGradient id="paint96_linear" x1="981.98" y1="96.3301" x2="981.98" y2="103.11" gradientUnits="userSpaceOnUse">
<stop stop-color="#EBBE1F"/>
<stop offset="1" stop-color="#E9AE15"/>
</linearGradient>
<linearGradient id="paint97_linear" x1="981.98" y1="72.4199" x2="981.98" y2="79.1999" gradientUnits="userSpaceOnUse">
<stop stop-color="#EBBE1F"/>
<stop offset="1" stop-color="#E9AE15"/>
</linearGradient>
<linearGradient id="paint98_linear" x1="981.98" y1="84.3809" x2="981.98" y2="91.1609" gradientUnits="userSpaceOnUse">
<stop stop-color="#EBBE1F"/>
<stop offset="1" stop-color="#E9AE15"/>
</linearGradient>
<linearGradient id="paint99_linear" x1="1173.98" y1="96.3301" x2="1173.98" y2="103.11" gradientUnits="userSpaceOnUse">
<stop stop-color="#EB1F1F"/>
<stop offset="1" stop-color="#E95515"/>
</linearGradient>
<linearGradient id="paint100_linear" x1="1173.98" y1="84.3809" x2="1173.98" y2="91.1609" gradientUnits="userSpaceOnUse">
<stop stop-color="#EB1F1F"/>
<stop offset="1" stop-color="#E95515"/>
</linearGradient>
<linearGradient id="paint101_linear" x1="1365.98" y1="96.3301" x2="1365.98" y2="103.11" gradientUnits="userSpaceOnUse">
<stop stop-color="#EBBE1F"/>
<stop offset="1" stop-color="#E9AE15"/>
</linearGradient>
</defs>
</svg>
