<svg width="1920" height="175" viewBox="0 0 1920 175" fill="none" xmlns="http://www.w3.org/2000/svg">
<path d="M1598.96 143.43H1555V150.21H1598.96V143.43Z" fill="#323232" fill-opacity="0.3"/>
<path d="M1598.96 167.35H1555V174.13H1598.96V167.35Z" fill="#323232" fill-opacity="0.3"/>
<path d="M1598.96 155.38H1555V162.16H1598.96V155.38Z" fill="#323232" fill-opacity="0.3"/>
<path d="M1598.96 59.7598H1555V66.5398H1598.96V59.7598Z" fill="#323232" fill-opacity="0.3"/>
<path d="M1598.96 71.71H1555V78.49H1598.96V71.71Z" fill="#323232" fill-opacity="0.3"/>
<path d="M1598.96 107.57H1555V114.35H1598.96V107.57Z" fill="#323232" fill-opacity="0.3"/>
<path d="M1598.96 95.6191H1555V102.399H1598.96V95.6191Z" fill="#323232" fill-opacity="0.3"/>
<path d="M1598.96 119.52H1555V126.3H1598.96V119.52Z" fill="#323232" fill-opacity="0.3"/>
<path d="M1598.96 83.6699H1555V90.4499H1598.96V83.6699Z" fill="#323232" fill-opacity="0.3"/>
<path d="M1598.96 131.48H1555V138.26H1598.96V131.48Z" fill="#323232" fill-opacity="0.3"/>
<path d="M1598.96 47.8105H1555V54.5905H1598.96V47.8105Z" fill="#323232" fill-opacity="0.3"/>
<path d="M1598.96 0H1555V6.78H1598.96V0Z" fill="#323232" fill-opacity="0.3"/>
<path d="M1598.96 35.8594H1555V42.6394H1598.96V35.8594Z" fill="#323232" fill-opacity="0.3"/>
<path d="M1598.96 23.9102H1555V30.6902H1598.96V23.9102Z" fill="#323232" fill-opacity="0.3"/>
<path d="M1598.96 11.9492H1555V18.7292H1598.96V11.9492Z" fill="#323232" fill-opacity="0.3"/>
<path d="M1646.96 143.43H1603V150.21H1646.96V143.43Z" fill="#323232" fill-opacity="0.3"/>
<path d="M1646.96 167.35H1603V174.13H1646.96V167.35Z" fill="#323232" fill-opacity="0.3"/>
<path d="M1646.96 155.38H1603V162.16H1646.96V155.38Z" fill="#323232" fill-opacity="0.3"/>
<path d="M1646.96 59.7598H1603V66.5398H1646.96V59.7598Z" fill="#323232" fill-opacity="0.3"/>
<path d="M1646.96 71.71H1603V78.49H1646.96V71.71Z" fill="#323232" fill-opacity="0.3"/>
<path d="M1646.96 107.57H1603V114.35H1646.96V107.57Z" fill="#323232" fill-opacity="0.3"/>
<path d="M1646.96 95.6191H1603V102.399H1646.96V95.6191Z" fill="#323232" fill-opacity="0.3"/>
<path d="M1646.96 119.52H1603V126.3H1646.96V119.52Z" fill="#323232" fill-opacity="0.3"/>
<path d="M1646.96 83.6699H1603V90.4499H1646.96V83.6699Z" fill="#323232" fill-opacity="0.3"/>
<path d="M1646.96 131.48H1603V138.26H1646.96V131.48Z" fill="#323232" fill-opacity="0.3"/>
<path d="M1646.96 47.8105H1603V54.5905H1646.96V47.8105Z" fill="#323232" fill-opacity="0.3"/>
<path d="M1646.96 0H1603V6.78H1646.96V0Z" fill="#323232" fill-opacity="0.3"/>
<path d="M1646.96 35.8594H1603V42.6394H1646.96V35.8594Z" fill="#323232" fill-opacity="0.3"/>
<path d="M1646.96 23.9102H1603V30.6902H1646.96V23.9102Z" fill="#323232" fill-opacity="0.3"/>
<path d="M1646.96 11.9492H1603V18.7292H1646.96V11.9492Z" fill="#323232" fill-opacity="0.3"/>
<path d="M1694.96 143.43H1651V150.21H1694.96V143.43Z" fill="#323232" fill-opacity="0.3"/>
<path d="M1694.96 167.35H1651V174.13H1694.96V167.35Z" fill="#323232" fill-opacity="0.3"/>
<path d="M1694.96 155.38H1651V162.16H1694.96V155.38Z" fill="#323232" fill-opacity="0.3"/>
<path d="M1694.96 59.7598H1651V66.5398H1694.96V59.7598Z" fill="#323232" fill-opacity="0.3"/>
<path d="M1694.96 71.71H1651V78.49H1694.96V71.71Z" fill="#323232" fill-opacity="0.3"/>
<path d="M1694.96 107.57H1651V114.35H1694.96V107.57Z" fill="#323232" fill-opacity="0.3"/>
<path d="M1694.96 95.6191H1651V102.399H1694.96V95.6191Z" fill="#323232" fill-opacity="0.3"/>
<path d="M1694.96 119.52H1651V126.3H1694.96V119.52Z" fill="#323232" fill-opacity="0.3"/>
<path d="M1694.96 83.6699H1651V90.4499H1694.96V83.6699Z" fill="#323232" fill-opacity="0.3"/>
<path d="M1694.96 131.48H1651V138.26H1694.96V131.48Z" fill="#323232" fill-opacity="0.3"/>
<path d="M1694.96 47.8105H1651V54.5905H1694.96V47.8105Z" fill="#323232" fill-opacity="0.3"/>
<path d="M1694.96 0H1651V6.78H1694.96V0Z" fill="#323232" fill-opacity="0.3"/>
<path d="M1694.96 35.8594H1651V42.6394H1694.96V35.8594Z" fill="#323232" fill-opacity="0.3"/>
<path d="M1694.96 23.9102H1651V30.6902H1694.96V23.9102Z" fill="#323232" fill-opacity="0.3"/>
<path d="M1694.96 11.9492H1651V18.7292H1694.96V11.9492Z" fill="#323232" fill-opacity="0.3"/>
<path d="M1742.96 143.43H1699V150.21H1742.96V143.43Z" fill="#323232" fill-opacity="0.3"/>
<path d="M1742.96 167.35H1699V174.13H1742.96V167.35Z" fill="#323232" fill-opacity="0.3"/>
<path d="M1742.96 155.38H1699V162.16H1742.96V155.38Z" fill="#323232" fill-opacity="0.3"/>
<path d="M1742.96 59.7598H1699V66.5398H1742.96V59.7598Z" fill="#323232" fill-opacity="0.3"/>
<path d="M1742.96 71.71H1699V78.49H1742.96V71.71Z" fill="#323232" fill-opacity="0.3"/>
<path d="M1742.96 107.57H1699V114.35H1742.96V107.57Z" fill="#323232" fill-opacity="0.3"/>
<path d="M1742.96 95.6191H1699V102.399H1742.96V95.6191Z" fill="#323232" fill-opacity="0.3"/>
<path d="M1742.96 119.52H1699V126.3H1742.96V119.52Z" fill="#323232" fill-opacity="0.3"/>
<path d="M1742.96 83.6699H1699V90.4499H1742.96V83.6699Z" fill="#323232" fill-opacity="0.3"/>
<path d="M1742.96 131.48H1699V138.26H1742.96V131.48Z" fill="#323232" fill-opacity="0.3"/>
<path d="M1742.96 47.8105H1699V54.5905H1742.96V47.8105Z" fill="#323232" fill-opacity="0.3"/>
<path d="M1742.96 0H1699V6.78H1742.96V0Z" fill="#323232" fill-opacity="0.3"/>
<path d="M1742.96 35.8594H1699V42.6394H1742.96V35.8594Z" fill="#323232" fill-opacity="0.3"/>
<path d="M1742.96 23.9102H1699V30.6902H1742.96V23.9102Z" fill="#323232" fill-opacity="0.3"/>
<path d="M1742.96 11.9492H1699V18.7292H1742.96V11.9492Z" fill="#323232" fill-opacity="0.3"/>
<path d="M1790.96 143.43H1747V150.21H1790.96V143.43Z" fill="#323232" fill-opacity="0.3"/>
<path d="M1790.96 167.35H1747V174.13H1790.96V167.35Z" fill="#323232" fill-opacity="0.3"/>
<path d="M1790.96 155.38H1747V162.16H1790.96V155.38Z" fill="#323232" fill-opacity="0.3"/>
<path d="M1790.96 59.7598H1747V66.5398H1790.96V59.7598Z" fill="#323232" fill-opacity="0.3"/>
<path d="M1790.96 71.71H1747V78.49H1790.96V71.71Z" fill="#323232" fill-opacity="0.3"/>
<path d="M1790.96 107.57H1747V114.35H1790.96V107.57Z" fill="#323232" fill-opacity="0.3"/>
<path d="M1790.96 95.6191H1747V102.399H1790.96V95.6191Z" fill="#323232" fill-opacity="0.3"/>
<path d="M1790.96 119.52H1747V126.3H1790.96V119.52Z" fill="#323232" fill-opacity="0.3"/>
<path d="M1790.96 83.6699H1747V90.4499H1790.96V83.6699Z" fill="#323232" fill-opacity="0.3"/>
<path d="M1790.96 131.48H1747V138.26H1790.96V131.48Z" fill="#323232" fill-opacity="0.3"/>
<path d="M1790.96 47.8105H1747V54.5905H1790.96V47.8105Z" fill="#323232" fill-opacity="0.3"/>
<path d="M1790.96 0H1747V6.78H1790.96V0Z" fill="#323232" fill-opacity="0.3"/>
<path d="M1790.96 35.8594H1747V42.6394H1790.96V35.8594Z" fill="#323232" fill-opacity="0.3"/>
<path d="M1790.96 23.9102H1747V30.6902H1790.96V23.9102Z" fill="#323232" fill-opacity="0.3"/>
<path d="M1790.96 11.9492H1747V18.7292H1790.96V11.9492Z" fill="#323232" fill-opacity="0.3"/>
<path d="M1838.96 143.43H1795V150.21H1838.96V143.43Z" fill="#323232" fill-opacity="0.3"/>
<path d="M1838.96 167.35H1795V174.13H1838.96V167.35Z" fill="#323232" fill-opacity="0.3"/>
<path d="M1838.96 155.38H1795V162.16H1838.96V155.38Z" fill="#323232" fill-opacity="0.3"/>
<path d="M1838.96 59.7598H1795V66.5398H1838.96V59.7598Z" fill="#323232" fill-opacity="0.3"/>
<path d="M1838.96 71.71H1795V78.49H1838.96V71.71Z" fill="#323232" fill-opacity="0.3"/>
<path d="M1838.96 107.57H1795V114.35H1838.96V107.57Z" fill="#323232" fill-opacity="0.3"/>
<path d="M1838.96 95.6191H1795V102.399H1838.96V95.6191Z" fill="#323232" fill-opacity="0.3"/>
<path d="M1838.96 119.52H1795V126.3H1838.96V119.52Z" fill="#323232" fill-opacity="0.3"/>
<path d="M1838.96 83.6699H1795V90.4499H1838.96V83.6699Z" fill="#323232" fill-opacity="0.3"/>
<path d="M1838.96 131.48H1795V138.26H1838.96V131.48Z" fill="#323232" fill-opacity="0.3"/>
<path d="M1838.96 47.8105H1795V54.5905H1838.96V47.8105Z" fill="#323232" fill-opacity="0.3"/>
<path d="M1838.96 0H1795V6.78H1838.96V0Z" fill="#323232" fill-opacity="0.3"/>
<path d="M1838.96 35.8594H1795V42.6394H1838.96V35.8594Z" fill="#323232" fill-opacity="0.3"/>
<path d="M1838.96 23.9102H1795V30.6902H1838.96V23.9102Z" fill="#323232" fill-opacity="0.3"/>
<path d="M1838.96 11.9492H1795V18.7292H1838.96V11.9492Z" fill="#323232" fill-opacity="0.3"/>
<path d="M1886.96 143.43H1843V150.21H1886.96V143.43Z" fill="#323232" fill-opacity="0.3"/>
<path d="M1886.96 167.35H1843V174.13H1886.96V167.35Z" fill="#323232" fill-opacity="0.3"/>
<path d="M1886.96 155.38H1843V162.16H1886.96V155.38Z" fill="#323232" fill-opacity="0.3"/>
<path d="M1886.96 59.7598H1843V66.5398H1886.96V59.7598Z" fill="#323232" fill-opacity="0.3"/>
<path d="M1886.96 71.71H1843V78.49H1886.96V71.71Z" fill="#323232" fill-opacity="0.3"/>
<path d="M1886.96 107.57H1843V114.35H1886.96V107.57Z" fill="#323232" fill-opacity="0.3"/>
<path d="M1886.96 95.6191H1843V102.399H1886.96V95.6191Z" fill="#323232" fill-opacity="0.3"/>
<path d="M1886.96 119.52H1843V126.3H1886.96V119.52Z" fill="#323232" fill-opacity="0.3"/>
<path d="M1886.96 83.6699H1843V90.4499H1886.96V83.6699Z" fill="#323232" fill-opacity="0.3"/>
<path d="M1886.96 131.48H1843V138.26H1886.96V131.48Z" fill="#323232" fill-opacity="0.3"/>
<path d="M1886.96 47.8105H1843V54.5905H1886.96V47.8105Z" fill="#323232" fill-opacity="0.3"/>
<path d="M1886.96 0H1843V6.78H1886.96V0Z" fill="#323232" fill-opacity="0.3"/>
<path d="M1886.96 35.8594H1843V42.6394H1886.96V35.8594Z" fill="#323232" fill-opacity="0.3"/>
<path d="M1886.96 23.9102H1843V30.6902H1886.96V23.9102Z" fill="#323232" fill-opacity="0.3"/>
<path d="M1886.96 11.9492H1843V18.7292H1886.96V11.9492Z" fill="#323232" fill-opacity="0.3"/>
<path d="M1934.96 143.43H1891V150.21H1934.96V143.43Z" fill="#323232" fill-opacity="0.3"/>
<path d="M1934.96 167.35H1891V174.13H1934.96V167.35Z" fill="#323232" fill-opacity="0.3"/>
<path d="M1934.96 155.38H1891V162.16H1934.96V155.38Z" fill="#323232" fill-opacity="0.3"/>
<path d="M1934.96 59.7598H1891V66.5398H1934.96V59.7598Z" fill="#323232" fill-opacity="0.3"/>
<path d="M1934.96 71.71H1891V78.49H1934.96V71.71Z" fill="#323232" fill-opacity="0.3"/>
<path d="M1934.96 107.57H1891V114.35H1934.96V107.57Z" fill="#323232" fill-opacity="0.3"/>
<path d="M1934.96 95.6191H1891V102.399H1934.96V95.6191Z" fill="#323232" fill-opacity="0.3"/>
<path d="M1934.96 119.52H1891V126.3H1934.96V119.52Z" fill="#323232" fill-opacity="0.3"/>
<path d="M1934.96 83.6699H1891V90.4499H1934.96V83.6699Z" fill="#323232" fill-opacity="0.3"/>
<path d="M1934.96 131.48H1891V138.26H1934.96V131.48Z" fill="#323232" fill-opacity="0.3"/>
<path d="M1934.96 47.8105H1891V54.5905H1934.96V47.8105Z" fill="#323232" fill-opacity="0.3"/>
<path d="M1934.96 0H1891V6.78H1934.96V0Z" fill="#323232" fill-opacity="0.3"/>
<path d="M1934.96 35.8594H1891V42.6394H1934.96V35.8594Z" fill="#323232" fill-opacity="0.3"/>
<path d="M1934.96 23.9102H1891V30.6902H1934.96V23.9102Z" fill="#323232" fill-opacity="0.3"/>
<path d="M1934.96 11.9492H1891V18.7292H1934.96V11.9492Z" fill="#323232" fill-opacity="0.3"/>
<path d="M1550.96 143.43H1507V150.21H1550.96V143.43Z" fill="#323232" fill-opacity="0.3"/>
<path d="M1550.96 167.35H1507V174.13H1550.96V167.35Z" fill="#323232" fill-opacity="0.3"/>
<path d="M1550.96 155.38H1507V162.16H1550.96V155.38Z" fill="#323232" fill-opacity="0.3"/>
<path d="M1550.96 59.7598H1507V66.5398H1550.96V59.7598Z" fill="#323232" fill-opacity="0.3"/>
<path d="M1550.96 71.71H1507V78.49H1550.96V71.71Z" fill="#323232" fill-opacity="0.3"/>
<path d="M1550.96 107.57H1507V114.35H1550.96V107.57Z" fill="#323232" fill-opacity="0.3"/>
<path d="M1550.96 95.6191H1507V102.399H1550.96V95.6191Z" fill="#323232" fill-opacity="0.3"/>
<path d="M1550.96 119.52H1507V126.3H1550.96V119.52Z" fill="#323232" fill-opacity="0.3"/>
<path d="M1550.96 83.6699H1507V90.4499H1550.96V83.6699Z" fill="#323232" fill-opacity="0.3"/>
<path d="M1550.96 131.48H1507V138.26H1550.96V131.48Z" fill="#323232" fill-opacity="0.3"/>
<path d="M1550.96 47.8105H1507V54.5905H1550.96V47.8105Z" fill="#323232" fill-opacity="0.3"/>
<path d="M1550.96 0H1507V6.78H1550.96V0Z" fill="#323232" fill-opacity="0.3"/>
<path d="M1550.96 35.8594H1507V42.6394H1550.96V35.8594Z" fill="#323232" fill-opacity="0.3"/>
<path d="M1550.96 23.9102H1507V30.6902H1550.96V23.9102Z" fill="#323232" fill-opacity="0.3"/>
<path d="M1550.96 11.9492H1507V18.7292H1550.96V11.9492Z" fill="#323232" fill-opacity="0.3"/>
<path d="M1502.96 143.43H1459V150.21H1502.96V143.43Z" fill="#323232" fill-opacity="0.3"/>
<path d="M1502.96 167.35H1459V174.13H1502.96V167.35Z" fill="#323232" fill-opacity="0.3"/>
<path d="M1502.96 155.38H1459V162.16H1502.96V155.38Z" fill="#323232" fill-opacity="0.3"/>
<path d="M1502.96 59.7598H1459V66.5398H1502.96V59.7598Z" fill="#323232" fill-opacity="0.3"/>
<path d="M1502.96 71.71H1459V78.49H1502.96V71.71Z" fill="#323232" fill-opacity="0.3"/>
<path d="M1502.96 107.57H1459V114.35H1502.96V107.57Z" fill="#323232" fill-opacity="0.3"/>
<path d="M1502.96 95.6191H1459V102.399H1502.96V95.6191Z" fill="#323232" fill-opacity="0.3"/>
<path d="M1502.96 119.52H1459V126.3H1502.96V119.52Z" fill="#323232" fill-opacity="0.3"/>
<path d="M1502.96 83.6699H1459V90.4499H1502.96V83.6699Z" fill="#323232" fill-opacity="0.3"/>
<path d="M1502.96 131.48H1459V138.26H1502.96V131.48Z" fill="#323232" fill-opacity="0.3"/>
<path d="M1502.96 47.8105H1459V54.5905H1502.96V47.8105Z" fill="#323232" fill-opacity="0.3"/>
<path d="M1502.96 0H1459V6.78H1502.96V0Z" fill="#323232" fill-opacity="0.3"/>
<path d="M1502.96 35.8594H1459V42.6394H1502.96V35.8594Z" fill="#323232" fill-opacity="0.3"/>
<path d="M1502.96 23.9102H1459V30.6902H1502.96V23.9102Z" fill="#323232" fill-opacity="0.3"/>
<path d="M1502.96 11.9492H1459V18.7292H1502.96V11.9492Z" fill="#323232" fill-opacity="0.3"/>
<path d="M1454.96 143.43H1411V150.21H1454.96V143.43Z" fill="#323232" fill-opacity="0.3"/>
<path d="M1454.96 167.35H1411V174.13H1454.96V167.35Z" fill="#323232" fill-opacity="0.3"/>
<path d="M1454.96 155.38H1411V162.16H1454.96V155.38Z" fill="#323232" fill-opacity="0.3"/>
<path d="M1454.96 59.7598H1411V66.5398H1454.96V59.7598Z" fill="#323232" fill-opacity="0.3"/>
<path d="M1454.96 71.71H1411V78.49H1454.96V71.71Z" fill="#323232" fill-opacity="0.3"/>
<path d="M1454.96 107.57H1411V114.35H1454.96V107.57Z" fill="#323232" fill-opacity="0.3"/>
<path d="M1454.96 95.6191H1411V102.399H1454.96V95.6191Z" fill="#323232" fill-opacity="0.3"/>
<path d="M1454.96 119.52H1411V126.3H1454.96V119.52Z" fill="#323232" fill-opacity="0.3"/>
<path d="M1454.96 83.6699H1411V90.4499H1454.96V83.6699Z" fill="#323232" fill-opacity="0.3"/>
<path d="M1454.96 131.48H1411V138.26H1454.96V131.48Z" fill="#323232" fill-opacity="0.3"/>
<path d="M1454.96 47.8105H1411V54.5905H1454.96V47.8105Z" fill="#323232" fill-opacity="0.3"/>
<path d="M1454.96 0H1411V6.78H1454.96V0Z" fill="#323232" fill-opacity="0.3"/>
<path d="M1454.96 35.8594H1411V42.6394H1454.96V35.8594Z" fill="#323232" fill-opacity="0.3"/>
<path d="M1454.96 23.9102H1411V30.6902H1454.96V23.9102Z" fill="#323232" fill-opacity="0.3"/>
<path d="M1454.96 11.9492H1411V18.7292H1454.96V11.9492Z" fill="#323232" fill-opacity="0.3"/>
<path d="M1406.96 143.43H1363V150.21H1406.96V143.43Z" fill="#323232" fill-opacity="0.3"/>
<path d="M1406.96 167.35H1363V174.13H1406.96V167.35Z" fill="#323232" fill-opacity="0.3"/>
<path d="M1406.96 155.38H1363V162.16H1406.96V155.38Z" fill="#323232" fill-opacity="0.3"/>
<path d="M1406.96 59.7598H1363V66.5398H1406.96V59.7598Z" fill="#323232" fill-opacity="0.3"/>
<path d="M1406.96 71.71H1363V78.49H1406.96V71.71Z" fill="#323232" fill-opacity="0.3"/>
<path d="M1406.96 107.57H1363V114.35H1406.96V107.57Z" fill="#323232" fill-opacity="0.3"/>
<path d="M1406.96 95.6191H1363V102.399H1406.96V95.6191Z" fill="#323232" fill-opacity="0.3"/>
<path d="M1406.96 119.52H1363V126.3H1406.96V119.52Z" fill="#323232" fill-opacity="0.3"/>
<path d="M1406.96 83.6699H1363V90.4499H1406.96V83.6699Z" fill="#323232" fill-opacity="0.3"/>
<path d="M1406.96 131.48H1363V138.26H1406.96V131.48Z" fill="#323232" fill-opacity="0.3"/>
<path d="M1406.96 47.8105H1363V54.5905H1406.96V47.8105Z" fill="#323232" fill-opacity="0.3"/>
<path d="M1406.96 0H1363V6.78H1406.96V0Z" fill="#323232" fill-opacity="0.3"/>
<path d="M1406.96 35.8594H1363V42.6394H1406.96V35.8594Z" fill="#323232" fill-opacity="0.3"/>
<path d="M1406.96 23.9102H1363V30.6902H1406.96V23.9102Z" fill="#323232" fill-opacity="0.3"/>
<path d="M1406.96 11.9492H1363V18.7292H1406.96V11.9492Z" fill="#323232" fill-opacity="0.3"/>
<path d="M1358.96 143.43H1315V150.21H1358.96V143.43Z" fill="#323232" fill-opacity="0.3"/>
<path d="M1358.96 167.35H1315V174.13H1358.96V167.35Z" fill="#323232" fill-opacity="0.3"/>
<path d="M1358.96 155.38H1315V162.16H1358.96V155.38Z" fill="#323232" fill-opacity="0.3"/>
<path d="M1358.96 59.7598H1315V66.5398H1358.96V59.7598Z" fill="#323232" fill-opacity="0.3"/>
<path d="M1358.96 71.71H1315V78.49H1358.96V71.71Z" fill="#323232" fill-opacity="0.3"/>
<path d="M1358.96 107.57H1315V114.35H1358.96V107.57Z" fill="#323232" fill-opacity="0.3"/>
<path d="M1358.96 95.6191H1315V102.399H1358.96V95.6191Z" fill="#323232" fill-opacity="0.3"/>
<path d="M1358.96 119.52H1315V126.3H1358.96V119.52Z" fill="#323232" fill-opacity="0.3"/>
<path d="M1358.96 83.6699H1315V90.4499H1358.96V83.6699Z" fill="#323232" fill-opacity="0.3"/>
<path d="M1358.96 131.48H1315V138.26H1358.96V131.48Z" fill="#323232" fill-opacity="0.3"/>
<path d="M1358.96 47.8105H1315V54.5905H1358.96V47.8105Z" fill="#323232" fill-opacity="0.3"/>
<path d="M1358.96 0H1315V6.78H1358.96V0Z" fill="#323232" fill-opacity="0.3"/>
<path d="M1358.96 35.8594H1315V42.6394H1358.96V35.8594Z" fill="#323232" fill-opacity="0.3"/>
<path d="M1358.96 23.9102H1315V30.6902H1358.96V23.9102Z" fill="#323232" fill-opacity="0.3"/>
<path d="M1358.96 11.9492H1315V18.7292H1358.96V11.9492Z" fill="#323232" fill-opacity="0.3"/>
<path d="M1310.96 143.43H1267V150.21H1310.96V143.43Z" fill="#323232" fill-opacity="0.3"/>
<path d="M1310.96 167.35H1267V174.13H1310.96V167.35Z" fill="#323232" fill-opacity="0.3"/>
<path d="M1310.96 155.38H1267V162.16H1310.96V155.38Z" fill="#323232" fill-opacity="0.3"/>
<path d="M1310.96 59.7598H1267V66.5398H1310.96V59.7598Z" fill="#323232" fill-opacity="0.3"/>
<path d="M1310.96 71.71H1267V78.49H1310.96V71.71Z" fill="#323232" fill-opacity="0.3"/>
<path d="M1310.96 107.57H1267V114.35H1310.96V107.57Z" fill="#323232" fill-opacity="0.3"/>
<path d="M1310.96 95.6191H1267V102.399H1310.96V95.6191Z" fill="#323232" fill-opacity="0.3"/>
<path d="M1310.96 119.52H1267V126.3H1310.96V119.52Z" fill="#323232" fill-opacity="0.3"/>
<path d="M1310.96 83.6699H1267V90.4499H1310.96V83.6699Z" fill="#323232" fill-opacity="0.3"/>
<path d="M1310.96 131.48H1267V138.26H1310.96V131.48Z" fill="#323232" fill-opacity="0.3"/>
<path d="M1310.96 47.8105H1267V54.5905H1310.96V47.8105Z" fill="#323232" fill-opacity="0.3"/>
<path d="M1310.96 0H1267V6.78H1310.96V0Z" fill="#323232" fill-opacity="0.3"/>
<path d="M1310.96 35.8594H1267V42.6394H1310.96V35.8594Z" fill="#323232" fill-opacity="0.3"/>
<path d="M1310.96 23.9102H1267V30.6902H1310.96V23.9102Z" fill="#323232" fill-opacity="0.3"/>
<path d="M1310.96 11.9492H1267V18.7292H1310.96V11.9492Z" fill="#323232" fill-opacity="0.3"/>
<path d="M1262.96 143.43H1219V150.21H1262.96V143.43Z" fill="#323232" fill-opacity="0.3"/>
<path d="M1262.96 167.35H1219V174.13H1262.96V167.35Z" fill="#323232" fill-opacity="0.3"/>
<path d="M1262.96 155.38H1219V162.16H1262.96V155.38Z" fill="#323232" fill-opacity="0.3"/>
<path d="M1262.96 59.7598H1219V66.5398H1262.96V59.7598Z" fill="#323232" fill-opacity="0.3"/>
<path d="M1262.96 71.71H1219V78.49H1262.96V71.71Z" fill="#323232" fill-opacity="0.3"/>
<path d="M1262.96 107.57H1219V114.35H1262.96V107.57Z" fill="#323232" fill-opacity="0.3"/>
<path d="M1262.96 95.6191H1219V102.399H1262.96V95.6191Z" fill="#323232" fill-opacity="0.3"/>
<path d="M1262.96 119.52H1219V126.3H1262.96V119.52Z" fill="#323232" fill-opacity="0.3"/>
<path d="M1262.96 83.6699H1219V90.4499H1262.96V83.6699Z" fill="#323232" fill-opacity="0.3"/>
<path d="M1262.96 131.48H1219V138.26H1262.96V131.48Z" fill="#323232" fill-opacity="0.3"/>
<path d="M1262.96 47.8105H1219V54.5905H1262.96V47.8105Z" fill="#323232" fill-opacity="0.3"/>
<path d="M1262.96 0H1219V6.78H1262.96V0Z" fill="#323232" fill-opacity="0.3"/>
<path d="M1262.96 35.8594H1219V42.6394H1262.96V35.8594Z" fill="#323232" fill-opacity="0.3"/>
<path d="M1262.96 23.9102H1219V30.6902H1262.96V23.9102Z" fill="#323232" fill-opacity="0.3"/>
<path d="M1262.96 11.9492H1219V18.7292H1262.96V11.9492Z" fill="#323232" fill-opacity="0.3"/>
<path d="M1214.96 143.43H1171V150.21H1214.96V143.43Z" fill="#323232" fill-opacity="0.3"/>
<path d="M1214.96 167.35H1171V174.13H1214.96V167.35Z" fill="#323232" fill-opacity="0.3"/>
<path d="M1214.96 155.38H1171V162.16H1214.96V155.38Z" fill="#323232" fill-opacity="0.3"/>
<path d="M1214.96 59.7598H1171V66.5398H1214.96V59.7598Z" fill="#323232" fill-opacity="0.3"/>
<path d="M1214.96 71.71H1171V78.49H1214.96V71.71Z" fill="#323232" fill-opacity="0.3"/>
<path d="M1214.96 107.57H1171V114.35H1214.96V107.57Z" fill="#323232" fill-opacity="0.3"/>
<path d="M1214.96 95.6191H1171V102.399H1214.96V95.6191Z" fill="#323232" fill-opacity="0.3"/>
<path d="M1214.96 119.52H1171V126.3H1214.96V119.52Z" fill="#323232" fill-opacity="0.3"/>
<path d="M1214.96 83.6699H1171V90.4499H1214.96V83.6699Z" fill="#323232" fill-opacity="0.3"/>
<path d="M1214.96 131.48H1171V138.26H1214.96V131.48Z" fill="#323232" fill-opacity="0.3"/>
<path d="M1214.96 47.8105H1171V54.5905H1214.96V47.8105Z" fill="#323232" fill-opacity="0.3"/>
<path d="M1214.96 0H1171V6.78H1214.96V0Z" fill="#323232" fill-opacity="0.3"/>
<path d="M1214.96 35.8594H1171V42.6394H1214.96V35.8594Z" fill="#323232" fill-opacity="0.3"/>
<path d="M1214.96 23.9102H1171V30.6902H1214.96V23.9102Z" fill="#323232" fill-opacity="0.3"/>
<path d="M1214.96 11.9492H1171V18.7292H1214.96V11.9492Z" fill="#323232" fill-opacity="0.3"/>
<path d="M1166.96 143.43H1123V150.21H1166.96V143.43Z" fill="#323232" fill-opacity="0.3"/>
<path d="M1166.96 167.35H1123V174.13H1166.96V167.35Z" fill="#323232" fill-opacity="0.3"/>
<path d="M1166.96 155.38H1123V162.16H1166.96V155.38Z" fill="#323232" fill-opacity="0.3"/>
<path d="M1166.96 59.7598H1123V66.5398H1166.96V59.7598Z" fill="#323232" fill-opacity="0.3"/>
<path d="M1166.96 71.71H1123V78.49H1166.96V71.71Z" fill="#323232" fill-opacity="0.3"/>
<path d="M1166.96 107.57H1123V114.35H1166.96V107.57Z" fill="#323232" fill-opacity="0.3"/>
<path d="M1166.96 95.6191H1123V102.399H1166.96V95.6191Z" fill="#323232" fill-opacity="0.3"/>
<path d="M1166.96 119.52H1123V126.3H1166.96V119.52Z" fill="#323232" fill-opacity="0.3"/>
<path d="M1166.96 83.6699H1123V90.4499H1166.96V83.6699Z" fill="#323232" fill-opacity="0.3"/>
<path d="M1166.96 131.48H1123V138.26H1166.96V131.48Z" fill="#323232" fill-opacity="0.3"/>
<path d="M1166.96 47.8105H1123V54.5905H1166.96V47.8105Z" fill="#323232" fill-opacity="0.3"/>
<path d="M1166.96 0H1123V6.78H1166.96V0Z" fill="#323232" fill-opacity="0.3"/>
<path d="M1166.96 35.8594H1123V42.6394H1166.96V35.8594Z" fill="#323232" fill-opacity="0.3"/>
<path d="M1166.96 23.9102H1123V30.6902H1166.96V23.9102Z" fill="#323232" fill-opacity="0.3"/>
<path d="M1166.96 11.9492H1123V18.7292H1166.96V11.9492Z" fill="#323232" fill-opacity="0.3"/>
<path d="M1118.96 143.43H1075V150.21H1118.96V143.43Z" fill="#323232" fill-opacity="0.3"/>
<path d="M1118.96 167.35H1075V174.13H1118.96V167.35Z" fill="#323232" fill-opacity="0.3"/>
<path d="M1118.96 155.38H1075V162.16H1118.96V155.38Z" fill="#323232" fill-opacity="0.3"/>
<path d="M1118.96 59.7598H1075V66.5398H1118.96V59.7598Z" fill="#323232" fill-opacity="0.3"/>
<path d="M1118.96 71.71H1075V78.49H1118.96V71.71Z" fill="#323232" fill-opacity="0.3"/>
<path d="M1118.96 107.57H1075V114.35H1118.96V107.57Z" fill="#323232" fill-opacity="0.3"/>
<path d="M1118.96 95.6191H1075V102.399H1118.96V95.6191Z" fill="#323232" fill-opacity="0.3"/>
<path d="M1118.96 119.52H1075V126.3H1118.96V119.52Z" fill="#323232" fill-opacity="0.3"/>
<path d="M1118.96 83.6699H1075V90.4499H1118.96V83.6699Z" fill="#323232" fill-opacity="0.3"/>
<path d="M1118.96 131.48H1075V138.26H1118.96V131.48Z" fill="#323232" fill-opacity="0.3"/>
<path d="M1118.96 47.8105H1075V54.5905H1118.96V47.8105Z" fill="#323232" fill-opacity="0.3"/>
<path d="M1118.96 0H1075V6.78H1118.96V0Z" fill="#323232" fill-opacity="0.3"/>
<path d="M1118.96 35.8594H1075V42.6394H1118.96V35.8594Z" fill="#323232" fill-opacity="0.3"/>
<path d="M1118.96 23.9102H1075V30.6902H1118.96V23.9102Z" fill="#323232" fill-opacity="0.3"/>
<path d="M1118.96 11.9492H1075V18.7292H1118.96V11.9492Z" fill="#323232" fill-opacity="0.3"/>
<path d="M1070.96 143.43H1027V150.21H1070.96V143.43Z" fill="#323232" fill-opacity="0.3"/>
<path d="M1070.96 167.35H1027V174.13H1070.96V167.35Z" fill="#323232" fill-opacity="0.3"/>
<path d="M1070.96 155.38H1027V162.16H1070.96V155.38Z" fill="#323232" fill-opacity="0.3"/>
<path d="M1070.96 59.7598H1027V66.5398H1070.96V59.7598Z" fill="#323232" fill-opacity="0.3"/>
<path d="M1070.96 71.71H1027V78.49H1070.96V71.71Z" fill="#323232" fill-opacity="0.3"/>
<path d="M1070.96 107.57H1027V114.35H1070.96V107.57Z" fill="#323232" fill-opacity="0.3"/>
<path d="M1070.96 95.6191H1027V102.399H1070.96V95.6191Z" fill="#323232" fill-opacity="0.3"/>
<path d="M1070.96 119.52H1027V126.3H1070.96V119.52Z" fill="#323232" fill-opacity="0.3"/>
<path d="M1070.96 83.6699H1027V90.4499H1070.96V83.6699Z" fill="#323232" fill-opacity="0.3"/>
<path d="M1070.96 131.48H1027V138.26H1070.96V131.48Z" fill="#323232" fill-opacity="0.3"/>
<path d="M1070.96 47.8105H1027V54.5905H1070.96V47.8105Z" fill="#323232" fill-opacity="0.3"/>
<path d="M1070.96 0H1027V6.78H1070.96V0Z" fill="#323232" fill-opacity="0.3"/>
<path d="M1070.96 35.8594H1027V42.6394H1070.96V35.8594Z" fill="#323232" fill-opacity="0.3"/>
<path d="M1070.96 23.9102H1027V30.6902H1070.96V23.9102Z" fill="#323232" fill-opacity="0.3"/>
<path d="M1070.96 11.9492H1027V18.7292H1070.96V11.9492Z" fill="#323232" fill-opacity="0.3"/>
<path d="M1022.96 143.43H979V150.21H1022.96V143.43Z" fill="#323232" fill-opacity="0.3"/>
<path d="M1022.96 167.35H979V174.13H1022.96V167.35Z" fill="#323232" fill-opacity="0.3"/>
<path d="M1022.96 155.38H979V162.16H1022.96V155.38Z" fill="#323232" fill-opacity="0.3"/>
<path d="M1022.96 59.7598H979V66.5398H1022.96V59.7598Z" fill="#323232" fill-opacity="0.3"/>
<path d="M1022.96 71.71H979V78.49H1022.96V71.71Z" fill="#323232" fill-opacity="0.3"/>
<path d="M1022.96 107.57H979V114.35H1022.96V107.57Z" fill="#323232" fill-opacity="0.3"/>
<path d="M1022.96 95.6191H979V102.399H1022.96V95.6191Z" fill="#323232" fill-opacity="0.3"/>
<path d="M1022.96 119.52H979V126.3H1022.96V119.52Z" fill="#323232" fill-opacity="0.3"/>
<path d="M1022.96 83.6699H979V90.4499H1022.96V83.6699Z" fill="#323232" fill-opacity="0.3"/>
<path d="M1022.96 131.48H979V138.26H1022.96V131.48Z" fill="#323232" fill-opacity="0.3"/>
<path d="M1022.96 47.8105H979V54.5905H1022.96V47.8105Z" fill="#323232" fill-opacity="0.3"/>
<path d="M1022.96 0H979V6.78H1022.96V0Z" fill="#323232" fill-opacity="0.3"/>
<path d="M1022.96 35.8594H979V42.6394H1022.96V35.8594Z" fill="#323232" fill-opacity="0.3"/>
<path d="M1022.96 23.9102H979V30.6902H1022.96V23.9102Z" fill="#323232" fill-opacity="0.3"/>
<path d="M1022.96 11.9492H979V18.7292H1022.96V11.9492Z" fill="#323232" fill-opacity="0.3"/>
<path d="M974.96 143.43H931V150.21H974.96V143.43Z" fill="#323232" fill-opacity="0.3"/>
<path d="M974.96 167.35H931V174.13H974.96V167.35Z" fill="#323232" fill-opacity="0.3"/>
<path d="M974.96 155.38H931V162.16H974.96V155.38Z" fill="#323232" fill-opacity="0.3"/>
<path d="M974.96 59.7598H931V66.5398H974.96V59.7598Z" fill="#323232" fill-opacity="0.3"/>
<path d="M974.96 71.71H931V78.49H974.96V71.71Z" fill="#323232" fill-opacity="0.3"/>
<path d="M974.96 107.57H931V114.35H974.96V107.57Z" fill="#323232" fill-opacity="0.3"/>
<path d="M974.96 95.6191H931V102.399H974.96V95.6191Z" fill="#323232" fill-opacity="0.3"/>
<path d="M974.96 119.52H931V126.3H974.96V119.52Z" fill="#323232" fill-opacity="0.3"/>
<path d="M974.96 83.6699H931V90.4499H974.96V83.6699Z" fill="#323232" fill-opacity="0.3"/>
<path d="M974.96 131.48H931V138.26H974.96V131.48Z" fill="#323232" fill-opacity="0.3"/>
<path d="M974.96 47.8105H931V54.5905H974.96V47.8105Z" fill="#323232" fill-opacity="0.3"/>
<path d="M974.96 0H931V6.78H974.96V0Z" fill="#323232" fill-opacity="0.3"/>
<path d="M974.96 35.8594H931V42.6394H974.96V35.8594Z" fill="#323232" fill-opacity="0.3"/>
<path d="M974.96 23.9102H931V30.6902H974.96V23.9102Z" fill="#323232" fill-opacity="0.3"/>
<path d="M974.96 11.9492H931V18.7292H974.96V11.9492Z" fill="#323232" fill-opacity="0.3"/>
<path d="M926.96 143.43H883V150.21H926.96V143.43Z" fill="#323232" fill-opacity="0.3"/>
<path d="M926.96 167.35H883V174.13H926.96V167.35Z" fill="#323232" fill-opacity="0.3"/>
<path d="M926.96 155.38H883V162.16H926.96V155.38Z" fill="#323232" fill-opacity="0.3"/>
<path d="M926.96 59.7598H883V66.5398H926.96V59.7598Z" fill="#323232" fill-opacity="0.3"/>
<path d="M926.96 71.71H883V78.49H926.96V71.71Z" fill="#323232" fill-opacity="0.3"/>
<path d="M926.96 107.57H883V114.35H926.96V107.57Z" fill="#323232" fill-opacity="0.3"/>
<path d="M926.96 95.6191H883V102.399H926.96V95.6191Z" fill="#323232" fill-opacity="0.3"/>
<path d="M926.96 119.52H883V126.3H926.96V119.52Z" fill="#323232" fill-opacity="0.3"/>
<path d="M926.96 83.6699H883V90.4499H926.96V83.6699Z" fill="#323232" fill-opacity="0.3"/>
<path d="M926.96 131.48H883V138.26H926.96V131.48Z" fill="#323232" fill-opacity="0.3"/>
<path d="M926.96 47.8105H883V54.5905H926.96V47.8105Z" fill="#323232" fill-opacity="0.3"/>
<path d="M926.96 0H883V6.78H926.96V0Z" fill="#323232" fill-opacity="0.3"/>
<path d="M926.96 35.8594H883V42.6394H926.96V35.8594Z" fill="#323232" fill-opacity="0.3"/>
<path d="M926.96 23.9102H883V30.6902H926.96V23.9102Z" fill="#323232" fill-opacity="0.3"/>
<path d="M926.96 11.9492H883V18.7292H926.96V11.9492Z" fill="#323232" fill-opacity="0.3"/>
<path d="M878.96 143.43H835V150.21H878.96V143.43Z" fill="#323232" fill-opacity="0.3"/>
<path d="M878.96 167.35H835V174.13H878.96V167.35Z" fill="#323232" fill-opacity="0.3"/>
<path d="M878.96 155.38H835V162.16H878.96V155.38Z" fill="#323232" fill-opacity="0.3"/>
<path d="M878.96 59.7598H835V66.5398H878.96V59.7598Z" fill="#323232" fill-opacity="0.3"/>
<path d="M878.96 71.71H835V78.49H878.96V71.71Z" fill="#323232" fill-opacity="0.3"/>
<path d="M878.96 107.57H835V114.35H878.96V107.57Z" fill="#323232" fill-opacity="0.3"/>
<path d="M878.96 95.6191H835V102.399H878.96V95.6191Z" fill="#323232" fill-opacity="0.3"/>
<path d="M878.96 119.52H835V126.3H878.96V119.52Z" fill="#323232" fill-opacity="0.3"/>
<path d="M878.96 83.6699H835V90.4499H878.96V83.6699Z" fill="#323232" fill-opacity="0.3"/>
<path d="M878.96 131.48H835V138.26H878.96V131.48Z" fill="#323232" fill-opacity="0.3"/>
<path d="M878.96 47.8105H835V54.5905H878.96V47.8105Z" fill="#323232" fill-opacity="0.3"/>
<path d="M878.96 0H835V6.78H878.96V0Z" fill="#323232" fill-opacity="0.3"/>
<path d="M878.96 35.8594H835V42.6394H878.96V35.8594Z" fill="#323232" fill-opacity="0.3"/>
<path d="M878.96 23.9102H835V30.6902H878.96V23.9102Z" fill="#323232" fill-opacity="0.3"/>
<path d="M878.96 11.9492H835V18.7292H878.96V11.9492Z" fill="#323232" fill-opacity="0.3"/>
<path d="M830.96 143.43H787V150.21H830.96V143.43Z" fill="#323232" fill-opacity="0.3"/>
<path d="M830.96 167.35H787V174.13H830.96V167.35Z" fill="#323232" fill-opacity="0.3"/>
<path d="M830.96 155.38H787V162.16H830.96V155.38Z" fill="#323232" fill-opacity="0.3"/>
<path d="M830.96 59.7598H787V66.5398H830.96V59.7598Z" fill="#323232" fill-opacity="0.3"/>
<path d="M830.96 71.71H787V78.49H830.96V71.71Z" fill="#323232" fill-opacity="0.3"/>
<path d="M830.96 107.57H787V114.35H830.96V107.57Z" fill="#323232" fill-opacity="0.3"/>
<path d="M830.96 95.6191H787V102.399H830.96V95.6191Z" fill="#323232" fill-opacity="0.3"/>
<path d="M830.96 119.52H787V126.3H830.96V119.52Z" fill="#323232" fill-opacity="0.3"/>
<path d="M830.96 83.6699H787V90.4499H830.96V83.6699Z" fill="#323232" fill-opacity="0.3"/>
<path d="M830.96 131.48H787V138.26H830.96V131.48Z" fill="#323232" fill-opacity="0.3"/>
<path d="M830.96 47.8105H787V54.5905H830.96V47.8105Z" fill="#323232" fill-opacity="0.3"/>
<path d="M830.96 0H787V6.78H830.96V0Z" fill="#323232" fill-opacity="0.3"/>
<path d="M830.96 35.8594H787V42.6394H830.96V35.8594Z" fill="#323232" fill-opacity="0.3"/>
<path d="M830.96 23.9102H787V30.6902H830.96V23.9102Z" fill="#323232" fill-opacity="0.3"/>
<path d="M830.96 11.9492H787V18.7292H830.96V11.9492Z" fill="#323232" fill-opacity="0.3"/>
<path d="M782.96 59.7598H739V66.5398H782.96V59.7598Z" fill="#323232" fill-opacity="0.3"/>
<path d="M782.96 71.71H739V78.49H782.96V71.71Z" fill="#323232" fill-opacity="0.3"/>
<path d="M782.96 107.57H739V114.35H782.96V107.57Z" fill="#323232" fill-opacity="0.3"/>
<path d="M782.96 95.6191H739V102.399H782.96V95.6191Z" fill="#323232" fill-opacity="0.3"/>
<path d="M782.96 83.6699H739V90.4499H782.96V83.6699Z" fill="#323232" fill-opacity="0.3"/>
<path d="M782.96 47.8105H739V54.5905H782.96V47.8105Z" fill="#323232" fill-opacity="0.3"/>
<path d="M782.96 0H739V6.78H782.96V0Z" fill="#323232" fill-opacity="0.3"/>
<path d="M782.96 35.8594H739V42.6394H782.96V35.8594Z" fill="#323232" fill-opacity="0.3"/>
<path d="M782.96 23.9102H739V30.6902H782.96V23.9102Z" fill="#323232" fill-opacity="0.3"/>
<path d="M782.96 11.9492H739V18.7292H782.96V11.9492Z" fill="#323232" fill-opacity="0.3"/>
<path d="M734.96 143.43H691V150.21H734.96V143.43Z" fill="#323232" fill-opacity="0.3"/>
<path d="M734.96 167.35H691V174.13H734.96V167.35Z" fill="#323232" fill-opacity="0.3"/>
<path d="M734.96 155.38H691V162.16H734.96V155.38Z" fill="#323232" fill-opacity="0.3"/>
<path d="M734.96 59.7598H691V66.5398H734.96V59.7598Z" fill="#323232" fill-opacity="0.3"/>
<path d="M734.96 71.71H691V78.49H734.96V71.71Z" fill="#323232" fill-opacity="0.3"/>
<path d="M734.96 107.57H691V114.35H734.96V107.57Z" fill="#323232" fill-opacity="0.3"/>
<path d="M734.96 95.6191H691V102.399H734.96V95.6191Z" fill="#323232" fill-opacity="0.3"/>
<path d="M734.96 119.52H691V126.3H734.96V119.52Z" fill="#323232" fill-opacity="0.3"/>
<path d="M734.96 83.6699H691V90.4499H734.96V83.6699Z" fill="#323232" fill-opacity="0.3"/>
<path d="M734.96 131.48H691V138.26H734.96V131.48Z" fill="#323232" fill-opacity="0.3"/>
<path d="M734.96 47.8105H691V54.5905H734.96V47.8105Z" fill="#323232" fill-opacity="0.3"/>
<path d="M734.96 0H691V6.78H734.96V0Z" fill="#323232" fill-opacity="0.3"/>
<path d="M734.96 35.8594H691V42.6394H734.96V35.8594Z" fill="#323232" fill-opacity="0.3"/>
<path d="M734.96 23.9102H691V30.6902H734.96V23.9102Z" fill="#323232" fill-opacity="0.3"/>
<path d="M734.96 11.9492H691V18.7292H734.96V11.9492Z" fill="#323232" fill-opacity="0.3"/>
<path d="M686.96 143.43H643V150.21H686.96V143.43Z" fill="#323232" fill-opacity="0.3"/>
<path d="M686.96 167.35H643V174.13H686.96V167.35Z" fill="#323232" fill-opacity="0.3"/>
<path d="M686.96 155.38H643V162.16H686.96V155.38Z" fill="#323232" fill-opacity="0.3"/>
<path d="M686.96 59.7598H643V66.5398H686.96V59.7598Z" fill="#323232" fill-opacity="0.3"/>
<path d="M686.96 71.71H643V78.49H686.96V71.71Z" fill="#323232" fill-opacity="0.3"/>
<path d="M686.96 107.57H643V114.35H686.96V107.57Z" fill="#323232" fill-opacity="0.3"/>
<path d="M686.96 95.6191H643V102.399H686.96V95.6191Z" fill="#323232" fill-opacity="0.3"/>
<path d="M686.96 119.52H643V126.3H686.96V119.52Z" fill="#323232" fill-opacity="0.3"/>
<path d="M686.96 83.6699H643V90.4499H686.96V83.6699Z" fill="#323232" fill-opacity="0.3"/>
<path d="M686.96 131.48H643V138.26H686.96V131.48Z" fill="#323232" fill-opacity="0.3"/>
<path d="M686.96 47.8105H643V54.5905H686.96V47.8105Z" fill="#323232" fill-opacity="0.3"/>
<path d="M686.96 0H643V6.78H686.96V0Z" fill="#323232" fill-opacity="0.3"/>
<path d="M686.96 35.8594H643V42.6394H686.96V35.8594Z" fill="#323232" fill-opacity="0.3"/>
<path d="M686.96 23.9102H643V30.6902H686.96V23.9102Z" fill="#323232" fill-opacity="0.3"/>
<path d="M686.96 11.9492H643V18.7292H686.96V11.9492Z" fill="#323232" fill-opacity="0.3"/>
<path d="M638.96 59.7598H595V66.5398H638.96V59.7598Z" fill="#323232" fill-opacity="0.3"/>
<path d="M638.96 71.71H595V78.49H638.96V71.71Z" fill="#323232" fill-opacity="0.3"/>
<path d="M638.96 83.6699H595V90.4499H638.96V83.6699Z" fill="#323232" fill-opacity="0.3"/>
<path d="M638.96 47.8105H595V54.5905H638.96V47.8105Z" fill="#323232" fill-opacity="0.3"/>
<path d="M638.96 0H595V6.78H638.96V0Z" fill="#323232" fill-opacity="0.3"/>
<path d="M638.96 35.8594H595V42.6394H638.96V35.8594Z" fill="#323232" fill-opacity="0.3"/>
<path d="M638.96 23.9102H595V30.6902H638.96V23.9102Z" fill="#323232" fill-opacity="0.3"/>
<path d="M638.96 11.9492H595V18.7292H638.96V11.9492Z" fill="#323232" fill-opacity="0.3"/>
<path d="M590.96 59.7598H547V66.5398H590.96V59.7598Z" fill="#323232" fill-opacity="0.3"/>
<path d="M590.96 71.71H547V78.49H590.96V71.71Z" fill="#323232" fill-opacity="0.3"/>
<path d="M590.96 107.57H547V114.35H590.96V107.57Z" fill="#323232" fill-opacity="0.3"/>
<path d="M590.96 95.6191H547V102.399H590.96V95.6191Z" fill="#323232" fill-opacity="0.3"/>
<path d="M590.96 119.52H547V126.3H590.96V119.52Z" fill="#323232" fill-opacity="0.3"/>
<path d="M590.96 83.6699H547V90.4499H590.96V83.6699Z" fill="#323232" fill-opacity="0.3"/>
<path d="M590.96 47.8105H547V54.5905H590.96V47.8105Z" fill="#323232" fill-opacity="0.3"/>
<path d="M590.96 0H547V6.78H590.96V0Z" fill="#323232" fill-opacity="0.3"/>
<path d="M590.96 35.8594H547V42.6394H590.96V35.8594Z" fill="#323232" fill-opacity="0.3"/>
<path d="M590.96 23.9102H547V30.6902H590.96V23.9102Z" fill="#323232" fill-opacity="0.3"/>
<path d="M590.96 11.9492H547V18.7292H590.96V11.9492Z" fill="#323232" fill-opacity="0.3"/>
<path d="M542.96 143.43H499V150.21H542.96V143.43Z" fill="#D80027" fill-opacity="0.2"/>
<path d="M542.96 167.35H499V174.13H542.96V167.35Z" fill="#D80027" fill-opacity="0.2"/>
<path d="M542.96 155.38H499V162.16H542.96V155.38Z" fill="#D80027" fill-opacity="0.2"/>
<path d="M542.96 59.7598H499V66.5398H542.96V59.7598Z" fill="#323232" fill-opacity="0.3"/>
<path d="M542.96 71.71H499V78.49H542.96V71.71Z" fill="#323232" fill-opacity="0.3"/>
<path d="M542.96 107.57H499V114.35H542.96V107.57Z" fill="#D80027" fill-opacity="0.2"/>
<path d="M542.96 95.6191H499V102.399H542.96V95.6191Z" fill="#D80027" fill-opacity="0.2"/>
<path d="M542.96 119.52H499V126.3H542.96V119.52Z" fill="#D80027" fill-opacity="0.2"/>
<path d="M542.96 83.6699H499V90.4499H542.96V83.6699Z" fill="#323232" fill-opacity="0.3"/>
<path d="M542.96 131.48H499V138.26H542.96V131.48Z" fill="#D80027" fill-opacity="0.2"/>
<path d="M542.96 47.8105H499V54.5905H542.96V47.8105Z" fill="#323232" fill-opacity="0.3"/>
<path d="M542.96 0H499V6.78H542.96V0Z" fill="#323232" fill-opacity="0.3"/>
<path d="M542.96 35.8594H499V42.6394H542.96V35.8594Z" fill="#323232" fill-opacity="0.3"/>
<path d="M542.96 23.9102H499V30.6902H542.96V23.9102Z" fill="#323232" fill-opacity="0.3"/>
<path d="M542.96 11.9492H499V18.7292H542.96V11.9492Z" fill="#323232" fill-opacity="0.3"/>
<path d="M494.96 59.7598H451V66.5398H494.96V59.7598Z" fill="#323232" fill-opacity="0.3"/>
<path d="M494.96 71.71H451V78.49H494.96V71.71Z" fill="#323232" fill-opacity="0.3"/>
<path d="M494.96 83.6699H451V90.4499H494.96V83.6699Z" fill="#323232" fill-opacity="0.3"/>
<path d="M494.96 47.8105H451V54.5905H494.96V47.8105Z" fill="#323232" fill-opacity="0.3"/>
<path d="M494.96 0H451V6.78H494.96V0Z" fill="#323232" fill-opacity="0.3"/>
<path d="M494.96 35.8594H451V42.6394H494.96V35.8594Z" fill="#323232" fill-opacity="0.3"/>
<path d="M494.96 23.9102H451V30.6902H494.96V23.9102Z" fill="#323232" fill-opacity="0.3"/>
<path d="M494.96 11.9492H451V18.7292H494.96V11.9492Z" fill="#323232" fill-opacity="0.3"/>
<path d="M446.96 143.43H403V150.21H446.96V143.43Z" fill="#323232" fill-opacity="0.3"/>
<path d="M494.96 143.43H451V150.21H494.96V143.43Z" fill="#323232" fill-opacity="0.3"/>
<path d="M638.96 143.43H595V150.21H638.96V143.43Z" fill="#323232" fill-opacity="0.3"/>
<path d="M782.96 143.43H739V150.21H782.96V143.43Z" fill="#323232" fill-opacity="0.3"/>
<path d="M590.96 143.43H547V150.21H590.96V143.43Z" fill="#323232" fill-opacity="0.3"/>
<path d="M446.96 167.35H403V174.13H446.96V167.35Z" fill="#323232" fill-opacity="0.3"/>
<path d="M494.96 167.35H451V174.13H494.96V167.35Z" fill="#323232" fill-opacity="0.3"/>
<path d="M638.96 167.35H595V174.13H638.96V167.35Z" fill="#323232" fill-opacity="0.3"/>
<path d="M782.96 167.35H739V174.13H782.96V167.35Z" fill="#323232" fill-opacity="0.3"/>
<path d="M590.96 167.35H547V174.13H590.96V167.35Z" fill="#323232" fill-opacity="0.3"/>
<path d="M446.96 155.38H403V162.16H446.96V155.38Z" fill="#323232" fill-opacity="0.3"/>
<path d="M494.96 155.38H451V162.16H494.96V155.38Z" fill="#323232" fill-opacity="0.3"/>
<path d="M638.96 155.38H595V162.16H638.96V155.38Z" fill="#323232" fill-opacity="0.3"/>
<path d="M782.96 155.38H739V162.16H782.96V155.38Z" fill="#323232" fill-opacity="0.3"/>
<path d="M590.96 155.38H547V162.16H590.96V155.38Z" fill="#323232" fill-opacity="0.3"/>
<path d="M446.96 59.7598H403V66.5398H446.96V59.7598Z" fill="#323232" fill-opacity="0.3"/>
<path d="M446.96 71.71H403V78.49H446.96V71.71Z" fill="#323232" fill-opacity="0.3"/>
<path d="M446.96 107.57H403V114.35H446.96V107.57Z" fill="#323232" fill-opacity="0.3"/>
<path d="M494.96 107.57H451V114.35H494.96V107.57Z" fill="#323232" fill-opacity="0.3"/>
<path d="M638.96 107.57H595V114.35H638.96V107.57Z" fill="#323232" fill-opacity="0.3"/>
<path d="M446.96 95.6191H403V102.399H446.96V95.6191Z" fill="#323232" fill-opacity="0.3"/>
<path d="M494.96 95.6191H451V102.399H494.96V95.6191Z" fill="#323232" fill-opacity="0.3"/>
<path d="M638.96 95.6191H595V102.399H638.96V95.6191Z" fill="#323232" fill-opacity="0.3"/>
<path d="M446.96 119.52H403V126.3H446.96V119.52Z" fill="#323232" fill-opacity="0.3"/>
<path d="M494.96 119.52H451V126.3H494.96V119.52Z" fill="#323232" fill-opacity="0.3"/>
<path d="M638.96 119.52H595V126.3H638.96V119.52Z" fill="#323232" fill-opacity="0.3"/>
<path d="M782.96 119.52H739V126.3H782.96V119.52Z" fill="#323232" fill-opacity="0.3"/>
<path d="M446.96 83.6699H403V90.4499H446.96V83.6699Z" fill="#323232" fill-opacity="0.3"/>
<path d="M446.96 131.48H403V138.26H446.96V131.48Z" fill="#323232" fill-opacity="0.3"/>
<path d="M494.96 131.48H451V138.26H494.96V131.48Z" fill="#323232" fill-opacity="0.3"/>
<path d="M638.96 131.48H595V138.26H638.96V131.48Z" fill="#323232" fill-opacity="0.3"/>
<path d="M782.96 131.48H739V138.26H782.96V131.48Z" fill="#323232" fill-opacity="0.3"/>
<path d="M590.96 131.48H547V138.26H590.96V131.48Z" fill="#323232" fill-opacity="0.3"/>
<path d="M446.96 47.8105H403V54.5905H446.96V47.8105Z" fill="#323232" fill-opacity="0.3"/>
<path d="M446.96 0H403V6.78H446.96V0Z" fill="#323232" fill-opacity="0.3"/>
<path d="M446.96 35.8594H403V42.6394H446.96V35.8594Z" fill="#323232" fill-opacity="0.3"/>
<path d="M446.96 23.9102H403V30.6902H446.96V23.9102Z" fill="#323232" fill-opacity="0.3"/>
<path d="M446.96 11.9492H403V18.7292H446.96V11.9492Z" fill="#323232" fill-opacity="0.3"/>
<path d="M398.96 143.43H355V150.21H398.96V143.43Z" fill="#323232" fill-opacity="0.3"/>
<path d="M398.96 167.35H355V174.13H398.96V167.35Z" fill="#323232" fill-opacity="0.3"/>
<path d="M398.96 155.38H355V162.16H398.96V155.38Z" fill="#323232" fill-opacity="0.3"/>
<path d="M398.96 59.7598H355V66.5398H398.96V59.7598Z" fill="#323232" fill-opacity="0.3"/>
<path d="M398.96 71.71H355V78.49H398.96V71.71Z" fill="#323232" fill-opacity="0.3"/>
<path d="M398.96 107.57H355V114.35H398.96V107.57Z" fill="#323232" fill-opacity="0.3"/>
<path d="M398.96 95.6191H355V102.399H398.96V95.6191Z" fill="#323232" fill-opacity="0.3"/>
<path d="M398.96 119.52H355V126.3H398.96V119.52Z" fill="#323232" fill-opacity="0.3"/>
<path d="M398.96 83.6699H355V90.4499H398.96V83.6699Z" fill="#323232" fill-opacity="0.3"/>
<path d="M398.96 131.48H355V138.26H398.96V131.48Z" fill="#323232" fill-opacity="0.3"/>
<path d="M398.96 47.8105H355V54.5905H398.96V47.8105Z" fill="#323232" fill-opacity="0.3"/>
<path d="M398.96 0H355V6.78H398.96V0Z" fill="#323232" fill-opacity="0.3"/>
<path d="M398.96 35.8594H355V42.6394H398.96V35.8594Z" fill="#323232" fill-opacity="0.3"/>
<path d="M398.96 23.9102H355V30.6902H398.96V23.9102Z" fill="#323232" fill-opacity="0.3"/>
<path d="M398.96 11.9492H355V18.7292H398.96V11.9492Z" fill="#323232" fill-opacity="0.3"/>
<path d="M350.96 143.43H307V150.21H350.96V143.43Z" fill="#323232" fill-opacity="0.3"/>
<path d="M350.96 167.35H307V174.13H350.96V167.35Z" fill="#323232" fill-opacity="0.3"/>
<path d="M350.96 155.38H307V162.16H350.96V155.38Z" fill="#323232" fill-opacity="0.3"/>
<path d="M350.96 59.7598H307V66.5398H350.96V59.7598Z" fill="#323232" fill-opacity="0.3"/>
<path d="M350.96 71.71H307V78.49H350.96V71.71Z" fill="#323232" fill-opacity="0.3"/>
<path d="M350.96 107.57H307V114.35H350.96V107.57Z" fill="#323232" fill-opacity="0.3"/>
<path d="M350.96 95.6191H307V102.399H350.96V95.6191Z" fill="#323232" fill-opacity="0.3"/>
<path d="M350.96 119.52H307V126.3H350.96V119.52Z" fill="#323232" fill-opacity="0.3"/>
<path d="M350.96 83.6699H307V90.4499H350.96V83.6699Z" fill="#323232" fill-opacity="0.3"/>
<path d="M350.96 131.48H307V138.26H350.96V131.48Z" fill="#323232" fill-opacity="0.3"/>
<path d="M350.96 47.8105H307V54.5905H350.96V47.8105Z" fill="#323232" fill-opacity="0.3"/>
<path d="M350.96 0H307V6.78H350.96V0Z" fill="#323232" fill-opacity="0.3"/>
<path d="M350.96 35.8594H307V42.6394H350.96V35.8594Z" fill="#323232" fill-opacity="0.3"/>
<path d="M350.96 23.9102H307V30.6902H350.96V23.9102Z" fill="#323232" fill-opacity="0.3"/>
<path d="M350.96 11.9492H307V18.7292H350.96V11.9492Z" fill="#323232" fill-opacity="0.3"/>
<path d="M302.96 143.43H259V150.21H302.96V143.43Z" fill="#323232" fill-opacity="0.3"/>
<path d="M302.96 167.35H259V174.13H302.96V167.35Z" fill="#323232" fill-opacity="0.3"/>
<path d="M302.96 155.38H259V162.16H302.96V155.38Z" fill="#323232" fill-opacity="0.3"/>
<path d="M302.96 59.7598H259V66.5398H302.96V59.7598Z" fill="#323232" fill-opacity="0.3"/>
<path d="M302.96 71.71H259V78.49H302.96V71.71Z" fill="#323232" fill-opacity="0.3"/>
<path d="M302.96 107.57H259V114.35H302.96V107.57Z" fill="#323232" fill-opacity="0.3"/>
<path d="M302.96 95.6191H259V102.399H302.96V95.6191Z" fill="#323232" fill-opacity="0.3"/>
<path d="M302.96 119.52H259V126.3H302.96V119.52Z" fill="#323232" fill-opacity="0.3"/>
<path d="M302.96 83.6699H259V90.4499H302.96V83.6699Z" fill="#323232" fill-opacity="0.3"/>
<path d="M302.96 131.48H259V138.26H302.96V131.48Z" fill="#323232" fill-opacity="0.3"/>
<path d="M302.96 47.8105H259V54.5905H302.96V47.8105Z" fill="#323232" fill-opacity="0.3"/>
<path d="M302.96 0H259V6.78H302.96V0Z" fill="#323232" fill-opacity="0.3"/>
<path d="M302.96 35.8594H259V42.6394H302.96V35.8594Z" fill="#323232" fill-opacity="0.3"/>
<path d="M302.96 23.9102H259V30.6902H302.96V23.9102Z" fill="#323232" fill-opacity="0.3"/>
<path d="M302.96 11.9492H259V18.7292H302.96V11.9492Z" fill="#323232" fill-opacity="0.3"/>
<path d="M254.96 143.43H211V150.21H254.96V143.43Z" fill="#323232" fill-opacity="0.3"/>
<path d="M254.96 167.35H211V174.13H254.96V167.35Z" fill="#323232" fill-opacity="0.3"/>
<path d="M254.96 155.38H211V162.16H254.96V155.38Z" fill="#323232" fill-opacity="0.3"/>
<path d="M254.96 59.7598H211V66.5398H254.96V59.7598Z" fill="#323232" fill-opacity="0.3"/>
<path d="M254.96 71.71H211V78.49H254.96V71.71Z" fill="#323232" fill-opacity="0.3"/>
<path d="M254.96 107.57H211V114.35H254.96V107.57Z" fill="#323232" fill-opacity="0.3"/>
<path d="M254.96 95.6191H211V102.399H254.96V95.6191Z" fill="#323232" fill-opacity="0.3"/>
<path d="M254.96 119.52H211V126.3H254.96V119.52Z" fill="#323232" fill-opacity="0.3"/>
<path d="M254.96 83.6699H211V90.4499H254.96V83.6699Z" fill="#323232" fill-opacity="0.3"/>
<path d="M254.96 131.48H211V138.26H254.96V131.48Z" fill="#323232" fill-opacity="0.3"/>
<path d="M254.96 47.8105H211V54.5905H254.96V47.8105Z" fill="#323232" fill-opacity="0.3"/>
<path d="M254.96 0H211V6.78H254.96V0Z" fill="#323232" fill-opacity="0.3"/>
<path d="M254.96 35.8594H211V42.6394H254.96V35.8594Z" fill="#323232" fill-opacity="0.3"/>
<path d="M254.96 23.9102H211V30.6902H254.96V23.9102Z" fill="#323232" fill-opacity="0.3"/>
<path d="M254.96 11.9492H211V18.7292H254.96V11.9492Z" fill="#323232" fill-opacity="0.3"/>
<path d="M206.96 143.43H163V150.21H206.96V143.43Z" fill="#323232" fill-opacity="0.3"/>
<path d="M206.96 167.35H163V174.13H206.96V167.35Z" fill="#323232" fill-opacity="0.3"/>
<path d="M206.96 155.38H163V162.16H206.96V155.38Z" fill="#323232" fill-opacity="0.3"/>
<path d="M206.96 59.7598H163V66.5398H206.96V59.7598Z" fill="#323232" fill-opacity="0.3"/>
<path d="M206.96 71.71H163V78.49H206.96V71.71Z" fill="#323232" fill-opacity="0.3"/>
<path d="M206.96 107.57H163V114.35H206.96V107.57Z" fill="#323232" fill-opacity="0.3"/>
<path d="M206.96 95.6191H163V102.399H206.96V95.6191Z" fill="#323232" fill-opacity="0.3"/>
<path d="M206.96 119.52H163V126.3H206.96V119.52Z" fill="#323232" fill-opacity="0.3"/>
<path d="M206.96 83.6699H163V90.4499H206.96V83.6699Z" fill="#323232" fill-opacity="0.3"/>
<path d="M206.96 131.48H163V138.26H206.96V131.48Z" fill="#323232" fill-opacity="0.3"/>
<path d="M206.96 47.8105H163V54.5905H206.96V47.8105Z" fill="#323232" fill-opacity="0.3"/>
<path d="M206.96 0H163V6.78H206.96V0Z" fill="#323232" fill-opacity="0.3"/>
<path d="M206.96 35.8594H163V42.6394H206.96V35.8594Z" fill="#323232" fill-opacity="0.3"/>
<path d="M206.96 23.9102H163V30.6902H206.96V23.9102Z" fill="#323232" fill-opacity="0.3"/>
<path d="M206.96 11.9492H163V18.7292H206.96V11.9492Z" fill="#323232" fill-opacity="0.3"/>
<path d="M158.96 143.43H115V150.21H158.96V143.43Z" fill="#323232" fill-opacity="0.3"/>
<path d="M158.96 167.35H115V174.13H158.96V167.35Z" fill="#323232" fill-opacity="0.3"/>
<path d="M158.96 155.38H115V162.16H158.96V155.38Z" fill="#323232" fill-opacity="0.3"/>
<path d="M158.96 59.7598H115V66.5398H158.96V59.7598Z" fill="#323232" fill-opacity="0.3"/>
<path d="M158.96 71.71H115V78.49H158.96V71.71Z" fill="#323232" fill-opacity="0.3"/>
<path d="M158.96 107.57H115V114.35H158.96V107.57Z" fill="#323232" fill-opacity="0.3"/>
<path d="M158.96 95.6191H115V102.399H158.96V95.6191Z" fill="#323232" fill-opacity="0.3"/>
<path d="M158.96 119.52H115V126.3H158.96V119.52Z" fill="#323232" fill-opacity="0.3"/>
<path d="M158.96 83.6699H115V90.4499H158.96V83.6699Z" fill="#323232" fill-opacity="0.3"/>
<path d="M158.96 131.48H115V138.26H158.96V131.48Z" fill="#323232" fill-opacity="0.3"/>
<path d="M158.96 47.8105H115V54.5905H158.96V47.8105Z" fill="#323232" fill-opacity="0.3"/>
<path d="M158.96 0H115V6.78H158.96V0Z" fill="#323232" fill-opacity="0.3"/>
<path d="M158.96 35.8594H115V42.6394H158.96V35.8594Z" fill="#323232" fill-opacity="0.3"/>
<path d="M158.96 23.9102H115V30.6902H158.96V23.9102Z" fill="#323232" fill-opacity="0.3"/>
<path d="M158.96 11.9492H115V18.7292H158.96V11.9492Z" fill="#323232" fill-opacity="0.3"/>
<path d="M110.96 143.43H67V150.21H110.96V143.43Z" fill="#323232" fill-opacity="0.3"/>
<path d="M110.96 167.35H67V174.13H110.96V167.35Z" fill="#323232" fill-opacity="0.3"/>
<path d="M110.96 155.38H67V162.16H110.96V155.38Z" fill="#323232" fill-opacity="0.3"/>
<path d="M110.96 59.7598H67V66.5398H110.96V59.7598Z" fill="#323232" fill-opacity="0.3"/>
<path d="M110.96 71.71H67V78.49H110.96V71.71Z" fill="#323232" fill-opacity="0.3"/>
<path d="M110.96 107.57H67V114.35H110.96V107.57Z" fill="#323232" fill-opacity="0.3"/>
<path d="M110.96 95.6191H67V102.399H110.96V95.6191Z" fill="#323232" fill-opacity="0.3"/>
<path d="M110.96 119.52H67V126.3H110.96V119.52Z" fill="#323232" fill-opacity="0.3"/>
<path d="M110.96 83.6699H67V90.4499H110.96V83.6699Z" fill="#323232" fill-opacity="0.3"/>
<path d="M110.96 131.48H67V138.26H110.96V131.48Z" fill="#323232" fill-opacity="0.3"/>
<path d="M110.96 47.8105H67V54.5905H110.96V47.8105Z" fill="#323232" fill-opacity="0.3"/>
<path d="M110.96 0H67V6.78H110.96V0Z" fill="#323232" fill-opacity="0.3"/>
<path d="M110.96 35.8594H67V42.6394H110.96V35.8594Z" fill="#323232" fill-opacity="0.3"/>
<path d="M110.96 23.9102H67V30.6902H110.96V23.9102Z" fill="#323232" fill-opacity="0.3"/>
<path d="M110.96 11.9492H67V18.7292H110.96V11.9492Z" fill="#323232" fill-opacity="0.3"/>
<path d="M62.9601 143.43H19V150.21H62.9601V143.43Z" fill="#323232" fill-opacity="0.3"/>
<path d="M62.9601 167.35H19V174.13H62.9601V167.35Z" fill="#323232" fill-opacity="0.3"/>
<path d="M62.9601 155.38H19V162.16H62.9601V155.38Z" fill="#323232" fill-opacity="0.3"/>
<path d="M62.9601 59.7598H19V66.5398H62.9601V59.7598Z" fill="#323232" fill-opacity="0.3"/>
<path d="M62.9601 71.71H19V78.49H62.9601V71.71Z" fill="#323232" fill-opacity="0.3"/>
<path d="M62.9601 107.57H19V114.35H62.9601V107.57Z" fill="#323232" fill-opacity="0.3"/>
<path d="M62.9601 95.6191H19V102.399H62.9601V95.6191Z" fill="#323232" fill-opacity="0.3"/>
<path d="M62.9601 119.52H19V126.3H62.9601V119.52Z" fill="#323232" fill-opacity="0.3"/>
<path d="M62.9601 83.6699H19V90.4499H62.9601V83.6699Z" fill="#323232" fill-opacity="0.3"/>
<path d="M62.9601 131.48H19V138.26H62.9601V131.48Z" fill="#323232" fill-opacity="0.3"/>
<path d="M62.9601 47.8105H19V54.5905H62.9601V47.8105Z" fill="#323232" fill-opacity="0.3"/>
<path d="M62.9601 0H19V6.78H62.9601V0Z" fill="#323232" fill-opacity="0.3"/>
<path d="M62.9601 35.8594H19V42.6394H62.9601V35.8594Z" fill="#323232" fill-opacity="0.3"/>
<path d="M62.9601 23.9102H19V30.6902H62.9601V23.9102Z" fill="#323232" fill-opacity="0.3"/>
<path d="M62.9601 11.9492H19V18.7292H62.9601V11.9492Z" fill="#323232" fill-opacity="0.3"/>
<path d="M14.9601 143.43H-29V150.21H14.9601V143.43Z" fill="#323232" fill-opacity="0.3"/>
<path d="M14.9601 167.35H-29V174.13H14.9601V167.35Z" fill="#323232" fill-opacity="0.3"/>
<path d="M14.9601 155.38H-29V162.16H14.9601V155.38Z" fill="#323232" fill-opacity="0.3"/>
<path d="M14.9601 59.7598H-29V66.5398H14.9601V59.7598Z" fill="#323232" fill-opacity="0.3"/>
<path d="M14.9601 71.71H-29V78.49H14.9601V71.71Z" fill="#323232" fill-opacity="0.3"/>
<path d="M14.9601 107.57H-29V114.35H14.9601V107.57Z" fill="#323232" fill-opacity="0.3"/>
<path d="M14.9601 95.6191H-29V102.399H14.9601V95.6191Z" fill="#323232" fill-opacity="0.3"/>
<path d="M14.9601 119.52H-29V126.3H14.9601V119.52Z" fill="#323232" fill-opacity="0.3"/>
<path d="M14.9601 83.6699H-29V90.4499H14.9601V83.6699Z" fill="#323232" fill-opacity="0.3"/>
<path d="M14.9601 131.48H-29V138.26H14.9601V131.48Z" fill="#323232" fill-opacity="0.3"/>
<path d="M14.9601 47.8105H-29V54.5905H14.9601V47.8105Z" fill="#323232" fill-opacity="0.3"/>
<path d="M14.9601 0H-29V6.78H14.9601V0Z" fill="#323232" fill-opacity="0.3"/>
<path d="M14.9601 35.8594H-29V42.6394H14.9601V35.8594Z" fill="#323232" fill-opacity="0.3"/>
<path d="M14.9601 23.9102H-29V30.6902H14.9601V23.9102Z" fill="#323232" fill-opacity="0.3"/>
<path d="M14.9601 11.9492H-29V18.7292H14.9601V11.9492Z" fill="#323232" fill-opacity="0.3"/>
<path d="M254.96 167H211V173.78H254.96V167Z" fill="url(#paint0_linear)" fill-opacity="0.2"/>
<path d="M254.96 131.471H211V138.251H254.96V131.471Z" fill="url(#paint1_linear)" fill-opacity="0.8"/>
<path d="M254.96 143.42H211V150.2H254.96V143.42Z" fill="url(#paint2_linear)" fill-opacity="0.2"/>
<path d="M254.96 155.381H211V162.161H254.96V155.381Z" fill="url(#paint3_linear)" fill-opacity="0.2"/>
<path d="M446.96 167.33H403V174.11H446.96V167.33Z" fill="url(#paint4_linear)" fill-opacity="0.2"/>
<path d="M494.96 167.33H451V174.11H494.96V167.33Z" fill="url(#paint5_linear)" fill-opacity="0.2"/>
<path d="M638.96 167.33H595V174.11H638.96V167.33Z" fill="url(#paint6_linear)" fill-opacity="0.2"/>
<path d="M782.96 167.33H739V174.11H782.96V167.33Z" fill="url(#paint7_linear)" fill-opacity="0.2"/>
<path d="M590.96 167.33H547V174.11H590.96V167.33Z" fill="url(#paint8_linear)" fill-opacity="0.2"/>
<path d="M446.96 83.6602H403V90.4402H446.96V83.6602Z" fill="url(#paint9_linear)" fill-opacity="0.2"/>
<path d="M446.96 95.6104H403V102.39H446.96V95.6104Z" fill="url(#paint10_linear)" fill-opacity="0.2"/>
<path d="M494.96 95.6104H451V102.39H494.96V95.6104Z" fill="url(#paint11_linear)" fill-opacity="0.2"/>
<path d="M638.96 95.6104H595V102.39H638.96V95.6104Z" fill="url(#paint12_linear)" fill-opacity="0.2"/>
<path d="M446.96 131.471H403V138.251H446.96V131.471Z" fill="url(#paint13_linear)" fill-opacity="0.2"/>
<path d="M494.96 131.471H451V138.251H494.96V131.471Z" fill="url(#paint14_linear)" fill-opacity="0.2"/>
<path d="M638.96 131.471H595V138.251H638.96V131.471Z" fill="url(#paint15_linear)" fill-opacity="0.2"/>
<path d="M782.96 131.471H739V138.251H782.96V131.471Z" fill="url(#paint16_linear)" fill-opacity="0.2"/>
<path d="M590.96 131.471H547V138.251H590.96V131.471Z" fill="url(#paint17_linear)" fill-opacity="0.2"/>
<path d="M446.96 119.52H403V126.3H446.96V119.52Z" fill="url(#paint18_linear)" fill-opacity="0.2"/>
<path d="M494.96 119.52H451V126.3H494.96V119.52Z" fill="url(#paint19_linear)" fill-opacity="0.2"/>
<path d="M638.96 119.52H595V126.3H638.96V119.52Z" fill="url(#paint20_linear)" fill-opacity="0.2"/>
<path d="M782.96 119.52H739V126.3H782.96V119.52Z" fill="url(#paint21_linear)" fill-opacity="0.2"/>
<path d="M446.96 143.42H403V150.2H446.96V143.42Z" fill="url(#paint22_linear)" fill-opacity="0.2"/>
<path d="M494.96 143.42H451V150.2H494.96V143.42Z" fill="url(#paint23_linear)" fill-opacity="0.2"/>
<path d="M638.96 143.42H595V150.2H638.96V143.42Z" fill="url(#paint24_linear)" fill-opacity="0.2"/>
<path d="M782.96 143.42H739V150.2H782.96V143.42Z" fill="url(#paint25_linear)" fill-opacity="0.2"/>
<path d="M590.96 143.42H547V150.2H590.96V143.42Z" fill="url(#paint26_linear)" fill-opacity="0.2"/>
<path d="M446.96 107.57H403V114.35H446.96V107.57Z" fill="url(#paint27_linear)" fill-opacity="0.2"/>
<path d="M494.96 107.57H451V114.35H494.96V107.57Z" fill="url(#paint28_linear)" fill-opacity="0.2"/>
<path d="M638.96 107.57H595V114.35H638.96V107.57Z" fill="url(#paint29_linear)" fill-opacity="0.2"/>
<path d="M446.96 155.381H403V162.161H446.96V155.381Z" fill="url(#paint30_linear)" fill-opacity="0.2"/>
<path d="M494.96 155.381H451V162.161H494.96V155.381Z" fill="url(#paint31_linear)" fill-opacity="0.2"/>
<path d="M638.96 155.381H595V162.161H638.96V155.381Z" fill="url(#paint32_linear)" fill-opacity="0.2"/>
<path d="M782.96 155.381H739V162.161H782.96V155.381Z" fill="url(#paint33_linear)" fill-opacity="0.2"/>
<path d="M590.96 155.381H547V162.161H590.96V155.381Z" fill="url(#paint34_linear)" fill-opacity="0.2"/>
<path d="M638.96 83.6602H595V90.4402H638.96V83.6602Z" fill="url(#paint35_linear)" fill-opacity="0.8"/>
<path d="M1214.96 167.33H1171V174.11H1214.96V167.33Z" fill="url(#paint36_linear)" fill-opacity="0.2"/>
<path d="M1214.96 155.381H1171V162.161H1214.96V155.381Z" fill="url(#paint37_linear)" fill-opacity="0.8"/>
<path d="M1406.96 167.33H1363V174.11H1406.96V167.33Z" fill="url(#paint38_linear)" fill-opacity="0.2"/>
<path d="M1598.96 167.33H1555V174.11H1598.96V167.33Z" fill="url(#paint39_linear)" fill-opacity="0.2"/>
<path d="M163 167.33H206.96V174.11H163V167.33Z" fill="url(#paint40_linear)" fill-opacity="0.2"/>
<path d="M163 143.42H206.96V150.2H163V143.42Z" fill="url(#paint41_linear)" fill-opacity="0.8"/>
<path d="M163 155.381H206.96V162.161H163V155.381Z" fill="url(#paint42_linear)" fill-opacity="0.2"/>
<path d="M350.96 167.33H307V174.11H350.96V167.33Z" fill="url(#paint43_linear)" fill-opacity="0.2"/>
<path d="M350.96 95.6104H307V102.39H350.96V95.6104Z" fill="url(#paint44_linear)" fill-opacity="0.8"/>
<path d="M350.96 131.471H307V138.251H350.96V131.471Z" fill="url(#paint45_linear)" fill-opacity="0.2"/>
<path d="M350.96 119.52H307V126.3H350.96V119.52Z" fill="url(#paint46_linear)" fill-opacity="0.2"/>
<path d="M350.96 143.42H307V150.2H350.96V143.42Z" fill="url(#paint47_linear)" fill-opacity="0.2"/>
<path d="M350.96 107.57H307V114.35H350.96V107.57Z" fill="url(#paint48_linear)" fill-opacity="0.8"/>
<path d="M350.96 155.381H307V162.161H350.96V155.381Z" fill="url(#paint49_linear)" fill-opacity="0.2"/>
<path d="M542.96 167.33H499V174.11H542.96V167.33Z" fill="#D80027" fill-opacity="0.2"/>
<path d="M542.96 83.6602H499V90.4402H542.96V83.6602Z" fill="#D80027"/>
<path d="M542.96 95.6104H499V102.39H542.96V95.6104Z" fill="#D80027" fill-opacity="0.2"/>
<path d="M542.96 95.6104H499V102.39H542.96V95.6104Z" fill="#D80027" fill-opacity="0.2"/>
<path d="M542.96 131.471H499V138.251H542.96V131.471Z" fill="#D80027" fill-opacity="0.2"/>
<path d="M542.96 119.52H499V126.3H542.96V119.52Z" fill="#D80027" fill-opacity="0.2"/>
<path d="M542.96 143.42H499V150.2H542.96V143.42Z" fill="#D80027" fill-opacity="0.2"/>
<path d="M542.96 108H499V114.78H542.96V108Z" fill="#D80027" fill-opacity="0.2"/>
<path d="M542.96 155.381H499V162.161H542.96V155.381Z" fill="#D80027" fill-opacity="0.2"/>
<path d="M734.96 167.33H691V174.11H734.96V167.33Z" fill="#D80027" fill-opacity="0.2"/>
<path d="M734.96 131.471H691V138.251H734.96V131.471Z" fill="#D80027" fill-opacity="0.2"/>
<path d="M734.96 119.52H691V126.3H734.96V119.52Z" fill="#D80027"/>
<path d="M734.96 143.42H691V150.2H734.96V143.42Z" fill="#D80027" fill-opacity="0.2"/>
<path d="M734.96 155.381H691V162.161H734.96V155.381Z" fill="#D80027" fill-opacity="0.2"/>
<path d="M1310.96 167.33H1267V174.11H1310.96V167.33Z" fill="url(#paint50_linear)" fill-opacity="0.2"/>
<path d="M1310.96 143.42H1267V150.2H1310.96V143.42Z" fill="url(#paint51_linear)" fill-opacity="0.8"/>
<path d="M1310.96 155.381H1267V162.161H1310.96V155.381Z" fill="url(#paint52_linear)" fill-opacity="0.2"/>
<path d="M1502.96 167.33H1459V174.11H1502.96V167.33Z" fill="#D80027" fill-opacity="0.2"/>
<path d="M1502.96 155.381H1459V162.161H1502.96V155.381Z" fill="#D80027"/>
<path d="M302.96 167.33H259V174.11H302.96V167.33Z" fill="url(#paint53_linear)" fill-opacity="0.2"/>
<path d="M302.96 131.471H259V138.251H302.96V131.471Z" fill="url(#paint54_linear)" fill-opacity="0.2"/>
<path d="M302.96 119.52H259V126.3H302.96V119.52Z" fill="url(#paint55_linear)" fill-opacity="0.2"/>
<path d="M302.96 143.42H259V150.2H302.96V143.42Z" fill="url(#paint56_linear)" fill-opacity="0.2"/>
<path d="M302.96 107.57H259V114.35H302.96V107.57Z" fill="url(#paint57_linear)" fill-opacity="0.8"/>
<path d="M302.96 155.381H259V162.161H302.96V155.381Z" fill="url(#paint58_linear)" fill-opacity="0.2"/>
<path d="M494.96 83.6602H451V90.4402H494.96V83.6602Z" fill="url(#paint59_linear)" fill-opacity="0.8"/>
<path d="M686.96 167.33H643V174.11H686.96V167.33Z" fill="#D80027" fill-opacity="0.2"/>
<path d="M686.96 95.6104H643V102.39H686.96V95.6104Z" fill="#D80027"/>
<path d="M686.96 131.471H643V138.251H686.96V131.471Z" fill="#D80027" fill-opacity="0.2"/>
<path d="M686.96 119.52H643V126.3H686.96V119.52Z" fill="#D80027" fill-opacity="0.2"/>
<path d="M686.96 143.42H643V150.2H686.96V143.42Z" fill="#D80027" fill-opacity="0.2"/>
<path d="M686.96 107.57H643V114.35H686.96V107.57Z" fill="#D80027"/>
<path d="M686.96 155.381H643V162.161H686.96V155.381Z" fill="#D80027" fill-opacity="0.2"/>
<path d="M1262.96 167.33H1219V174.11H1262.96V167.33Z" fill="#D80027" fill-opacity="0.2"/>
<path d="M1262.96 155.381H1219V162.161H1262.96V155.381Z" fill="#D80027"/>
<path d="M1454.96 167.33H1411V174.11H1454.96V167.33Z" fill="#D80027"/>
<path d="M398.96 167.33H355V174.11H398.96V167.33Z" fill="#D80027" fill-opacity="0.2"/>
<path d="M398.96 131.471H355V138.251H398.96V131.471Z" fill="#D80027" fill-opacity="0.2"/>
<path d="M398.96 119.52H355V126.3H398.96V119.52Z" fill="#D80027" fill-opacity="0.2"/>
<path d="M398.96 143.42H355V150.2H398.96V143.42Z" fill="#D80027" fill-opacity="0.2"/>
<path d="M398.96 107.57H355V114.35H398.96V107.57Z" fill="#D80027"/>
<path d="M398.96 155.381H355V162.161H398.96V155.381Z" fill="#D80027" fill-opacity="0.2"/>
<path d="M782.96 107.57H739V114.35H782.96V107.57Z" fill="url(#paint60_linear)" fill-opacity="0.8"/>
<path d="M1166.96 167.33H1123V174.11H1166.96V167.33Z" fill="#D80027" fill-opacity="0.2"/>
<path d="M1166.96 143.42H1123V150.2H1166.96V143.42Z" fill="#D80027"/>
<path d="M1166.96 155.381H1123V162.161H1166.96V155.381Z" fill="#D80027"/>
<path d="M1166.96 155.381H1123V162.161H1166.96V155.381Z" fill="#D80027" fill-opacity="0.2"/>
<path d="M1358.96 167.33H1315V174.11H1358.96V167.33Z" fill="url(#paint61_linear)" fill-opacity="0.2"/>
<path d="M1358.96 155.381H1315V162.161H1358.96V155.381Z" fill="url(#paint62_linear)" fill-opacity="0.8"/>
<path d="M1550.96 167.33H1507V174.11H1550.96V167.33Z" fill="#D80027"/>
<defs>
<linearGradient id="paint0_linear" x1="232.98" y1="167" x2="232.98" y2="173.78" gradientUnits="userSpaceOnUse">
<stop stop-color="#EB681F"/>
<stop offset="1" stop-color="#FF9357"/>
</linearGradient>
<linearGradient id="paint1_linear" x1="232.98" y1="131.471" x2="232.98" y2="138.251" gradientUnits="userSpaceOnUse">
<stop stop-color="#EB681F"/>
<stop offset="1" stop-color="#FF9357"/>
</linearGradient>
<linearGradient id="paint2_linear" x1="232.98" y1="143.42" x2="232.98" y2="150.2" gradientUnits="userSpaceOnUse">
<stop stop-color="#EB681F"/>
<stop offset="1" stop-color="#FF9357"/>
</linearGradient>
<linearGradient id="paint3_linear" x1="232.98" y1="155.381" x2="232.98" y2="162.161" gradientUnits="userSpaceOnUse">
<stop stop-color="#EB681F"/>
<stop offset="1" stop-color="#FF9357"/>
</linearGradient>
<linearGradient id="paint4_linear" x1="424.98" y1="167.33" x2="424.98" y2="174.11" gradientUnits="userSpaceOnUse">
<stop stop-color="#EB681F"/>
<stop offset="1" stop-color="#FF9357"/>
</linearGradient>
<linearGradient id="paint5_linear" x1="472.98" y1="167.33" x2="472.98" y2="174.11" gradientUnits="userSpaceOnUse">
<stop stop-color="#EB681F"/>
<stop offset="1" stop-color="#FF9357"/>
</linearGradient>
<linearGradient id="paint6_linear" x1="616.98" y1="167.33" x2="616.98" y2="174.11" gradientUnits="userSpaceOnUse">
<stop stop-color="#EB681F"/>
<stop offset="1" stop-color="#FF9357"/>
</linearGradient>
<linearGradient id="paint7_linear" x1="760.98" y1="167.33" x2="760.98" y2="174.11" gradientUnits="userSpaceOnUse">
<stop stop-color="#EB681F"/>
<stop offset="1" stop-color="#FF9357"/>
</linearGradient>
<linearGradient id="paint8_linear" x1="568.98" y1="167.33" x2="568.98" y2="174.11" gradientUnits="userSpaceOnUse">
<stop stop-color="#EB681F"/>
<stop offset="1" stop-color="#FF9357"/>
</linearGradient>
<linearGradient id="paint9_linear" x1="424.98" y1="83.6602" x2="424.98" y2="90.4402" gradientUnits="userSpaceOnUse">
<stop stop-color="#EB681F"/>
<stop offset="1" stop-color="#FF9357"/>
</linearGradient>
<linearGradient id="paint10_linear" x1="424.98" y1="95.6104" x2="424.98" y2="102.39" gradientUnits="userSpaceOnUse">
<stop stop-color="#EB681F"/>
<stop offset="1" stop-color="#FF9357"/>
</linearGradient>
<linearGradient id="paint11_linear" x1="472.98" y1="95.6104" x2="472.98" y2="102.39" gradientUnits="userSpaceOnUse">
<stop stop-color="#EB681F"/>
<stop offset="1" stop-color="#FF9357"/>
</linearGradient>
<linearGradient id="paint12_linear" x1="616.98" y1="95.6104" x2="616.98" y2="102.39" gradientUnits="userSpaceOnUse">
<stop stop-color="#EB681F"/>
<stop offset="1" stop-color="#FF9357"/>
</linearGradient>
<linearGradient id="paint13_linear" x1="424.98" y1="131.471" x2="424.98" y2="138.251" gradientUnits="userSpaceOnUse">
<stop stop-color="#EB681F"/>
<stop offset="1" stop-color="#FF9357"/>
</linearGradient>
<linearGradient id="paint14_linear" x1="472.98" y1="131.471" x2="472.98" y2="138.251" gradientUnits="userSpaceOnUse">
<stop stop-color="#EB681F"/>
<stop offset="1" stop-color="#FF9357"/>
</linearGradient>
<linearGradient id="paint15_linear" x1="616.98" y1="131.471" x2="616.98" y2="138.251" gradientUnits="userSpaceOnUse">
<stop stop-color="#EB681F"/>
<stop offset="1" stop-color="#FF9357"/>
</linearGradient>
<linearGradient id="paint16_linear" x1="760.98" y1="131.471" x2="760.98" y2="138.251" gradientUnits="userSpaceOnUse">
<stop stop-color="#EB681F"/>
<stop offset="1" stop-color="#FF9357"/>
</linearGradient>
<linearGradient id="paint17_linear" x1="568.98" y1="131.471" x2="568.98" y2="138.251" gradientUnits="userSpaceOnUse">
<stop stop-color="#EB681F"/>
<stop offset="1" stop-color="#FF9357"/>
</linearGradient>
<linearGradient id="paint18_linear" x1="424.98" y1="119.52" x2="424.98" y2="126.3" gradientUnits="userSpaceOnUse">
<stop stop-color="#EB681F"/>
<stop offset="1" stop-color="#FF9357"/>
</linearGradient>
<linearGradient id="paint19_linear" x1="472.98" y1="119.52" x2="472.98" y2="126.3" gradientUnits="userSpaceOnUse">
<stop stop-color="#EB681F"/>
<stop offset="1" stop-color="#FF9357"/>
</linearGradient>
<linearGradient id="paint20_linear" x1="616.98" y1="119.52" x2="616.98" y2="126.3" gradientUnits="userSpaceOnUse">
<stop stop-color="#EB681F"/>
<stop offset="1" stop-color="#FF9357"/>
</linearGradient>
<linearGradient id="paint21_linear" x1="760.98" y1="119.52" x2="760.98" y2="126.3" gradientUnits="userSpaceOnUse">
<stop stop-color="#EB681F"/>
<stop offset="1" stop-color="#FF9357"/>
</linearGradient>
<linearGradient id="paint22_linear" x1="424.98" y1="143.42" x2="424.98" y2="150.2" gradientUnits="userSpaceOnUse">
<stop stop-color="#EB681F"/>
<stop offset="1" stop-color="#FF9357"/>
</linearGradient>
<linearGradient id="paint23_linear" x1="472.98" y1="143.42" x2="472.98" y2="150.2" gradientUnits="userSpaceOnUse">
<stop stop-color="#EB681F"/>
<stop offset="1" stop-color="#FF9357"/>
</linearGradient>
<linearGradient id="paint24_linear" x1="616.98" y1="143.42" x2="616.98" y2="150.2" gradientUnits="userSpaceOnUse">
<stop stop-color="#EB681F"/>
<stop offset="1" stop-color="#FF9357"/>
</linearGradient>
<linearGradient id="paint25_linear" x1="760.98" y1="143.42" x2="760.98" y2="150.2" gradientUnits="userSpaceOnUse">
<stop stop-color="#EB681F"/>
<stop offset="1" stop-color="#FF9357"/>
</linearGradient>
<linearGradient id="paint26_linear" x1="568.98" y1="143.42" x2="568.98" y2="150.2" gradientUnits="userSpaceOnUse">
<stop stop-color="#EB681F"/>
<stop offset="1" stop-color="#FF9357"/>
</linearGradient>
<linearGradient id="paint27_linear" x1="424.98" y1="107.57" x2="424.98" y2="114.35" gradientUnits="userSpaceOnUse">
<stop stop-color="#EB681F"/>
<stop offset="1" stop-color="#FF9357"/>
</linearGradient>
<linearGradient id="paint28_linear" x1="472.98" y1="107.57" x2="472.98" y2="114.35" gradientUnits="userSpaceOnUse">
<stop stop-color="#EB681F"/>
<stop offset="1" stop-color="#FF9357"/>
</linearGradient>
<linearGradient id="paint29_linear" x1="616.98" y1="107.57" x2="616.98" y2="114.35" gradientUnits="userSpaceOnUse">
<stop stop-color="#EB681F"/>
<stop offset="1" stop-color="#FF9357"/>
</linearGradient>
<linearGradient id="paint30_linear" x1="424.98" y1="155.381" x2="424.98" y2="162.161" gradientUnits="userSpaceOnUse">
<stop stop-color="#EB681F"/>
<stop offset="1" stop-color="#FF9357"/>
</linearGradient>
<linearGradient id="paint31_linear" x1="472.98" y1="155.381" x2="472.98" y2="162.161" gradientUnits="userSpaceOnUse">
<stop stop-color="#EB681F"/>
<stop offset="1" stop-color="#FF9357"/>
</linearGradient>
<linearGradient id="paint32_linear" x1="616.98" y1="155.381" x2="616.98" y2="162.161" gradientUnits="userSpaceOnUse">
<stop stop-color="#EB681F"/>
<stop offset="1" stop-color="#FF9357"/>
</linearGradient>
<linearGradient id="paint33_linear" x1="760.98" y1="155.381" x2="760.98" y2="162.161" gradientUnits="userSpaceOnUse">
<stop stop-color="#EB681F"/>
<stop offset="1" stop-color="#FF9357"/>
</linearGradient>
<linearGradient id="paint34_linear" x1="568.98" y1="155.381" x2="568.98" y2="162.161" gradientUnits="userSpaceOnUse">
<stop stop-color="#EB681F"/>
<stop offset="1" stop-color="#FF9357"/>
</linearGradient>
<linearGradient id="paint35_linear" x1="616.98" y1="83.6602" x2="616.98" y2="90.4402" gradientUnits="userSpaceOnUse">
<stop stop-color="#EB681F"/>
<stop offset="1" stop-color="#FF9357"/>
</linearGradient>
<linearGradient id="paint36_linear" x1="1192.98" y1="167.33" x2="1192.98" y2="174.11" gradientUnits="userSpaceOnUse">
<stop stop-color="#EB681F"/>
<stop offset="1" stop-color="#FF9357"/>
</linearGradient>
<linearGradient id="paint37_linear" x1="1192.98" y1="155.381" x2="1192.98" y2="162.161" gradientUnits="userSpaceOnUse">
<stop stop-color="#EB681F"/>
<stop offset="1" stop-color="#FF9357"/>
</linearGradient>
<linearGradient id="paint38_linear" x1="1384.98" y1="167.33" x2="1384.98" y2="174.11" gradientUnits="userSpaceOnUse">
<stop stop-color="#EB681F"/>
<stop offset="1" stop-color="#FF9357"/>
</linearGradient>
<linearGradient id="paint39_linear" x1="1576.98" y1="167.33" x2="1576.98" y2="174.11" gradientUnits="userSpaceOnUse">
<stop stop-color="#EB681F"/>
<stop offset="1" stop-color="#FF9357"/>
</linearGradient>
<linearGradient id="paint40_linear" x1="184.98" y1="167.33" x2="184.98" y2="174.11" gradientUnits="userSpaceOnUse">
<stop stop-color="#EB681F"/>
<stop offset="1" stop-color="#FF9357"/>
</linearGradient>
<linearGradient id="paint41_linear" x1="184.98" y1="143.42" x2="184.98" y2="150.2" gradientUnits="userSpaceOnUse">
<stop stop-color="#EB681F"/>
<stop offset="1" stop-color="#FF9357"/>
</linearGradient>
<linearGradient id="paint42_linear" x1="184.98" y1="155.381" x2="184.98" y2="162.161" gradientUnits="userSpaceOnUse">
<stop stop-color="#EB681F"/>
<stop offset="1" stop-color="#FF9357"/>
</linearGradient>
<linearGradient id="paint43_linear" x1="328.98" y1="167.33" x2="328.98" y2="174.11" gradientUnits="userSpaceOnUse">
<stop stop-color="#EB681F"/>
<stop offset="1" stop-color="#FF9357"/>
</linearGradient>
<linearGradient id="paint44_linear" x1="328.98" y1="95.6104" x2="328.98" y2="102.39" gradientUnits="userSpaceOnUse">
<stop stop-color="#EB681F"/>
<stop offset="1" stop-color="#FF9357"/>
</linearGradient>
<linearGradient id="paint45_linear" x1="328.98" y1="131.471" x2="328.98" y2="138.251" gradientUnits="userSpaceOnUse">
<stop stop-color="#EB681F"/>
<stop offset="1" stop-color="#FF9357"/>
</linearGradient>
<linearGradient id="paint46_linear" x1="328.98" y1="119.52" x2="328.98" y2="126.3" gradientUnits="userSpaceOnUse">
<stop stop-color="#EB681F"/>
<stop offset="1" stop-color="#FF9357"/>
</linearGradient>
<linearGradient id="paint47_linear" x1="328.98" y1="143.42" x2="328.98" y2="150.2" gradientUnits="userSpaceOnUse">
<stop stop-color="#EB681F"/>
<stop offset="1" stop-color="#FF9357"/>
</linearGradient>
<linearGradient id="paint48_linear" x1="328.98" y1="107.57" x2="328.98" y2="114.35" gradientUnits="userSpaceOnUse">
<stop stop-color="#EB681F"/>
<stop offset="1" stop-color="#FF9357"/>
</linearGradient>
<linearGradient id="paint49_linear" x1="328.98" y1="155.381" x2="328.98" y2="162.161" gradientUnits="userSpaceOnUse">
<stop stop-color="#EB681F"/>
<stop offset="1" stop-color="#FF9357"/>
</linearGradient>
<linearGradient id="paint50_linear" x1="1288.98" y1="167.33" x2="1288.98" y2="174.11" gradientUnits="userSpaceOnUse">
<stop stop-color="#EB681F"/>
<stop offset="1" stop-color="#FF9357"/>
</linearGradient>
<linearGradient id="paint51_linear" x1="1288.98" y1="143.42" x2="1288.98" y2="150.2" gradientUnits="userSpaceOnUse">
<stop stop-color="#EB681F"/>
<stop offset="1" stop-color="#FF9357"/>
</linearGradient>
<linearGradient id="paint52_linear" x1="1288.98" y1="155.381" x2="1288.98" y2="162.161" gradientUnits="userSpaceOnUse">
<stop stop-color="#EB681F"/>
<stop offset="1" stop-color="#FF9357"/>
</linearGradient>
<linearGradient id="paint53_linear" x1="280.98" y1="167.33" x2="280.98" y2="174.11" gradientUnits="userSpaceOnUse">
<stop stop-color="#EB681F"/>
<stop offset="1" stop-color="#FF9357"/>
</linearGradient>
<linearGradient id="paint54_linear" x1="280.98" y1="131.471" x2="280.98" y2="138.251" gradientUnits="userSpaceOnUse">
<stop stop-color="#EB681F"/>
<stop offset="1" stop-color="#FF9357"/>
</linearGradient>
<linearGradient id="paint55_linear" x1="280.98" y1="119.52" x2="280.98" y2="126.3" gradientUnits="userSpaceOnUse">
<stop stop-color="#EB681F"/>
<stop offset="1" stop-color="#FF9357"/>
</linearGradient>
<linearGradient id="paint56_linear" x1="280.98" y1="143.42" x2="280.98" y2="150.2" gradientUnits="userSpaceOnUse">
<stop stop-color="#EB681F"/>
<stop offset="1" stop-color="#FF9357"/>
</linearGradient>
<linearGradient id="paint57_linear" x1="280.98" y1="107.57" x2="280.98" y2="114.35" gradientUnits="userSpaceOnUse">
<stop stop-color="#EB681F"/>
<stop offset="1" stop-color="#FF9357"/>
</linearGradient>
<linearGradient id="paint58_linear" x1="280.98" y1="155.381" x2="280.98" y2="162.161" gradientUnits="userSpaceOnUse">
<stop stop-color="#EB681F"/>
<stop offset="1" stop-color="#FF9357"/>
</linearGradient>
<linearGradient id="paint59_linear" x1="472.98" y1="83.6602" x2="472.98" y2="90.4402" gradientUnits="userSpaceOnUse">
<stop stop-color="#EB681F"/>
<stop offset="1" stop-color="#FF9357"/>
</linearGradient>
<linearGradient id="paint60_linear" x1="760.98" y1="107.57" x2="760.98" y2="114.35" gradientUnits="userSpaceOnUse">
<stop stop-color="#EB681F"/>
<stop offset="1" stop-color="#FF9357"/>
</linearGradient>
<linearGradient id="paint61_linear" x1="1336.98" y1="167.33" x2="1336.98" y2="174.11" gradientUnits="userSpaceOnUse">
<stop stop-color="#EB681F"/>
<stop offset="1" stop-color="#FF9357"/>
</linearGradient>
<linearGradient id="paint62_linear" x1="1336.98" y1="155.381" x2="1336.98" y2="162.161" gradientUnits="userSpaceOnUse">
<stop stop-color="#EB681F"/>
<stop offset="1" stop-color="#FF9357"/>
</linearGradient>
</defs>
</svg>
