<svg width="1916" height="294" viewBox="0 0 1916 294" fill="none" xmlns="http://www.w3.org/2000/svg">
<g opacity="0.5">
<path d="M1483.96 274.41H1440V281.19H1483.96V274.41Z" fill="#C4C4C4"/>
<path d="M1483.96 274.41H1440V281.19H1483.96V274.41Z" fill="#323232"/>
<path d="M1483.96 286.36H1440V293.14H1483.96V286.36Z" fill="#C4C4C4"/>
<path d="M1483.96 286.36H1440V293.14H1483.96V286.36Z" fill="#323232"/>
<path d="M1483.96 262.461H1440V269.241H1483.96V262.461Z" fill="#C4C4C4"/>
<path d="M1483.96 262.461H1440V269.241H1483.96V262.461Z" fill="#323232"/>
<path d="M1483.96 202.7H1440V209.48H1483.96V202.7Z" fill="#323232"/>
<path d="M1483.96 214.65H1440V221.43H1483.96V214.65Z" fill="#828282"/>
<path d="M1483.96 214.65H1440V221.43H1483.96V214.65Z" fill="#323232"/>
<path d="M1483.96 250.51H1440V257.29H1483.96V250.51Z" fill="#C4C4C4"/>
<path d="M1483.96 250.51H1440V257.29H1483.96V250.51Z" fill="#323232"/>
<path d="M1483.96 238.561H1440V245.341H1483.96V238.561Z" fill="#C4C4C4"/>
<path d="M1483.96 238.561H1440V245.341H1483.96V238.561Z" fill="#323232"/>
<path d="M1483.96 190.75H1440V197.53H1483.96V190.75Z" fill="url(#paint0_linear)" fill-opacity="0.5"/>
<path d="M1483.96 226.6H1440V233.38H1483.96V226.6Z" fill="#323232"/>
</g>
<g opacity="0.5">
<path d="M1339.96 274.5H1296V281.28H1339.96V274.5Z" fill="#C4C4C4"/>
<path d="M1339.96 274.5H1296V281.28H1339.96V274.5Z" fill="#323232"/>
<path d="M1339.96 286.45H1296V293.23H1339.96V286.45Z" fill="#C4C4C4"/>
<path d="M1339.96 286.45H1296V293.23H1339.96V286.45Z" fill="#323232"/>
<path d="M1339.96 262.551H1296V269.331H1339.96V262.551Z" fill="#C4C4C4"/>
<path d="M1339.96 262.551H1296V269.331H1339.96V262.551Z" fill="#323232"/>
<path d="M1339.96 262.551H1296V269.331H1339.96V262.551Z" fill="url(#paint1_linear)" fill-opacity="0.5"/>
<path d="M1339.96 202.79H1296V209.57H1339.96V202.79Z" fill="#323232"/>
<path d="M1339.96 214.74H1296V221.52H1339.96V214.74Z" fill="#828282"/>
<path d="M1339.96 214.74H1296V221.52H1339.96V214.74Z" fill="#323232"/>
<path d="M1339.96 250.6H1296V257.38H1339.96V250.6Z" fill="#C4C4C4"/>
<path d="M1339.96 250.6H1296V257.38H1339.96V250.6Z" fill="#323232"/>
<path d="M1339.96 250.6H1296V257.38H1339.96V250.6Z" fill="url(#paint2_linear)" fill-opacity="0.5"/>
<path d="M1339.96 238.65H1296V245.43H1339.96V238.65Z" fill="#C4C4C4"/>
<path d="M1339.96 238.65H1296V245.43H1339.96V238.65Z" fill="#323232"/>
<path d="M1339.96 190.84H1296V197.62H1339.96V190.84Z" fill="#EB1F1F"/>
<path d="M1339.96 190.84H1296V197.62H1339.96V190.84Z" fill="url(#paint3_linear)" fill-opacity="0.5"/>
<path d="M1339.96 226.689H1296V233.469H1339.96V226.689Z" fill="#323232"/>
</g>
<g opacity="0.5">
<path d="M1387.96 215.91H1344V220.65H1387.96V215.91Z" fill="url(#paint4_linear)" fill-opacity="0.5"/>
<path d="M1387.96 262.7H1344V269.48H1387.96V262.7Z" fill="#323232"/>
<path d="M1387.96 203H1344V209.78H1387.96V203Z" fill="#323232"/>
<path d="M1435.96 203H1392V209.78H1435.96V203Z" fill="#E95515" fill-opacity="0.5"/>
<path d="M1387.96 226H1344V232.78H1387.96V226Z" fill="#323232"/>
<path d="M1435.96 191H1392V197.78H1435.96V191Z" fill="#323232"/>
<path d="M1387.96 274.65H1344V281.43H1387.96V274.65Z" fill="#828282"/>
<path d="M1387.96 274.65H1344V281.43H1387.96V274.65Z" fill="#323232"/>
<path d="M1387.96 238.79H1344V245.57H1387.96V238.79Z" fill="url(#paint5_linear)" fill-opacity="0.5"/>
<path d="M1387.96 250.75H1344V257.53H1387.96V250.75Z" fill="#363636"/>
<path d="M1387.96 286.6H1344V293.38H1387.96V286.6Z" fill="#323232"/>
</g>
<g opacity="0.5">
<path d="M1579.96 227.86H1536V232.6H1579.96V227.86Z" fill="#323232"/>
<path d="M1579.96 203H1536V207.74H1579.96V203Z" fill="#323232"/>
<path d="M1579.96 215.91H1536V220.65H1579.96V215.91Z" fill="url(#paint6_linear)" fill-opacity="0.5"/>
<path d="M1579.96 262.7H1536V269.48H1579.96V262.7Z" fill="#323232"/>
<path d="M1579.96 274.65H1536V281.43H1579.96V274.65Z" fill="#828282"/>
<path d="M1579.96 274.65H1536V281.43H1579.96V274.65Z" fill="#323232"/>
<path d="M1579.96 238.79H1536V245.57H1579.96V238.79Z" fill="url(#paint7_linear)" fill-opacity="0.5"/>
<path d="M1579.96 250.75H1536V257.53H1579.96V250.75Z" fill="#272727"/>
<path d="M1579.96 286.6H1536V293.38H1579.96V286.6Z" fill="#323232"/>
<path d="M1579.96 228.881H1536V233.621H1579.96V228.881Z" fill="#F88D5F"/>
<path d="M1579.96 228.881H1536V233.621H1579.96V228.881Z" fill="#323232"/>
<path d="M1579.96 204.021H1536V208.761H1579.96V204.021Z" fill="#F88D5F"/>
<path d="M1579.96 204.021H1536V208.761H1579.96V204.021Z" fill="#323232"/>
</g>
<g opacity="0.5">
<path d="M1627.96 262.7H1584V269.48H1627.96V262.7Z" fill="url(#paint8_linear)" fill-opacity="0.5"/>
<path d="M1627.96 274.65H1584V281.43H1627.96V274.65Z" fill="#828282"/>
<path d="M1627.96 274.65H1584V281.43H1627.96V274.65Z" fill="#323232"/>
<path d="M1627.96 250.75H1584V257.53H1627.96V250.75Z" fill="url(#paint9_linear)" fill-opacity="0.5"/>
<path d="M1627.96 286.6H1584V293.38H1627.96V286.6Z" fill="#323232"/>
</g>
<g opacity="0.5">
<path d="M1675.96 227.86H1632V232.6H1675.96V227.86Z" fill="#323232"/>
<path d="M1675.96 262.7H1632V269.48H1675.96V262.7Z" fill="#323232"/>
<path d="M1675.96 274.65H1632V281.43H1675.96V274.65Z" fill="#828282"/>
<path d="M1675.96 274.65H1632V281.43H1675.96V274.65Z" fill="#323232"/>
<path d="M1675.96 238.79H1632V245.57H1675.96V238.79Z" fill="#272727"/>
<path d="M1675.96 250.75H1632V257.53H1675.96V250.75Z" fill="url(#paint10_linear)" fill-opacity="0.5"/>
<path d="M1675.96 286.6H1632V293.38H1675.96V286.6Z" fill="#323232"/>
<path d="M1675.96 228.881H1632V233.621H1675.96V228.881Z" fill="#F88D5F"/>
<path d="M1675.96 228.881H1632V233.621H1675.96V228.881Z" fill="#323232"/>
</g>
<g opacity="0.5">
<path d="M1723.96 262.7H1680V269.48H1723.96V262.7Z" fill="#323232"/>
<path d="M1723.96 274.65H1680V281.43H1723.96V274.65Z" fill="#828282"/>
<path d="M1723.96 274.65H1680V281.43H1723.96V274.65Z" fill="#323232"/>
<path d="M1723.96 286.6H1680V293.38H1723.96V286.6Z" fill="#323232"/>
</g>
<g opacity="0.5">
<path d="M1771.96 262.7H1728V269.48H1771.96V262.7Z" fill="#323232"/>
<path d="M1771.96 274.65H1728V281.43H1771.96V274.65Z" fill="url(#paint11_linear)" fill-opacity="0.5"/>
<path d="M1771.96 250.75H1728V257.53H1771.96V250.75Z" fill="#272727"/>
<path d="M1771.96 286.6H1728V293.38H1771.96V286.6Z" fill="#323232"/>
</g>
<g opacity="0.5">
<path d="M1819.96 262.7H1776V269.48H1819.96V262.7Z" fill="url(#paint12_linear)" fill-opacity="0.5"/>
<path d="M1819.96 274.65H1776V281.43H1819.96V274.65Z" fill="#272727"/>
<path d="M1819.96 286.6H1776V293.38H1819.96V286.6Z" fill="#323232"/>
</g>
<g opacity="0.5">
<path d="M1867.96 274.65H1824V281.43H1867.96V274.65Z" fill="url(#paint13_linear)" fill-opacity="0.5"/>
<path d="M1867.96 286.6H1824V293.38H1867.96V286.6Z" fill="#323232"/>
</g>
<g opacity="0.5">
<path d="M1915.96 286.6H1872V293.38H1915.96V286.6Z" fill="#323232"/>
</g>
<g opacity="0.5">
<path d="M1531.96 227.86H1488V232.6H1531.96V227.86Z" fill="#323232"/>
<path d="M1531.96 262.7H1488V269.48H1531.96V262.7Z" fill="#323232"/>
<path d="M1531.96 274.65H1488V281.43H1531.96V274.65Z" fill="#828282"/>
<path d="M1531.96 274.65H1488V281.43H1531.96V274.65Z" fill="#323232"/>
<path d="M1531.96 238.79H1488V245.57H1531.96V238.79Z" fill="#EB1F1F"/>
<path d="M1531.96 250.75H1488V257.53H1531.96V250.75Z" fill="#EB1F1F"/>
<path d="M1531.96 286.6H1488V293.38H1531.96V286.6Z" fill="#323232"/>
<path d="M1531.96 228.881H1488V233.621H1531.96V228.881Z" fill="#F88D5F"/>
<path d="M1531.96 228.881H1488V233.621H1531.96V228.881Z" fill="#323232"/>
</g>
<g opacity="0.5">
<path d="M907.96 262.08H864V268.86H907.96V262.08Z" fill="#C4C4C4"/>
<path d="M907.96 262.08H864V268.86H907.96V262.08Z" fill="#323232"/>
<path d="M907.96 286H864V292.78H907.96V286Z" fill="#C4C4C4"/>
<path d="M907.96 286H864V292.78H907.96V286Z" fill="#323232"/>
<path d="M907.96 274.03H864V280.81H907.96V274.03Z" fill="#C4C4C4"/>
<path d="M907.96 274.03H864V280.81H907.96V274.03Z" fill="#323232"/>
<path d="M907.96 178.41H864V185.19H907.96V178.41Z" fill="#C4C4C4"/>
<path d="M907.96 178.41H864V185.19H907.96V178.41Z" fill="#323232"/>
<path d="M907.96 190.36H864V197.14H907.96V190.36Z" fill="#C4C4C4"/>
<path d="M907.96 190.36H864V197.14H907.96V190.36Z" fill="#323232"/>
<path d="M907.96 226.221H864V233.001H907.96V226.221Z" fill="#C4C4C4"/>
<path d="M907.96 226.221H864V233.001H907.96V226.221Z" fill="#323232"/>
<path d="M907.96 214.27H864V221.05H907.96V214.27Z" fill="#C4C4C4"/>
<path d="M907.96 214.27H864V221.05H907.96V214.27Z" fill="#323232"/>
<path d="M907.96 238.17H864V244.95H907.96V238.17Z" fill="#C4C4C4"/>
<path d="M907.96 238.17H864V244.95H907.96V238.17Z" fill="#323232"/>
<path d="M907.96 202.32H864V209.1H907.96V202.32Z" fill="#C4C4C4"/>
<path d="M907.96 202.32H864V209.1H907.96V202.32Z" fill="#323232"/>
<path d="M907.96 250.131H864V256.911H907.96V250.131Z" fill="#C4C4C4"/>
<path d="M907.96 250.131H864V256.911H907.96V250.131Z" fill="#323232"/>
<path d="M907.96 166.461H864V173.241H907.96V166.461Z" fill="#C4C4C4"/>
<path d="M907.96 166.461H864V173.241H907.96V166.461Z" fill="#323232"/>
<path d="M907.96 154.51H864V161.29H907.96V154.51Z" fill="#C4C4C4"/>
<path d="M907.96 154.51H864V161.29H907.96V154.51Z" fill="#323232"/>
<path d="M907.96 142.561H864V149.341H907.96V142.561Z" fill="#C4C4C4"/>
<path d="M907.96 142.561H864V149.341H907.96V142.561Z" fill="#323232"/>
<path d="M907.96 130.6H864V137.38H907.96V130.6Z" fill="#323232"/>
</g>
<g opacity="0.5">
<path d="M859.96 262.08H816V268.86H859.96V262.08Z" fill="#C4C4C4"/>
<path d="M859.96 262.08H816V268.86H859.96V262.08Z" fill="#323232"/>
<path d="M859.96 286H816V292.78H859.96V286Z" fill="#C4C4C4"/>
<path d="M859.96 286H816V292.78H859.96V286Z" fill="#323232"/>
<path d="M859.96 274.03H816V280.81H859.96V274.03Z" fill="#C4C4C4"/>
<path d="M859.96 274.03H816V280.81H859.96V274.03Z" fill="#323232"/>
<path d="M859.96 178.41H816V185.19H859.96V178.41Z" fill="#C4C4C4"/>
<path d="M859.96 178.41H816V185.19H859.96V178.41Z" fill="#323232"/>
<path d="M859.96 178.41H816V185.19H859.96V178.41Z" fill="url(#paint14_linear)" fill-opacity="0.5"/>
<path d="M859.96 190.36H816V197.14H859.96V190.36Z" fill="#C4C4C4"/>
<path d="M859.96 190.36H816V197.14H859.96V190.36Z" fill="#323232"/>
<path d="M859.96 226.221H816V233.001H859.96V226.221Z" fill="#C4C4C4"/>
<path d="M859.96 226.221H816V233.001H859.96V226.221Z" fill="#323232"/>
<path d="M859.96 214.27H816V221.05H859.96V214.27Z" fill="#C4C4C4"/>
<path d="M859.96 214.27H816V221.05H859.96V214.27Z" fill="#323232"/>
<path d="M859.96 238.17H816V244.95H859.96V238.17Z" fill="#C4C4C4"/>
<path d="M859.96 238.17H816V244.95H859.96V238.17Z" fill="#323232"/>
<path d="M859.96 202.32H816V209.1H859.96V202.32Z" fill="#C4C4C4"/>
<path d="M859.96 202.32H816V209.1H859.96V202.32Z" fill="#323232"/>
<path d="M859.96 250.131H816V256.911H859.96V250.131Z" fill="#C4C4C4"/>
<path d="M859.96 250.131H816V256.911H859.96V250.131Z" fill="#323232"/>
<path d="M859.96 166.461H816V173.241H859.96V166.461Z" fill="#C4C4C4"/>
<path d="M859.96 166.461H816V173.241H859.96V166.461Z" fill="#323232"/>
<path d="M859.96 166.461H816V173.241H859.96V166.461Z" fill="url(#paint15_linear)" fill-opacity="0.5"/>
<path d="M859.96 106.7H816V113.48H859.96V106.7Z" fill="#323232"/>
<path d="M859.96 118.65H816V125.43H859.96V118.65Z" fill="#828282"/>
<path d="M859.96 118.65H816V125.43H859.96V118.65Z" fill="#323232"/>
<path d="M859.96 154.51H816V161.29H859.96V154.51Z" fill="#C4C4C4"/>
<path d="M859.96 154.51H816V161.29H859.96V154.51Z" fill="#323232"/>
<path d="M859.96 142.561H816V149.341H859.96V142.561Z" fill="#C4C4C4"/>
<path d="M859.96 142.561H816V149.341H859.96V142.561Z" fill="#323232"/>
<path d="M859.96 94.75H816V101.53H859.96V94.75Z" fill="url(#paint16_linear)" fill-opacity="0.5"/>
<path d="M859.96 130.6H816V137.38H859.96V130.6Z" fill="#323232"/>
</g>
<g opacity="0.5">
<path d="M811.96 262.08H768V268.86H811.96V262.08Z" fill="#C4C4C4"/>
<path d="M811.96 262.08H768V268.86H811.96V262.08Z" fill="#323232"/>
<path d="M811.96 286H768V292.78H811.96V286Z" fill="#C4C4C4"/>
<path d="M811.96 286H768V292.78H811.96V286Z" fill="#323232"/>
<path d="M811.96 274.03H768V280.81H811.96V274.03Z" fill="#C4C4C4"/>
<path d="M811.96 274.03H768V280.81H811.96V274.03Z" fill="#323232"/>
<path d="M811.96 178.41H768V185.19H811.96V178.41Z" fill="#C4C4C4"/>
<path d="M811.96 178.41H768V185.19H811.96V178.41Z" fill="#323232"/>
<path d="M811.96 190.36H768V197.14H811.96V190.36Z" fill="#C4C4C4"/>
<path d="M811.96 190.36H768V197.14H811.96V190.36Z" fill="#323232"/>
<path d="M811.96 226.221H768V233.001H811.96V226.221Z" fill="#C4C4C4"/>
<path d="M811.96 226.221H768V233.001H811.96V226.221Z" fill="#323232"/>
<path d="M811.96 214.27H768V221.05H811.96V214.27Z" fill="#C4C4C4"/>
<path d="M811.96 214.27H768V221.05H811.96V214.27Z" fill="#323232"/>
<path d="M811.96 238.17H768V244.95H811.96V238.17Z" fill="#C4C4C4"/>
<path d="M811.96 238.17H768V244.95H811.96V238.17Z" fill="#323232"/>
<path d="M811.96 202.32H768V209.1H811.96V202.32Z" fill="#C4C4C4"/>
<path d="M811.96 202.32H768V209.1H811.96V202.32Z" fill="#323232"/>
<path d="M811.96 250.131H768V256.911H811.96V250.131Z" fill="#C4C4C4"/>
<path d="M811.96 250.131H768V256.911H811.96V250.131Z" fill="#323232"/>
<path d="M811.96 166.461H768V173.241H811.96V166.461Z" fill="#C4C4C4"/>
<path d="M811.96 166.461H768V173.241H811.96V166.461Z" fill="#323232"/>
<path d="M811.96 118.65H768V125.43H811.96V118.65Z" fill="#828282"/>
<path d="M811.96 118.65H768V125.43H811.96V118.65Z" fill="#EB1F1F"/>
<path d="M811.96 154.51H768V161.29H811.96V154.51Z" fill="#C4C4C4"/>
<path d="M811.96 154.51H768V161.29H811.96V154.51Z" fill="#323232"/>
<path d="M811.96 142.561H768V149.341H811.96V142.561Z" fill="#C4C4C4"/>
<path d="M811.96 142.561H768V149.341H811.96V142.561Z" fill="#323232"/>
<path d="M811.96 130.6H768V137.38H811.96V130.6Z" fill="#323232"/>
</g>
<g opacity="0.5">
<path d="M763.96 262.08H720V268.86H763.96V262.08Z" fill="#C4C4C4"/>
<path d="M763.96 262.08H720V268.86H763.96V262.08Z" fill="#323232"/>
<path d="M763.96 286H720V292.78H763.96V286Z" fill="#C4C4C4"/>
<path d="M763.96 286H720V292.78H763.96V286Z" fill="#323232"/>
<path d="M763.96 274.03H720V280.81H763.96V274.03Z" fill="#C4C4C4"/>
<path d="M763.96 274.03H720V280.81H763.96V274.03Z" fill="#323232"/>
<path d="M763.96 178.41H720V185.19H763.96V178.41Z" fill="#C4C4C4"/>
<path d="M763.96 178.41H720V185.19H763.96V178.41Z" fill="#EB1F1F"/>
<path d="M763.96 190.36H720V197.14H763.96V190.36Z" fill="#C4C4C4"/>
<path d="M763.96 190.36H720V197.14H763.96V190.36Z" fill="#323232"/>
<path d="M763.96 226.221H720V233.001H763.96V226.221Z" fill="#C4C4C4"/>
<path d="M763.96 226.221H720V233.001H763.96V226.221Z" fill="#323232"/>
<path d="M763.96 214.27H720V221.05H763.96V214.27Z" fill="#C4C4C4"/>
<path d="M763.96 214.27H720V221.05H763.96V214.27Z" fill="#323232"/>
<path d="M763.96 238.17H720V244.95H763.96V238.17Z" fill="#C4C4C4"/>
<path d="M763.96 238.17H720V244.95H763.96V238.17Z" fill="#323232"/>
<path d="M763.96 202.32H720V209.1H763.96V202.32Z" fill="#C4C4C4"/>
<path d="M763.96 202.32H720V209.1H763.96V202.32Z" fill="#323232"/>
<path d="M763.96 250.131H720V256.911H763.96V250.131Z" fill="#C4C4C4"/>
<path d="M763.96 250.131H720V256.911H763.96V250.131Z" fill="#323232"/>
<path d="M763.96 166.461H720V173.241H763.96V166.461Z" fill="#C4C4C4"/>
<path d="M763.96 166.461H720V173.241H763.96V166.461Z" fill="#323232"/>
<path d="M763.96 106.7H720V113.48H763.96V106.7Z" fill="#323232"/>
<path d="M763.96 118.65H720V125.43H763.96V118.65Z" fill="#828282"/>
<path d="M763.96 118.65H720V125.43H763.96V118.65Z" fill="#323232"/>
<path d="M763.96 154.51H720V161.29H763.96V154.51Z" fill="#C4C4C4"/>
<path d="M763.96 154.51H720V161.29H763.96V154.51Z" fill="#EB1F1F"/>
<path d="M763.96 142.561H720V149.341H763.96V142.561Z" fill="#C4C4C4"/>
<path d="M763.96 142.561H720V149.341H763.96V142.561Z" fill="#323232"/>
<path d="M763.96 94.75H720V101.53H763.96V94.75Z" fill="#3A3A3A"/>
<path d="M763.96 130.6H720V137.38H763.96V130.6Z" fill="#323232"/>
</g>
<g opacity="0.5">
<path d="M715.96 262.08H672V268.86H715.96V262.08Z" fill="#C4C4C4"/>
<path d="M715.96 262.08H672V268.86H715.96V262.08Z" fill="#323232"/>
<path d="M715.96 286H672V292.78H715.96V286Z" fill="#C4C4C4"/>
<path d="M715.96 286H672V292.78H715.96V286Z" fill="#323232"/>
<path d="M715.96 274.03H672V280.81H715.96V274.03Z" fill="#C4C4C4"/>
<path d="M715.96 274.03H672V280.81H715.96V274.03Z" fill="#323232"/>
<path d="M715.96 178.41H672V185.19H715.96V178.41Z" fill="#C4C4C4"/>
<path d="M715.96 178.41H672V185.19H715.96V178.41Z" fill="#323232"/>
<path d="M715.96 190.36H672V197.14H715.96V190.36Z" fill="#C4C4C4"/>
<path d="M715.96 190.36H672V197.14H715.96V190.36Z" fill="#323232"/>
<path d="M715.96 226.221H672V233.001H715.96V226.221Z" fill="#C4C4C4"/>
<path d="M715.96 226.221H672V233.001H715.96V226.221Z" fill="#323232"/>
<path d="M715.96 214.27H672V221.05H715.96V214.27Z" fill="#C4C4C4"/>
<path d="M715.96 214.27H672V221.05H715.96V214.27Z" fill="#323232"/>
<path d="M715.96 238.17H672V244.95H715.96V238.17Z" fill="#C4C4C4"/>
<path d="M715.96 238.17H672V244.95H715.96V238.17Z" fill="#323232"/>
<path d="M715.96 202.32H672V209.1H715.96V202.32Z" fill="#C4C4C4"/>
<path d="M715.96 202.32H672V209.1H715.96V202.32Z" fill="#323232"/>
<path d="M715.96 250.131H672V256.911H715.96V250.131Z" fill="#C4C4C4"/>
<path d="M715.96 250.131H672V256.911H715.96V250.131Z" fill="#323232"/>
<path d="M715.96 166.461H672V173.241H715.96V166.461Z" fill="#C4C4C4"/>
<path d="M715.96 166.461H672V173.241H715.96V166.461Z" fill="#323232"/>
<path d="M715.96 106.7H672V113.48H715.96V106.7Z" fill="#323232"/>
<path d="M715.96 118.65H672V125.43H715.96V118.65Z" fill="#828282"/>
<path d="M715.96 118.65H672V125.43H715.96V118.65Z" fill="#323232"/>
<path d="M715.96 154.51H672V161.29H715.96V154.51Z" fill="#C4C4C4"/>
<path d="M715.96 154.51H672V161.29H715.96V154.51Z" fill="#323232"/>
<path d="M715.96 142.561H672V149.341H715.96V142.561Z" fill="#C4C4C4"/>
<path d="M715.96 142.561H672V149.341H715.96V142.561Z" fill="#323232"/>
<path d="M715.96 82.79H672V89.57H715.96V82.79Z" fill="#EB1F1F"/>
<path d="M715.96 94.75H672V101.53H715.96V94.75Z" fill="#EB1F1F"/>
<path d="M715.96 130.6H672V137.38H715.96V130.6Z" fill="#323232"/>
</g>
<g opacity="0.5">
<path d="M667.96 262.08H624V268.86H667.96V262.08Z" fill="#C4C4C4"/>
<path d="M667.96 262.08H624V268.86H667.96V262.08Z" fill="#323232"/>
<path d="M667.96 286H624V292.78H667.96V286Z" fill="#C4C4C4"/>
<path d="M667.96 286H624V292.78H667.96V286Z" fill="#323232"/>
<path d="M667.96 274.03H624V280.81H667.96V274.03Z" fill="#C4C4C4"/>
<path d="M667.96 274.03H624V280.81H667.96V274.03Z" fill="#323232"/>
<path d="M667.96 178.41H624V185.19H667.96V178.41Z" fill="#C4C4C4"/>
<path d="M667.96 178.41H624V185.19H667.96V178.41Z" fill="#323232"/>
<path d="M667.96 178.41H624V185.19H667.96V178.41Z" fill="url(#paint17_linear)" fill-opacity="0.5"/>
<path d="M667.96 190.36H624V197.14H667.96V190.36Z" fill="#C4C4C4"/>
<path d="M667.96 190.36H624V197.14H667.96V190.36Z" fill="#323232"/>
<path d="M667.96 226.221H624V233.001H667.96V226.221Z" fill="#C4C4C4"/>
<path d="M667.96 226.221H624V233.001H667.96V226.221Z" fill="#323232"/>
<path d="M667.96 214.27H624V221.05H667.96V214.27Z" fill="#C4C4C4"/>
<path d="M667.96 214.27H624V221.05H667.96V214.27Z" fill="#323232"/>
<path d="M667.96 238.17H624V244.95H667.96V238.17Z" fill="#C4C4C4"/>
<path d="M667.96 238.17H624V244.95H667.96V238.17Z" fill="#323232"/>
<path d="M667.96 202.32H624V209.1H667.96V202.32Z" fill="#C4C4C4"/>
<path d="M667.96 202.32H624V209.1H667.96V202.32Z" fill="#323232"/>
<path d="M667.96 250.131H624V256.911H667.96V250.131Z" fill="#C4C4C4"/>
<path d="M667.96 250.131H624V256.911H667.96V250.131Z" fill="#323232"/>
<path d="M667.96 166.461H624V173.241H667.96V166.461Z" fill="#C4C4C4"/>
<path d="M667.96 166.461H624V173.241H667.96V166.461Z" fill="#323232"/>
<path d="M667.96 118.65H624V125.43H667.96V118.65Z" fill="#828282"/>
<path d="M667.96 118.65H624V125.43H667.96V118.65Z" fill="#323232"/>
<path d="M667.96 154.51H624V161.29H667.96V154.51Z" fill="#C4C4C4"/>
<path d="M667.96 154.51H624V161.29H667.96V154.51Z" fill="#323232"/>
<path d="M667.96 142.561H624V149.341H667.96V142.561Z" fill="#C4C4C4"/>
<path d="M667.96 142.561H624V149.341H667.96V142.561Z" fill="#323232"/>
<path d="M667.96 142.561H624V149.341H667.96V142.561Z" fill="url(#paint18_linear)" fill-opacity="0.5"/>
<path d="M667.96 130.6H624V137.38H667.96V130.6Z" fill="#323232"/>
</g>
<g opacity="0.5">
<path d="M619.96 262.08H576V268.86H619.96V262.08Z" fill="#C4C4C4"/>
<path d="M619.96 262.08H576V268.86H619.96V262.08Z" fill="#323232"/>
<path d="M619.96 286H576V292.78H619.96V286Z" fill="#C4C4C4"/>
<path d="M619.96 286H576V292.78H619.96V286Z" fill="#323232"/>
<path d="M619.96 274.03H576V280.81H619.96V274.03Z" fill="#C4C4C4"/>
<path d="M619.96 274.03H576V280.81H619.96V274.03Z" fill="#323232"/>
<path d="M619.96 178.41H576V185.19H619.96V178.41Z" fill="#C4C4C4"/>
<path d="M619.96 178.41H576V185.19H619.96V178.41Z" fill="#323232"/>
<path d="M619.96 190.36H576V197.14H619.96V190.36Z" fill="#C4C4C4"/>
<path d="M619.96 190.36H576V197.14H619.96V190.36Z" fill="#323232"/>
<path d="M619.96 226.221H576V233.001H619.96V226.221Z" fill="#C4C4C4"/>
<path d="M619.96 226.221H576V233.001H619.96V226.221Z" fill="#323232"/>
<path d="M619.96 214.27H576V221.05H619.96V214.27Z" fill="#C4C4C4"/>
<path d="M619.96 214.27H576V221.05H619.96V214.27Z" fill="#323232"/>
<path d="M619.96 238.17H576V244.95H619.96V238.17Z" fill="#C4C4C4"/>
<path d="M619.96 238.17H576V244.95H619.96V238.17Z" fill="#323232"/>
<path d="M619.96 202.32H576V209.1H619.96V202.32Z" fill="#C4C4C4"/>
<path d="M619.96 202.32H576V209.1H619.96V202.32Z" fill="#323232"/>
<path d="M619.96 250.131H576V256.911H619.96V250.131Z" fill="#C4C4C4"/>
<path d="M619.96 250.131H576V256.911H619.96V250.131Z" fill="#323232"/>
<path d="M619.96 166.461H576V173.241H619.96V166.461Z" fill="#C4C4C4"/>
<path d="M619.96 166.461H576V173.241H619.96V166.461Z" fill="#323232"/>
<path d="M619.96 166.461H576V173.241H619.96V166.461Z" fill="url(#paint19_linear)" fill-opacity="0.5"/>
<path d="M619.96 106.7H576V113.48H619.96V106.7Z" fill="#323232"/>
<path d="M619.96 80H576V86.78H619.96V80Z" fill="#323232"/>
<path d="M619.96 118.65H576V125.43H619.96V118.65Z" fill="#828282"/>
<path d="M619.96 118.65H576V125.43H619.96V118.65Z" fill="#323232"/>
<path d="M619.96 154.51H576V161.29H619.96V154.51Z" fill="#C4C4C4"/>
<path d="M619.96 154.51H576V161.29H619.96V154.51Z" fill="#323232"/>
<path d="M619.96 142.561H576V149.341H619.96V142.561Z" fill="#C4C4C4"/>
<path d="M619.96 142.561H576V149.341H619.96V142.561Z" fill="#323232"/>
<path d="M619.96 94.75H576V101.53H619.96V94.75Z" fill="url(#paint20_linear)" fill-opacity="0.5"/>
<path d="M619.96 130.6H576V137.38H619.96V130.6Z" fill="#323232"/>
</g>
<g opacity="0.5">
<path d="M571.96 262.08H528V268.86H571.96V262.08Z" fill="#C4C4C4"/>
<path d="M571.96 262.08H528V268.86H571.96V262.08Z" fill="#323232"/>
<path d="M571.96 286H528V292.78H571.96V286Z" fill="#C4C4C4"/>
<path d="M571.96 286H528V292.78H571.96V286Z" fill="#323232"/>
<path d="M571.96 274.03H528V280.81H571.96V274.03Z" fill="#C4C4C4"/>
<path d="M571.96 274.03H528V280.81H571.96V274.03Z" fill="#323232"/>
<path d="M571.96 178.41H528V185.19H571.96V178.41Z" fill="#C4C4C4"/>
<path d="M571.96 178.41H528V185.19H571.96V178.41Z" fill="#323232"/>
<path d="M571.96 190.36H528V197.14H571.96V190.36Z" fill="#C4C4C4"/>
<path d="M571.96 190.36H528V197.14H571.96V190.36Z" fill="#323232"/>
<path d="M571.96 226.221H528V233.001H571.96V226.221Z" fill="#C4C4C4"/>
<path d="M571.96 226.221H528V233.001H571.96V226.221Z" fill="#323232"/>
<path d="M571.96 214.27H528V221.05H571.96V214.27Z" fill="#C4C4C4"/>
<path d="M571.96 214.27H528V221.05H571.96V214.27Z" fill="#323232"/>
<path d="M571.96 238.17H528V244.95H571.96V238.17Z" fill="#C4C4C4"/>
<path d="M571.96 238.17H528V244.95H571.96V238.17Z" fill="#323232"/>
<path d="M571.96 202.32H528V209.1H571.96V202.32Z" fill="#C4C4C4"/>
<path d="M571.96 202.32H528V209.1H571.96V202.32Z" fill="#323232"/>
<path d="M571.96 250.131H528V256.911H571.96V250.131Z" fill="#C4C4C4"/>
<path d="M571.96 250.131H528V256.911H571.96V250.131Z" fill="#323232"/>
<path d="M571.96 166.461H528V173.241H571.96V166.461Z" fill="#C4C4C4"/>
<path d="M571.96 166.461H528V173.241H571.96V166.461Z" fill="#323232"/>
<path d="M571.96 106.7H528V113.48H571.96V106.7Z" fill="#EB1F1F"/>
<path d="M571.96 118.65H528V125.43H571.96V118.65Z" fill="#828282"/>
<path d="M571.96 118.65H528V125.43H571.96V118.65Z" fill="#323232"/>
<path d="M571.96 154.51H528V161.29H571.96V154.51Z" fill="#C4C4C4"/>
<path d="M571.96 154.51H528V161.29H571.96V154.51Z" fill="#323232"/>
<path d="M571.96 142.561H528V149.341H571.96V142.561Z" fill="#C4C4C4"/>
<path d="M571.96 142.561H528V149.341H571.96V142.561Z" fill="#323232"/>
<path d="M571.96 94.75H528V101.53H571.96V94.75Z" fill="#EB1F1F"/>
<path d="M571.96 130.6H528V137.38H571.96V130.6Z" fill="#EB1F1F"/>
</g>
<g opacity="0.5">
<path d="M523.96 262.08H480V268.86H523.96V262.08Z" fill="#C4C4C4"/>
<path d="M523.96 262.08H480V268.86H523.96V262.08Z" fill="#323232"/>
<path d="M523.96 286H480V292.78H523.96V286Z" fill="#C4C4C4"/>
<path d="M523.96 286H480V292.78H523.96V286Z" fill="#323232"/>
<path d="M523.96 274.03H480V280.81H523.96V274.03Z" fill="#C4C4C4"/>
<path d="M523.96 274.03H480V280.81H523.96V274.03Z" fill="#323232"/>
<path d="M523.96 178.41H480V185.19H523.96V178.41Z" fill="#C4C4C4"/>
<path d="M523.96 178.41H480V185.19H523.96V178.41Z" fill="#323232"/>
<path d="M523.96 190.36H480V197.14H523.96V190.36Z" fill="#C4C4C4"/>
<path d="M523.96 190.36H480V197.14H523.96V190.36Z" fill="#323232"/>
<path d="M523.96 226.221H480V233.001H523.96V226.221Z" fill="#C4C4C4"/>
<path d="M523.96 226.221H480V233.001H523.96V226.221Z" fill="#323232"/>
<path d="M523.96 214.27H480V221.05H523.96V214.27Z" fill="#C4C4C4"/>
<path d="M523.96 214.27H480V221.05H523.96V214.27Z" fill="#323232"/>
<path d="M523.96 238.17H480V244.95H523.96V238.17Z" fill="#C4C4C4"/>
<path d="M523.96 238.17H480V244.95H523.96V238.17Z" fill="#323232"/>
<path d="M523.96 202.32H480V209.1H523.96V202.32Z" fill="#C4C4C4"/>
<path d="M523.96 202.32H480V209.1H523.96V202.32Z" fill="#323232"/>
<path d="M523.96 250.131H480V256.911H523.96V250.131Z" fill="#C4C4C4"/>
<path d="M523.96 250.131H480V256.911H523.96V250.131Z" fill="#323232"/>
<path d="M523.96 166.461H480V173.241H523.96V166.461Z" fill="#C4C4C4"/>
<path d="M523.96 166.461H480V173.241H523.96V166.461Z" fill="#323232"/>
<path d="M523.96 154.51H480V161.29H523.96V154.51Z" fill="#C4C4C4"/>
<path d="M523.96 154.51H480V161.29H523.96V154.51Z" fill="#323232"/>
<path d="M523.96 142.561H480V149.341H523.96V142.561Z" fill="#C4C4C4"/>
<path d="M523.96 142.561H480V149.341H523.96V142.561Z" fill="#323232"/>
<path d="M523.96 130.6H480V137.38H523.96V130.6Z" fill="#323232"/>
</g>
<g opacity="0.5">
<path d="M475.96 262.08H432V268.86H475.96V262.08Z" fill="#C4C4C4"/>
<path d="M475.96 262.08H432V268.86H475.96V262.08Z" fill="#323232"/>
<path d="M475.96 286H432V292.78H475.96V286Z" fill="#C4C4C4"/>
<path d="M475.96 286H432V292.78H475.96V286Z" fill="#323232"/>
<path d="M475.96 274.03H432V280.81H475.96V274.03Z" fill="#C4C4C4"/>
<path d="M475.96 274.03H432V280.81H475.96V274.03Z" fill="#323232"/>
<path d="M475.96 178.41H432V185.19H475.96V178.41Z" fill="#C4C4C4"/>
<path d="M475.96 178.41H432V185.19H475.96V178.41Z" fill="#323232"/>
<path d="M475.96 190.36H432V197.14H475.96V190.36Z" fill="#C4C4C4"/>
<path d="M475.96 190.36H432V197.14H475.96V190.36Z" fill="#323232"/>
<path d="M475.96 226.221H432V233.001H475.96V226.221Z" fill="#C4C4C4"/>
<path d="M475.96 226.221H432V233.001H475.96V226.221Z" fill="#323232"/>
<path d="M475.96 214.27H432V221.05H475.96V214.27Z" fill="#C4C4C4"/>
<path d="M475.96 214.27H432V221.05H475.96V214.27Z" fill="#323232"/>
<path d="M475.96 238.17H432V244.95H475.96V238.17Z" fill="#C4C4C4"/>
<path d="M475.96 238.17H432V244.95H475.96V238.17Z" fill="#323232"/>
<path d="M475.96 202.32H432V209.1H475.96V202.32Z" fill="#C4C4C4"/>
<path d="M475.96 202.32H432V209.1H475.96V202.32Z" fill="#323232"/>
<path d="M475.96 250.131H432V256.911H475.96V250.131Z" fill="#C4C4C4"/>
<path d="M475.96 250.131H432V256.911H475.96V250.131Z" fill="#323232"/>
<path d="M475.96 166.461H432V173.241H475.96V166.461Z" fill="#C4C4C4"/>
<path d="M475.96 166.461H432V173.241H475.96V166.461Z" fill="#323232"/>
<path d="M475.96 106.7H432V113.48H475.96V106.7Z" fill="#323232"/>
<path d="M475.96 106.7H432V113.48H475.96V106.7Z" fill="url(#paint21_linear)" fill-opacity="0.5"/>
<path d="M475.96 118.65H432V125.43H475.96V118.65Z" fill="#828282"/>
<path d="M475.96 118.65H432V125.43H475.96V118.65Z" fill="#323232"/>
<path d="M475.96 154.51H432V161.29H475.96V154.51Z" fill="#C4C4C4"/>
<path d="M475.96 154.51H432V161.29H475.96V154.51Z" fill="#323232"/>
<path d="M475.96 154.51H432V161.29H475.96V154.51Z" fill="url(#paint22_linear)" fill-opacity="0.5"/>
<path d="M475.96 142.561H432V149.341H475.96V142.561Z" fill="#C4C4C4"/>
<path d="M475.96 142.561H432V149.341H475.96V142.561Z" fill="#323232"/>
<path d="M475.96 142.561H432V149.341H475.96V142.561Z" fill="url(#paint23_linear)" fill-opacity="0.5"/>
<path d="M475.96 130.6H432V137.38H475.96V130.6Z" fill="#323232"/>
</g>
<g opacity="0.5">
<path d="M427.96 262.08H384V268.86H427.96V262.08Z" fill="#C4C4C4"/>
<path d="M427.96 262.08H384V268.86H427.96V262.08Z" fill="#323232"/>
<path d="M427.96 286H384V292.78H427.96V286Z" fill="#C4C4C4"/>
<path d="M427.96 286H384V292.78H427.96V286Z" fill="#323232"/>
<path d="M427.96 274.03H384V280.81H427.96V274.03Z" fill="#C4C4C4"/>
<path d="M427.96 274.03H384V280.81H427.96V274.03Z" fill="#323232"/>
<path d="M427.96 178.41H384V185.19H427.96V178.41Z" fill="#C4C4C4"/>
<path d="M427.96 178.41H384V185.19H427.96V178.41Z" fill="#323232"/>
<path d="M427.96 190.36H384V197.14H427.96V190.36Z" fill="#C4C4C4"/>
<path d="M427.96 190.36H384V197.14H427.96V190.36Z" fill="#323232"/>
<path d="M427.96 226.221H384V233.001H427.96V226.221Z" fill="#C4C4C4"/>
<path d="M427.96 226.221H384V233.001H427.96V226.221Z" fill="#323232"/>
<path d="M427.96 214.27H384V221.05H427.96V214.27Z" fill="#C4C4C4"/>
<path d="M427.96 214.27H384V221.05H427.96V214.27Z" fill="#323232"/>
<path d="M427.96 238.17H384V244.95H427.96V238.17Z" fill="#C4C4C4"/>
<path d="M427.96 238.17H384V244.95H427.96V238.17Z" fill="#323232"/>
<path d="M427.96 202.32H384V209.1H427.96V202.32Z" fill="#C4C4C4"/>
<path d="M427.96 202.32H384V209.1H427.96V202.32Z" fill="#323232"/>
<path d="M427.96 250.131H384V256.911H427.96V250.131Z" fill="#C4C4C4"/>
<path d="M427.96 250.131H384V256.911H427.96V250.131Z" fill="#323232"/>
<path d="M427.96 166.461H384V173.241H427.96V166.461Z" fill="#C4C4C4"/>
<path d="M427.96 166.461H384V173.241H427.96V166.461Z" fill="#323232"/>
<path d="M427.96 106.7H384V113.48H427.96V106.7Z" fill="#323232"/>
<path d="M427.96 118.65H384V125.43H427.96V118.65Z" fill="#828282"/>
<path d="M427.96 118.65H384V125.43H427.96V118.65Z" fill="#323232"/>
<path d="M427.96 154.51H384V161.29H427.96V154.51Z" fill="#C4C4C4"/>
<path d="M427.96 154.51H384V161.29H427.96V154.51Z" fill="#323232"/>
<path d="M427.96 142.561H384V149.341H427.96V142.561Z" fill="#C4C4C4"/>
<path d="M427.96 142.561H384V149.341H427.96V142.561Z" fill="#323232"/>
<path d="M427.96 94.75H384V101.53H427.96V94.75Z" fill="#404040"/>
<path d="M427.96 130.6H384V137.38H427.96V130.6Z" fill="#323232"/>
</g>
<g opacity="0.5">
<path d="M379.96 71.8604H336V76.6003H379.96V71.8604Z" fill="#323232"/>
<path d="M379.96 262.08H336V268.86H379.96V262.08Z" fill="#C4C4C4"/>
<path d="M379.96 262.08H336V268.86H379.96V262.08Z" fill="#323232"/>
<path d="M379.96 286H336V292.78H379.96V286Z" fill="#C4C4C4"/>
<path d="M379.96 286H336V292.78H379.96V286Z" fill="#323232"/>
<path d="M379.96 274.03H336V280.81H379.96V274.03Z" fill="#C4C4C4"/>
<path d="M379.96 274.03H336V280.81H379.96V274.03Z" fill="#323232"/>
<path d="M379.96 178.41H336V185.19H379.96V178.41Z" fill="#C4C4C4"/>
<path d="M379.96 178.41H336V185.19H379.96V178.41Z" fill="#323232"/>
<path d="M379.96 190.36H336V197.14H379.96V190.36Z" fill="#C4C4C4"/>
<path d="M379.96 190.36H336V197.14H379.96V190.36Z" fill="#323232"/>
<path d="M379.96 226.221H336V233.001H379.96V226.221Z" fill="#C4C4C4"/>
<path d="M379.96 226.221H336V233.001H379.96V226.221Z" fill="#323232"/>
<path d="M379.96 214.27H336V221.05H379.96V214.27Z" fill="#C4C4C4"/>
<path d="M379.96 214.27H336V221.05H379.96V214.27Z" fill="#323232"/>
<path d="M379.96 238.17H336V244.95H379.96V238.17Z" fill="#C4C4C4"/>
<path d="M379.96 238.17H336V244.95H379.96V238.17Z" fill="#323232"/>
<path d="M379.96 202.32H336V209.1H379.96V202.32Z" fill="#C4C4C4"/>
<path d="M379.96 202.32H336V209.1H379.96V202.32Z" fill="#323232"/>
<path d="M379.96 250.131H336V256.911H379.96V250.131Z" fill="#C4C4C4"/>
<path d="M379.96 250.131H336V256.911H379.96V250.131Z" fill="#323232"/>
<path d="M379.96 166.461H336V173.241H379.96V166.461Z" fill="#C4C4C4"/>
<path d="M379.96 166.461H336V173.241H379.96V166.461Z" fill="#323232"/>
<path d="M379.96 106.7H336V113.48H379.96V106.7Z" fill="#323232"/>
<path d="M379.96 118.65H336V125.43H379.96V118.65Z" fill="#828282"/>
<path d="M379.96 118.65H336V125.43H379.96V118.65Z" fill="#323232"/>
<path d="M379.96 154.51H336V161.29H379.96V154.51Z" fill="#C4C4C4"/>
<path d="M379.96 154.51H336V161.29H379.96V154.51Z" fill="#323232"/>
<path d="M379.96 142.561H336V149.341H379.96V142.561Z" fill="#C4C4C4"/>
<path d="M379.96 142.561H336V149.341H379.96V142.561Z" fill="#323232"/>
<path d="M379.96 82.79H336V89.57H379.96V82.79Z" fill="url(#paint24_linear)" fill-opacity="0.5"/>
<path d="M379.96 94.75H336V101.53H379.96V94.75Z" fill="url(#paint25_linear)" fill-opacity="0.5"/>
<path d="M379.96 130.6H336V137.38H379.96V130.6Z" fill="#323232"/>
<path d="M379.96 130.6H336V137.38H379.96V130.6Z" fill="url(#paint26_linear)" fill-opacity="0.5"/>
</g>
<g opacity="0.5">
<path d="M331.96 71.8604H288V76.6003H331.96V71.8604Z" fill="#323232"/>
<path d="M331.96 59.9102H288V64.6502H331.96V59.9102Z" fill="#3F3F3F"/>
<path d="M331.96 262.08H288V268.86H331.96V262.08Z" fill="#C4C4C4"/>
<path d="M331.96 262.08H288V268.86H331.96V262.08Z" fill="#323232"/>
<path d="M331.96 286H288V292.78H331.96V286Z" fill="#C4C4C4"/>
<path d="M331.96 286H288V292.78H331.96V286Z" fill="#323232"/>
<path d="M331.96 274.03H288V280.81H331.96V274.03Z" fill="#C4C4C4"/>
<path d="M331.96 274.03H288V280.81H331.96V274.03Z" fill="#323232"/>
<path d="M331.96 178.41H288V185.19H331.96V178.41Z" fill="#C4C4C4"/>
<path d="M331.96 178.41H288V185.19H331.96V178.41Z" fill="#323232"/>
<path d="M331.96 190.36H288V197.14H331.96V190.36Z" fill="#C4C4C4"/>
<path d="M331.96 190.36H288V197.14H331.96V190.36Z" fill="#323232"/>
<path d="M331.96 226.221H288V233.001H331.96V226.221Z" fill="#C4C4C4"/>
<path d="M331.96 226.221H288V233.001H331.96V226.221Z" fill="#323232"/>
<path d="M331.96 214.27H288V221.05H331.96V214.27Z" fill="#C4C4C4"/>
<path d="M331.96 214.27H288V221.05H331.96V214.27Z" fill="#323232"/>
<path d="M331.96 238.17H288V244.95H331.96V238.17Z" fill="#C4C4C4"/>
<path d="M331.96 238.17H288V244.95H331.96V238.17Z" fill="#323232"/>
<path d="M331.96 202.32H288V209.1H331.96V202.32Z" fill="#C4C4C4"/>
<path d="M331.96 202.32H288V209.1H331.96V202.32Z" fill="#323232"/>
<path d="M331.96 250.131H288V256.911H331.96V250.131Z" fill="#C4C4C4"/>
<path d="M331.96 250.131H288V256.911H331.96V250.131Z" fill="#323232"/>
<path d="M331.96 166.461H288V173.241H331.96V166.461Z" fill="#C4C4C4"/>
<path d="M331.96 166.461H288V173.241H331.96V166.461Z" fill="#EB1F1F"/>
<path d="M331.96 106.7H288V113.48H331.96V106.7Z" fill="#323232"/>
<path d="M331.96 118.65H288V125.43H331.96V118.65Z" fill="#828282"/>
<path d="M331.96 118.65H288V125.43H331.96V118.65Z" fill="#323232"/>
<path d="M331.96 154.51H288V161.29H331.96V154.51Z" fill="#C4C4C4"/>
<path d="M331.96 154.51H288V161.29H331.96V154.51Z" fill="#EB1F1F"/>
<path d="M331.96 142.561H288V149.341H331.96V142.561Z" fill="#C4C4C4"/>
<path d="M331.96 142.561H288V149.341H331.96V142.561Z" fill="#323232"/>
<path d="M331.96 82.79H288V89.57H331.96V82.79Z" fill="#EB1F1F"/>
<path d="M331.96 94.75H288V101.53H331.96V94.75Z" fill="#363636"/>
<path d="M331.96 130.6H288V137.38H331.96V130.6Z" fill="#323232"/>
<path d="M331.96 72.8809H288V77.6209H331.96V72.8809Z" fill="#F88D5F"/>
<path d="M331.96 72.8809H288V77.6209H331.96V72.8809Z" fill="#323232"/>
</g>
<g opacity="0.5">
<path d="M283.96 262.08H240V268.86H283.96V262.08Z" fill="#C4C4C4"/>
<path d="M283.96 262.08H240V268.86H283.96V262.08Z" fill="#323232"/>
<path d="M283.96 286H240V292.78H283.96V286Z" fill="#C4C4C4"/>
<path d="M283.96 286H240V292.78H283.96V286Z" fill="#323232"/>
<path d="M283.96 274.03H240V280.81H283.96V274.03Z" fill="#C4C4C4"/>
<path d="M283.96 274.03H240V280.81H283.96V274.03Z" fill="#323232"/>
<path d="M283.96 178.41H240V185.19H283.96V178.41Z" fill="#C4C4C4"/>
<path d="M283.96 178.41H240V185.19H283.96V178.41Z" fill="#323232"/>
<path d="M283.96 190.36H240V197.14H283.96V190.36Z" fill="#C4C4C4"/>
<path d="M283.96 190.36H240V197.14H283.96V190.36Z" fill="#323232"/>
<path d="M283.96 226.221H240V233.001H283.96V226.221Z" fill="#C4C4C4"/>
<path d="M283.96 226.221H240V233.001H283.96V226.221Z" fill="#323232"/>
<path d="M283.96 214.27H240V221.05H283.96V214.27Z" fill="#C4C4C4"/>
<path d="M283.96 214.27H240V221.05H283.96V214.27Z" fill="#323232"/>
<path d="M283.96 238.17H240V244.95H283.96V238.17Z" fill="#C4C4C4"/>
<path d="M283.96 238.17H240V244.95H283.96V238.17Z" fill="#323232"/>
<path d="M283.96 202.32H240V209.1H283.96V202.32Z" fill="#C4C4C4"/>
<path d="M283.96 202.32H240V209.1H283.96V202.32Z" fill="#323232"/>
<path d="M283.96 250.131H240V256.911H283.96V250.131Z" fill="#C4C4C4"/>
<path d="M283.96 250.131H240V256.911H283.96V250.131Z" fill="#323232"/>
<path d="M283.96 166.461H240V173.241H283.96V166.461Z" fill="#C4C4C4"/>
<path d="M283.96 166.461H240V173.241H283.96V166.461Z" fill="#323232"/>
<path d="M283.96 106.7H240V113.48H283.96V106.7Z" fill="#323232"/>
<path d="M283.96 118.65H240V125.43H283.96V118.65Z" fill="#828282"/>
<path d="M283.96 118.65H240V125.43H283.96V118.65Z" fill="#323232"/>
<path d="M283.96 154.51H240V161.29H283.96V154.51Z" fill="#C4C4C4"/>
<path d="M283.96 154.51H240V161.29H283.96V154.51Z" fill="#323232"/>
<path d="M283.96 142.561H240V149.341H283.96V142.561Z" fill="#C4C4C4"/>
<path d="M283.96 142.561H240V149.341H283.96V142.561Z" fill="#323232"/>
<path d="M283.96 130.6H240V137.38H283.96V130.6Z" fill="#323232"/>
</g>
<g opacity="0.5">
<path d="M235.96 71.8604H192V76.6003H235.96V71.8604Z" fill="#323232"/>
<path d="M235.96 59.9102H192V64.6502H235.96V59.9102Z" fill="#EB1F1F"/>
<path d="M235.96 262.08H192V268.86H235.96V262.08Z" fill="#C4C4C4"/>
<path d="M235.96 262.08H192V268.86H235.96V262.08Z" fill="#323232"/>
<path d="M235.96 286H192V292.78H235.96V286Z" fill="#C4C4C4"/>
<path d="M235.96 286H192V292.78H235.96V286Z" fill="#323232"/>
<path d="M235.96 274.03H192V280.81H235.96V274.03Z" fill="#C4C4C4"/>
<path d="M235.96 274.03H192V280.81H235.96V274.03Z" fill="#323232"/>
<path d="M235.96 178.41H192V185.19H235.96V178.41Z" fill="#C4C4C4"/>
<path d="M235.96 178.41H192V185.19H235.96V178.41Z" fill="#323232"/>
<path d="M235.96 190.36H192V197.14H235.96V190.36Z" fill="#C4C4C4"/>
<path d="M235.96 190.36H192V197.14H235.96V190.36Z" fill="#323232"/>
<path d="M235.96 226.221H192V233.001H235.96V226.221Z" fill="#C4C4C4"/>
<path d="M235.96 226.221H192V233.001H235.96V226.221Z" fill="#323232"/>
<path d="M235.96 214.27H192V221.05H235.96V214.27Z" fill="#C4C4C4"/>
<path d="M235.96 214.27H192V221.05H235.96V214.27Z" fill="#323232"/>
<path d="M235.96 238.17H192V244.95H235.96V238.17Z" fill="#C4C4C4"/>
<path d="M235.96 238.17H192V244.95H235.96V238.17Z" fill="#323232"/>
<path d="M235.96 202.32H192V209.1H235.96V202.32Z" fill="#C4C4C4"/>
<path d="M235.96 202.32H192V209.1H235.96V202.32Z" fill="#323232"/>
<path d="M235.96 250.131H192V256.911H235.96V250.131Z" fill="#C4C4C4"/>
<path d="M235.96 250.131H192V256.911H235.96V250.131Z" fill="#323232"/>
<path d="M235.96 166.461H192V173.241H235.96V166.461Z" fill="#C4C4C4"/>
<path d="M235.96 166.461H192V173.241H235.96V166.461Z" fill="#323232"/>
<path d="M235.96 106.7H192V113.48H235.96V106.7Z" fill="#323232"/>
<path d="M235.96 118.65H192V125.43H235.96V118.65Z" fill="#828282"/>
<path d="M235.96 118.65H192V125.43H235.96V118.65Z" fill="#323232"/>
<path d="M235.96 154.51H192V161.29H235.96V154.51Z" fill="#C4C4C4"/>
<path d="M235.96 154.51H192V161.29H235.96V154.51Z" fill="#323232"/>
<path d="M235.96 142.561H192V149.341H235.96V142.561Z" fill="#C4C4C4"/>
<path d="M235.96 142.561H192V149.341H235.96V142.561Z" fill="#323232"/>
<path d="M235.96 82.79H192V89.57H235.96V82.79Z" fill="#353535"/>
<path d="M235.96 94.75H192V101.53H235.96V94.75Z" fill="#EB1F1F"/>
<path d="M235.96 130.6H192V137.38H235.96V130.6Z" fill="#323232"/>
<path d="M235.96 72.8809H192V77.6209H235.96V72.8809Z" fill="#F88D5F"/>
<path d="M235.96 72.8809H192V77.6209H235.96V72.8809Z" fill="#EB1F1F"/>
</g>
<g opacity="0.5">
<path d="M187.96 36H144V40.74H187.96V36Z" fill="#323232"/>
<path d="M187.96 71.8604H144V76.6003H187.96V71.8604Z" fill="#323232"/>
<path d="M187.96 59.9102H144V64.6502H187.96V59.9102Z" fill="#363636"/>
<path d="M187.96 47.9502H144V52.6902H187.96V47.9502Z" fill="#323232"/>
<path d="M187.96 262.08H144V268.86H187.96V262.08Z" fill="#C4C4C4"/>
<path d="M187.96 262.08H144V268.86H187.96V262.08Z" fill="#323232"/>
<path d="M187.96 286H144V292.78H187.96V286Z" fill="#C4C4C4"/>
<path d="M187.96 286H144V292.78H187.96V286Z" fill="#323232"/>
<path d="M187.96 274.03H144V280.81H187.96V274.03Z" fill="#C4C4C4"/>
<path d="M187.96 274.03H144V280.81H187.96V274.03Z" fill="#323232"/>
<path d="M187.96 178.41H144V185.19H187.96V178.41Z" fill="#C4C4C4"/>
<path d="M187.96 178.41H144V185.19H187.96V178.41Z" fill="#323232"/>
<path d="M187.96 190.36H144V197.14H187.96V190.36Z" fill="#C4C4C4"/>
<path d="M187.96 190.36H144V197.14H187.96V190.36Z" fill="#323232"/>
<path d="M187.96 226.221H144V233.001H187.96V226.221Z" fill="#C4C4C4"/>
<path d="M187.96 226.221H144V233.001H187.96V226.221Z" fill="#323232"/>
<path d="M187.96 214.27H144V221.05H187.96V214.27Z" fill="#C4C4C4"/>
<path d="M187.96 214.27H144V221.05H187.96V214.27Z" fill="#323232"/>
<path d="M187.96 238.17H144V244.95H187.96V238.17Z" fill="#C4C4C4"/>
<path d="M187.96 238.17H144V244.95H187.96V238.17Z" fill="#323232"/>
<path d="M187.96 202.32H144V209.1H187.96V202.32Z" fill="#C4C4C4"/>
<path d="M187.96 202.32H144V209.1H187.96V202.32Z" fill="#323232"/>
<path d="M187.96 250.131H144V256.911H187.96V250.131Z" fill="#C4C4C4"/>
<path d="M187.96 250.131H144V256.911H187.96V250.131Z" fill="#323232"/>
<path d="M187.96 166.461H144V173.241H187.96V166.461Z" fill="#C4C4C4"/>
<path d="M187.96 166.461H144V173.241H187.96V166.461Z" fill="#323232"/>
<path d="M187.96 106.7H144V113.48H187.96V106.7Z" fill="#323232"/>
<path d="M187.96 118.65H144V125.43H187.96V118.65Z" fill="#828282"/>
<path d="M187.96 118.65H144V125.43H187.96V118.65Z" fill="#323232"/>
<path d="M187.96 154.51H144V161.29H187.96V154.51Z" fill="#C4C4C4"/>
<path d="M187.96 154.51H144V161.29H187.96V154.51Z" fill="#323232"/>
<path d="M187.96 142.561H144V149.341H187.96V142.561Z" fill="#C4C4C4"/>
<path d="M187.96 142.561H144V149.341H187.96V142.561Z" fill="#323232"/>
<path d="M187.96 82.79H144V89.57H187.96V82.79Z" fill="#363636"/>
<path d="M187.96 94.75H144V101.53H187.96V94.75Z" fill="url(#paint27_linear)" fill-opacity="0.5"/>
<path d="M187.96 130.6H144V137.38H187.96V130.6Z" fill="#323232"/>
<path d="M187.96 72.8809H144V77.6209H187.96V72.8809Z" fill="#F88D5F"/>
<path d="M187.96 72.8809H144V77.6209H187.96V72.8809Z" fill="#323232"/>
</g>
<g opacity="0.5">
<path d="M139.96 262.08H96V268.86H139.96V262.08Z" fill="#C4C4C4"/>
<path d="M139.96 262.08H96V268.86H139.96V262.08Z" fill="#323232"/>
<path d="M139.96 286H96.0001V292.78H139.96V286Z" fill="#C4C4C4"/>
<path d="M139.96 286H96.0001V292.78H139.96V286Z" fill="#323232"/>
<path d="M139.96 274.03H96V280.81H139.96V274.03Z" fill="#C4C4C4"/>
<path d="M139.96 274.03H96V280.81H139.96V274.03Z" fill="#323232"/>
<path d="M139.96 178.41H96V185.19H139.96V178.41Z" fill="#C4C4C4"/>
<path d="M139.96 178.41H96V185.19H139.96V178.41Z" fill="#323232"/>
<path d="M139.96 190.36H96V197.14H139.96V190.36Z" fill="#C4C4C4"/>
<path d="M139.96 190.36H96V197.14H139.96V190.36Z" fill="#323232"/>
<path d="M139.96 226.221H96V233.001H139.96V226.221Z" fill="#C4C4C4"/>
<path d="M139.96 226.221H96V233.001H139.96V226.221Z" fill="#323232"/>
<path d="M139.96 214.27H96V221.05H139.96V214.27Z" fill="#C4C4C4"/>
<path d="M139.96 214.27H96V221.05H139.96V214.27Z" fill="#323232"/>
<path d="M139.96 238.17H96V244.95H139.96V238.17Z" fill="#C4C4C4"/>
<path d="M139.96 238.17H96V244.95H139.96V238.17Z" fill="#323232"/>
<path d="M139.96 202.32H96V209.1H139.96V202.32Z" fill="#C4C4C4"/>
<path d="M139.96 202.32H96V209.1H139.96V202.32Z" fill="#323232"/>
<path d="M139.96 250.131H96V256.911H139.96V250.131Z" fill="#C4C4C4"/>
<path d="M139.96 250.131H96V256.911H139.96V250.131Z" fill="#323232"/>
<path d="M139.96 166.461H96V173.241H139.96V166.461Z" fill="#C4C4C4"/>
<path d="M139.96 166.461H96V173.241H139.96V166.461Z" fill="#323232"/>
<path d="M139.96 106.7H96V113.48H139.96V106.7Z" fill="#EB1F1F"/>
<path d="M139.96 118.65H96V125.43H139.96V118.65Z" fill="#828282"/>
<path d="M139.96 118.65H96V125.43H139.96V118.65Z" fill="#EB1F1F"/>
<path d="M139.96 154.51H96V161.29H139.96V154.51Z" fill="#C4C4C4"/>
<path d="M139.96 154.51H96V161.29H139.96V154.51Z" fill="#EB1F1F"/>
<path d="M139.96 142.561H96V149.341H139.96V142.561Z" fill="#C4C4C4"/>
<path d="M139.96 142.561H96V149.341H139.96V142.561Z" fill="#323232"/>
<path d="M139.96 82.79H96V89.57H139.96V82.79Z" fill="#323232"/>
<path d="M139.96 94.75H96V101.53H139.96V94.75Z" fill="#323232"/>
<path d="M139.96 130.6H96V137.38H139.96V130.6Z" fill="#323232"/>
</g>
<g opacity="0.5">
<path d="M91.9601 71.8604H48V76.6003H91.9601V71.8604Z" fill="#323232"/>
<path d="M91.9601 59.9102H48V64.6502H91.9601V59.9102Z" fill="url(#paint28_linear)" fill-opacity="0.5"/>
<path d="M91.9601 262.08H48V268.86H91.9601V262.08Z" fill="#C4C4C4"/>
<path d="M91.9601 262.08H48V268.86H91.9601V262.08Z" fill="#323232"/>
<path d="M91.9602 286H48.0001V292.78H91.9602V286Z" fill="#C4C4C4"/>
<path d="M91.9602 286H48.0001V292.78H91.9602V286Z" fill="#323232"/>
<path d="M91.9601 274.03H48V280.81H91.9601V274.03Z" fill="#C4C4C4"/>
<path d="M91.9601 274.03H48V280.81H91.9601V274.03Z" fill="#323232"/>
<path d="M91.9601 178.41H48V185.19H91.9601V178.41Z" fill="#C4C4C4"/>
<path d="M91.9601 178.41H48V185.19H91.9601V178.41Z" fill="#323232"/>
<path d="M91.9601 190.36H48V197.14H91.9601V190.36Z" fill="#C4C4C4"/>
<path d="M91.9601 190.36H48V197.14H91.9601V190.36Z" fill="#323232"/>
<path d="M91.9601 226.221H48V233.001H91.9601V226.221Z" fill="#C4C4C4"/>
<path d="M91.9601 226.221H48V233.001H91.9601V226.221Z" fill="#323232"/>
<path d="M91.9601 214.27H48V221.05H91.9601V214.27Z" fill="#C4C4C4"/>
<path d="M91.9601 214.27H48V221.05H91.9601V214.27Z" fill="#323232"/>
<path d="M91.9601 238.17H48V244.95H91.9601V238.17Z" fill="#C4C4C4"/>
<path d="M91.9601 238.17H48V244.95H91.9601V238.17Z" fill="#323232"/>
<path d="M91.9601 202.32H48V209.1H91.9601V202.32Z" fill="#C4C4C4"/>
<path d="M91.9601 202.32H48V209.1H91.9601V202.32Z" fill="#323232"/>
<path d="M91.9601 250.131H48V256.911H91.9601V250.131Z" fill="#C4C4C4"/>
<path d="M91.9601 250.131H48V256.911H91.9601V250.131Z" fill="#323232"/>
<path d="M91.9601 166.461H48V173.241H91.9601V166.461Z" fill="#C4C4C4"/>
<path d="M91.9601 166.461H48V173.241H91.9601V166.461Z" fill="#323232"/>
<path d="M91.9601 106.7H48V113.48H91.9601V106.7Z" fill="#323232"/>
<path d="M91.9601 118.65H48V125.43H91.9601V118.65Z" fill="#828282"/>
<path d="M91.9601 118.65H48V125.43H91.9601V118.65Z" fill="#323232"/>
<path d="M91.9601 154.51H48V161.29H91.9601V154.51Z" fill="#C4C4C4"/>
<path d="M91.9601 154.51H48V161.29H91.9601V154.51Z" fill="#323232"/>
<path d="M91.9601 142.561H48V149.341H91.9601V142.561Z" fill="#C4C4C4"/>
<path d="M91.9601 142.561H48V149.341H91.9601V142.561Z" fill="#323232"/>
<path d="M91.9601 82.79H48V89.57H91.9601V82.79Z" fill="url(#paint29_linear)" fill-opacity="0.5"/>
<path d="M91.9601 94.75H48V101.53H91.9601V94.75Z" fill="url(#paint30_linear)" fill-opacity="0.5"/>
<path d="M91.9601 130.6H48V137.38H91.9601V130.6Z" fill="#323232"/>
<path d="M91.9601 72.8809H48V77.6209H91.9601V72.8809Z" fill="#F88D5F"/>
<path d="M91.9601 72.8809H48V77.6209H91.9601V72.8809Z" fill="#323232"/>
</g>
<g opacity="0.5">
<path d="M43.9601 36H0V40.74H43.9601V36Z" fill="#323232"/>
<path d="M43.9601 24H0V28.74H43.9601V24Z" fill="#323232"/>
<path d="M43.9601 71.8604H0V76.6003H43.9601V71.8604Z" fill="#323232"/>
<path d="M43.9601 59.9102H0V64.6502H43.9601V59.9102Z" fill="url(#paint31_linear)" fill-opacity="0.5"/>
<path d="M43.9601 12H0V16.74H43.9601V12Z" fill="#272727"/>
<path d="M43.9601 0H0V4.74002H43.9601V0Z" fill="#272727"/>
<path d="M43.9601 0H0V4.74002H43.9601V0Z" fill="url(#paint32_linear)" fill-opacity="0.5"/>
<path d="M43.9601 47.9502H0V52.6902H43.9601V47.9502Z" fill="#323232"/>
<path d="M43.9601 262.08H0V268.86H43.9601V262.08Z" fill="#C4C4C4"/>
<path d="M43.9601 262.08H0V268.86H43.9601V262.08Z" fill="#323232"/>
<path d="M43.9602 286H0.00012207V292.78H43.9602V286Z" fill="#C4C4C4"/>
<path d="M43.9602 286H0.00012207V292.78H43.9602V286Z" fill="#323232"/>
<path d="M43.9601 274.03H0V280.81H43.9601V274.03Z" fill="#C4C4C4"/>
<path d="M43.9601 274.03H0V280.81H43.9601V274.03Z" fill="#323232"/>
<path d="M43.9601 178.41H0V185.19H43.9601V178.41Z" fill="#C4C4C4"/>
<path d="M43.9601 178.41H0V185.19H43.9601V178.41Z" fill="#323232"/>
<path d="M43.9601 190.36H0V197.14H43.9601V190.36Z" fill="#C4C4C4"/>
<path d="M43.9601 190.36H0V197.14H43.9601V190.36Z" fill="#323232"/>
<path d="M43.9601 226.221H0V233.001H43.9601V226.221Z" fill="#C4C4C4"/>
<path d="M43.9601 226.221H0V233.001H43.9601V226.221Z" fill="#323232"/>
<path d="M43.9601 214.27H0V221.05H43.9601V214.27Z" fill="#C4C4C4"/>
<path d="M43.9601 214.27H0V221.05H43.9601V214.27Z" fill="#323232"/>
<path d="M43.9601 238.17H0V244.95H43.9601V238.17Z" fill="#C4C4C4"/>
<path d="M43.9601 238.17H0V244.95H43.9601V238.17Z" fill="#323232"/>
<path d="M43.9601 202.32H0V209.1H43.9601V202.32Z" fill="#C4C4C4"/>
<path d="M43.9601 202.32H0V209.1H43.9601V202.32Z" fill="#323232"/>
<path d="M43.9601 250.131H0V256.911H43.9601V250.131Z" fill="#C4C4C4"/>
<path d="M43.9601 250.131H0V256.911H43.9601V250.131Z" fill="#323232"/>
<path d="M43.9601 166.461H0V173.241H43.9601V166.461Z" fill="#C4C4C4"/>
<path d="M43.9601 166.461H0V173.241H43.9601V166.461Z" fill="#323232"/>
<path d="M43.9601 106.7H0V113.48H43.9601V106.7Z" fill="#323232"/>
<path d="M43.9601 118.65H0V125.43H43.9601V118.65Z" fill="#828282"/>
<path d="M43.9601 118.65H0V125.43H43.9601V118.65Z" fill="#323232"/>
<path d="M43.9601 154.51H0V161.29H43.9601V154.51Z" fill="#C4C4C4"/>
<path d="M43.9601 154.51H0V161.29H43.9601V154.51Z" fill="#323232"/>
<path d="M43.9601 142.561H0V149.341H43.9601V142.561Z" fill="url(#paint33_linear)" fill-opacity="0.5"/>
<path d="M43.9601 82.79H0V89.57H43.9601V82.79Z" fill="#343434"/>
<path d="M43.9601 94.75H0V101.53H43.9601V94.75Z" fill="#343434"/>
<path d="M43.9601 130.6H0V137.38H43.9601V130.6Z" fill="url(#paint34_linear)" fill-opacity="0.5"/>
<path d="M43.9601 72.8809H0V77.6209H43.9601V72.8809Z" fill="#F88D5F"/>
<path d="M43.9601 72.8809H0V77.6209H43.9601V72.8809Z" fill="#323232"/>
</g>
<g opacity="0.5">
<path d="M1099.96 262.08H1056V268.86H1099.96V262.08Z" fill="#C4C4C4"/>
<path d="M1099.96 262.08H1056V268.86H1099.96V262.08Z" fill="#323232"/>
<path d="M1099.96 285.98H1056V292.76H1099.96V285.98Z" fill="#C4C4C4"/>
<path d="M1099.96 285.98H1056V292.76H1099.96V285.98Z" fill="#323232"/>
<path d="M1099.96 274.03H1056V280.81H1099.96V274.03Z" fill="#C4C4C4"/>
<path d="M1099.96 274.03H1056V280.81H1099.96V274.03Z" fill="#323232"/>
<path d="M1099.96 178.41H1056V185.19H1099.96V178.41Z" fill="#C4C4C4"/>
<path d="M1099.96 178.41H1056V185.19H1099.96V178.41Z" fill="#323232"/>
<path d="M1099.96 190.36H1056V197.14H1099.96V190.36Z" fill="#C4C4C4"/>
<path d="M1099.96 190.36H1056V197.14H1099.96V190.36Z" fill="#323232"/>
<path d="M1099.96 190.36H1056V197.14H1099.96V190.36Z" fill="url(#paint35_linear)" fill-opacity="0.5"/>
<path d="M1099.96 226.221H1056V233.001H1099.96V226.221Z" fill="#C4C4C4"/>
<path d="M1099.96 226.221H1056V233.001H1099.96V226.221Z" fill="#323232"/>
<path d="M1099.96 214.27H1056V221.05H1099.96V214.27Z" fill="#C4C4C4"/>
<path d="M1099.96 214.27H1056V221.05H1099.96V214.27Z" fill="#323232"/>
<path d="M1099.96 238.17H1056V244.95H1099.96V238.17Z" fill="#C4C4C4"/>
<path d="M1099.96 238.17H1056V244.95H1099.96V238.17Z" fill="#323232"/>
<path d="M1099.96 202.32H1056V209.1H1099.96V202.32Z" fill="#C4C4C4"/>
<path d="M1099.96 202.32H1056V209.1H1099.96V202.32Z" fill="#323232"/>
<path d="M1099.96 202.32H1056V209.1H1099.96V202.32Z" fill="url(#paint36_linear)" fill-opacity="0.5"/>
<path d="M1099.96 250.131H1056V256.911H1099.96V250.131Z" fill="#C4C4C4"/>
<path d="M1099.96 250.131H1056V256.911H1099.96V250.131Z" fill="#323232"/>
<path d="M1099.96 166.461H1056V173.241H1099.96V166.461Z" fill="#C4C4C4"/>
<path d="M1099.96 166.461H1056V173.241H1099.96V166.461Z" fill="#323232"/>
<path d="M1099.96 154.51H1056V161.29H1099.96V154.51Z" fill="#C4C4C4"/>
<path d="M1099.96 154.51H1056V161.29H1099.96V154.51Z" fill="#323232"/>
<path d="M1099.96 142.561H1056V149.341H1099.96V142.561Z" fill="#C4C4C4"/>
<path d="M1099.96 142.561H1056V149.341H1099.96V142.561Z" fill="#323232"/>
<path d="M1099.96 130.6H1056V137.38H1099.96V130.6Z" fill="#323232"/>
</g>
<g opacity="0.5">
<path d="M1243.96 226.41H1200V233.19H1243.96V226.41Z" fill="#C4C4C4"/>
<path d="M1243.96 226.41H1200V233.19H1243.96V226.41Z" fill="#323232"/>
<path d="M1243.96 238.36H1200V245.14H1243.96V238.36Z" fill="#C4C4C4"/>
<path d="M1243.96 238.36H1200V245.14H1243.96V238.36Z" fill="#323232"/>
<path d="M1243.96 274.221H1200V281.001H1243.96V274.221Z" fill="#C4C4C4"/>
<path d="M1243.96 274.221H1200V281.001H1243.96V274.221Z" fill="#323232"/>
<path d="M1243.96 262.27H1200V269.05H1243.96V262.27Z" fill="#C4C4C4"/>
<path d="M1243.96 262.27H1200V269.05H1243.96V262.27Z" fill="#323232"/>
<path d="M1243.96 286.17H1200V292.95H1243.96V286.17Z" fill="#C4C4C4"/>
<path d="M1243.96 286.17H1200V292.95H1243.96V286.17Z" fill="#323232"/>
<path d="M1243.96 250.32H1200V257.1H1243.96V250.32Z" fill="#C4C4C4"/>
<path d="M1243.96 250.32H1200V257.1H1243.96V250.32Z" fill="#323232"/>
<path d="M1243.96 214.461H1200V221.241H1243.96V214.461Z" fill="#C4C4C4"/>
<path d="M1243.96 214.461H1200V221.241H1243.96V214.461Z" fill="#323232"/>
<path d="M1243.96 202.51H1200V209.29H1243.96V202.51Z" fill="#C4C4C4"/>
<path d="M1243.96 202.51H1200V209.29H1243.96V202.51Z" fill="#323232"/>
<path d="M1243.96 190.561H1200V197.341H1243.96V190.561Z" fill="#C4C4C4"/>
<path d="M1243.96 190.561H1200V197.341H1243.96V190.561Z" fill="#323232"/>
</g>
<g opacity="0.5">
<path d="M1147.96 226.41H1104V233.19H1147.96V226.41Z" fill="#C4C4C4"/>
<path d="M1147.96 226.41H1104V233.19H1147.96V226.41Z" fill="#323232"/>
<path d="M1147.96 238.36H1104V245.14H1147.96V238.36Z" fill="#C4C4C4"/>
<path d="M1147.96 238.36H1104V245.14H1147.96V238.36Z" fill="#323232"/>
<path d="M1147.96 274.221H1104V281.001H1147.96V274.221Z" fill="#C4C4C4"/>
<path d="M1147.96 274.221H1104V281.001H1147.96V274.221Z" fill="#323232"/>
<path d="M1147.96 262.27H1104V269.05H1147.96V262.27Z" fill="#C4C4C4"/>
<path d="M1147.96 262.27H1104V269.05H1147.96V262.27Z" fill="#323232"/>
<path d="M1147.96 286.17H1104V292.95H1147.96V286.17Z" fill="#C4C4C4"/>
<path d="M1147.96 286.17H1104V292.95H1147.96V286.17Z" fill="#323232"/>
<path d="M1147.96 250.32H1104V257.1H1147.96V250.32Z" fill="#C4C4C4"/>
<path d="M1147.96 250.32H1104V257.1H1147.96V250.32Z" fill="#323232"/>
<path d="M1147.96 214.461H1104V221.241H1147.96V214.461Z" fill="#C4C4C4"/>
<path d="M1147.96 214.461H1104V221.241H1147.96V214.461Z" fill="#323232"/>
<path d="M1147.96 154.7H1104V161.48H1147.96V154.7Z" fill="#323232"/>
<path d="M1147.96 166.65H1104V173.43H1147.96V166.65Z" fill="#828282"/>
<path d="M1147.96 166.65H1104V173.43H1147.96V166.65Z" fill="#323232"/>
<path d="M1147.96 202.51H1104V209.29H1147.96V202.51Z" fill="#C4C4C4"/>
<path d="M1147.96 202.51H1104V209.29H1147.96V202.51Z" fill="#323232"/>
<path d="M1147.96 190.561H1104V197.341H1147.96V190.561Z" fill="#C4C4C4"/>
<path d="M1147.96 190.561H1104V197.341H1147.96V190.561Z" fill="#323232"/>
<path d="M1147.96 142.75H1104V149.53H1147.96V142.75Z" fill="#EB1F1F"/>
<path d="M1147.96 178.6H1104V185.38H1147.96V178.6Z" fill="#323232"/>
</g>
<g opacity="0.5">
<path d="M1291.96 274.41H1248V281.19H1291.96V274.41Z" fill="#C4C4C4"/>
<path d="M1291.96 274.41H1248V281.19H1291.96V274.41Z" fill="#323232"/>
<path d="M1291.96 286.36H1248V293.14H1291.96V286.36Z" fill="#C4C4C4"/>
<path d="M1291.96 286.36H1248V293.14H1291.96V286.36Z" fill="#323232"/>
<path d="M1291.96 262.461H1248V269.241H1291.96V262.461Z" fill="#C4C4C4"/>
<path d="M1291.96 262.461H1248V269.241H1291.96V262.461Z" fill="#323232"/>
<path d="M1291.96 202.7H1248V209.48H1291.96V202.7Z" fill="#EB1F1F"/>
<path d="M1291.96 214.65H1248V221.43H1291.96V214.65Z" fill="#828282"/>
<path d="M1291.96 214.65H1248V221.43H1291.96V214.65Z" fill="#323232"/>
<path d="M1291.96 250.51H1248V257.29H1291.96V250.51Z" fill="#C4C4C4"/>
<path d="M1291.96 250.51H1248V257.29H1291.96V250.51Z" fill="#323232"/>
<path d="M1291.96 238.561H1248V245.341H1291.96V238.561Z" fill="#C4C4C4"/>
<path d="M1291.96 238.561H1248V245.341H1291.96V238.561Z" fill="#EB1F1F"/>
<path d="M1291.96 226.6H1248V233.38H1291.96V226.6Z" fill="#EB1F1F"/>
</g>
<g opacity="0.5">
<path d="M1195.96 274.41H1152V281.19H1195.96V274.41Z" fill="#C4C4C4"/>
<path d="M1195.96 274.41H1152V281.19H1195.96V274.41Z" fill="#323232"/>
<path d="M1195.96 286.36H1152V293.14H1195.96V286.36Z" fill="#C4C4C4"/>
<path d="M1195.96 286.36H1152V293.14H1195.96V286.36Z" fill="#323232"/>
<path d="M1195.96 262.461H1152V269.241H1195.96V262.461Z" fill="#C4C4C4"/>
<path d="M1195.96 262.461H1152V269.241H1195.96V262.461Z" fill="#323232"/>
<path d="M1195.96 202.7H1152V209.48H1195.96V202.7Z" fill="#323232"/>
<path d="M1195.96 214.65H1152V221.43H1195.96V214.65Z" fill="#828282"/>
<path d="M1195.96 214.65H1152V221.43H1195.96V214.65Z" fill="#323232"/>
<path d="M1195.96 250.51H1152V257.29H1195.96V250.51Z" fill="#C4C4C4"/>
<path d="M1195.96 250.51H1152V257.29H1195.96V250.51Z" fill="#323232"/>
<path d="M1195.96 238.561H1152V245.341H1195.96V238.561Z" fill="#C4C4C4"/>
<path d="M1195.96 238.561H1152V245.341H1195.96V238.561Z" fill="#323232"/>
<path d="M1195.96 178.79H1152V185.57H1195.96V178.79Z" fill="url(#paint37_linear)" fill-opacity="0.5"/>
<path d="M1195.96 190.75H1152V197.53H1195.96V190.75Z" fill="url(#paint38_linear)" fill-opacity="0.5"/>
<path d="M1195.96 226.6H1152V233.38H1195.96V226.6Z" fill="#323232"/>
</g>
<g opacity="0.5">
<path d="M1435.96 169H1392V173.74H1435.96V169Z" fill="#323232"/>
<path d="M1435.96 227.86H1392V232.6H1435.96V227.86Z" fill="#323232"/>
<path d="M1435.96 215.91H1392V220.65H1435.96V215.91Z" fill="#EB1F1F"/>
<path d="M1435.96 180.95H1392V185.69H1435.96V180.95Z" fill="#323232"/>
<path d="M1435.96 262.7H1392V269.48H1435.96V262.7Z" fill="#323232"/>
<path d="M1435.96 274.65H1392V281.43H1435.96V274.65Z" fill="#828282"/>
<path d="M1435.96 274.65H1392V281.43H1435.96V274.65Z" fill="#323232"/>
<path d="M1435.96 238.79H1392V245.57H1435.96V238.79Z" fill="#3A3A3A"/>
<path d="M1435.96 250.75H1392V257.53H1435.96V250.75Z" fill="#EB1F1F"/>
<path d="M1435.96 286.6H1392V293.38H1435.96V286.6Z" fill="#323232"/>
<path d="M1435.96 228.881H1392V233.621H1435.96V228.881Z" fill="#F88D5F"/>
<path d="M1435.96 228.881H1392V233.621H1435.96V228.881Z" fill="#323232"/>
</g>
<g opacity="0.5">
<path d="M1003.96 286.08H960V292.86H1003.96V286.08Z" fill="#C4C4C4"/>
<path d="M1003.96 286.08H960V292.86H1003.96V286.08Z" fill="#323232"/>
<path d="M1003.96 202.41H960V209.19H1003.96V202.41Z" fill="#C4C4C4"/>
<path d="M1003.96 202.41H960V209.19H1003.96V202.41Z" fill="#323232"/>
<path d="M1003.96 214.36H960V221.14H1003.96V214.36Z" fill="#C4C4C4"/>
<path d="M1003.96 214.36H960V221.14H1003.96V214.36Z" fill="#323232"/>
<path d="M1003.96 250.221H960V257.001H1003.96V250.221Z" fill="#C4C4C4"/>
<path d="M1003.96 250.221H960V257.001H1003.96V250.221Z" fill="#323232"/>
<path d="M1003.96 238.27H960V245.05H1003.96V238.27Z" fill="#C4C4C4"/>
<path d="M1003.96 238.27H960V245.05H1003.96V238.27Z" fill="#323232"/>
<path d="M1003.96 238.27H960V245.05H1003.96V238.27Z" fill="url(#paint39_linear)" fill-opacity="0.5"/>
<path d="M1003.96 262.17H960V268.95H1003.96V262.17Z" fill="#C4C4C4"/>
<path d="M1003.96 262.17H960V268.95H1003.96V262.17Z" fill="#323232"/>
<path d="M1003.96 226.32H960V233.1H1003.96V226.32Z" fill="#C4C4C4"/>
<path d="M1003.96 226.32H960V233.1H1003.96V226.32Z" fill="#323232"/>
<path d="M1003.96 274.131H960V280.911H1003.96V274.131Z" fill="#C4C4C4"/>
<path d="M1003.96 274.131H960V280.911H1003.96V274.131Z" fill="#323232"/>
<path d="M1003.96 190.461H960V197.241H1003.96V190.461Z" fill="#C4C4C4"/>
<path d="M1003.96 190.461H960V197.241H1003.96V190.461Z" fill="#323232"/>
<path d="M1003.96 130.7H960V137.48H1003.96V130.7Z" fill="#323232"/>
<path d="M1003.96 130.7H960V137.48H1003.96V130.7Z" fill="url(#paint40_linear)" fill-opacity="0.5"/>
<path d="M1003.96 142.65H960V149.43H1003.96V142.65Z" fill="#828282"/>
<path d="M1003.96 142.65H960V149.43H1003.96V142.65Z" fill="#323232"/>
<path d="M1003.96 178.51H960V185.29H1003.96V178.51Z" fill="#C4C4C4"/>
<path d="M1003.96 178.51H960V185.29H1003.96V178.51Z" fill="#323232"/>
<path d="M1003.96 166.561H960V173.341H1003.96V166.561Z" fill="#C4C4C4"/>
<path d="M1003.96 166.561H960V173.341H1003.96V166.561Z" fill="#323232"/>
<path d="M1003.96 118.75H960V125.53H1003.96V118.75Z" fill="url(#paint41_linear)" fill-opacity="0.5"/>
<path d="M1003.96 154.6H960V161.38H1003.96V154.6Z" fill="#323232"/>
</g>
<g opacity="0.5">
<path d="M1051.96 286.08H1008V292.86H1051.96V286.08Z" fill="#C4C4C4"/>
<path d="M1051.96 286.08H1008V292.86H1051.96V286.08Z" fill="#323232"/>
<path d="M1051.96 202.41H1008V209.19H1051.96V202.41Z" fill="#C4C4C4"/>
<path d="M1051.96 202.41H1008V209.19H1051.96V202.41Z" fill="#323232"/>
<path d="M1051.96 214.36H1008V221.14H1051.96V214.36Z" fill="#C4C4C4"/>
<path d="M1051.96 214.36H1008V221.14H1051.96V214.36Z" fill="#323232"/>
<path d="M1051.96 250.221H1008V257.001H1051.96V250.221Z" fill="#C4C4C4"/>
<path d="M1051.96 250.221H1008V257.001H1051.96V250.221Z" fill="#323232"/>
<path d="M1051.96 238.27H1008V245.05H1051.96V238.27Z" fill="#C4C4C4"/>
<path d="M1051.96 238.27H1008V245.05H1051.96V238.27Z" fill="#323232"/>
<path d="M1051.96 262.17H1008V268.95H1051.96V262.17Z" fill="#C4C4C4"/>
<path d="M1051.96 262.17H1008V268.95H1051.96V262.17Z" fill="#323232"/>
<path d="M1051.96 226.32H1008V233.1H1051.96V226.32Z" fill="#C4C4C4"/>
<path d="M1051.96 226.32H1008V233.1H1051.96V226.32Z" fill="#323232"/>
<path d="M1051.96 274.131H1008V280.911H1051.96V274.131Z" fill="#C4C4C4"/>
<path d="M1051.96 274.131H1008V280.911H1051.96V274.131Z" fill="#323232"/>
<path d="M1051.96 190.461H1008V197.241H1051.96V190.461Z" fill="#C4C4C4"/>
<path d="M1051.96 190.461H1008V197.241H1051.96V190.461Z" fill="#323232"/>
<path d="M1051.96 178.51H1008V185.29H1051.96V178.51Z" fill="#C4C4C4"/>
<path d="M1051.96 178.51H1008V185.29H1051.96V178.51Z" fill="#323232"/>
<path d="M1051.96 166.561H1008V173.341H1051.96V166.561Z" fill="#C4C4C4"/>
<path d="M1051.96 166.561H1008V173.341H1051.96V166.561Z" fill="#323232"/>
<path d="M1051.96 154.6H1008V161.38H1051.96V154.6Z" fill="#323232"/>
</g>
<g opacity="0.5">
<path d="M955.96 262.13H912V268.91H955.96V262.13Z" fill="#C4C4C4"/>
<path d="M955.96 262.13H912V268.91H955.96V262.13Z" fill="#323232"/>
<path d="M955.96 286.03H912V292.81H955.96V286.03Z" fill="#C4C4C4"/>
<path d="M955.96 286.03H912V292.81H955.96V286.03Z" fill="#323232"/>
<path d="M955.96 274.08H912V280.86H955.96V274.08Z" fill="#C4C4C4"/>
<path d="M955.96 274.08H912V280.86H955.96V274.08Z" fill="#323232"/>
<path d="M955.96 178.46H912V185.24H955.96V178.46Z" fill="#C4C4C4"/>
<path d="M955.96 178.46H912V185.24H955.96V178.46Z" fill="#323232"/>
<path d="M955.96 190.41H912V197.19H955.96V190.41Z" fill="#C4C4C4"/>
<path d="M955.96 190.41H912V197.19H955.96V190.41Z" fill="#323232"/>
<path d="M955.96 226.271H912V233.051H955.96V226.271Z" fill="#C4C4C4"/>
<path d="M955.96 226.271H912V233.051H955.96V226.271Z" fill="#323232"/>
<path d="M955.96 214.319H912V221.099H955.96V214.319Z" fill="#C4C4C4"/>
<path d="M955.96 214.319H912V221.099H955.96V214.319Z" fill="#323232"/>
<path d="M955.96 238.22H912V245H955.96V238.22Z" fill="#C4C4C4"/>
<path d="M955.96 238.22H912V245H955.96V238.22Z" fill="#323232"/>
<path d="M955.96 202.37H912V209.15H955.96V202.37Z" fill="#C4C4C4"/>
<path d="M955.96 202.37H912V209.15H955.96V202.37Z" fill="#323232"/>
<path d="M955.96 250.181H912V256.961H955.96V250.181Z" fill="#C4C4C4"/>
<path d="M955.96 250.181H912V256.961H955.96V250.181Z" fill="#323232"/>
<path d="M955.96 166.511H912V173.291H955.96V166.511Z" fill="#C4C4C4"/>
<path d="M955.96 166.511H912V173.291H955.96V166.511Z" fill="#EB1F1F"/>
<path d="M955.96 106.75H912V113.53H955.96V106.75Z" fill="#EB1F1F"/>
<path d="M955.96 118.7H912V125.48H955.96V118.7Z" fill="#828282"/>
<path d="M955.96 118.7H912V125.48H955.96V118.7Z" fill="#323232"/>
<path d="M955.96 154.56H912V161.34H955.96V154.56Z" fill="#C4C4C4"/>
<path d="M955.96 154.56H912V161.34H955.96V154.56Z" fill="#EB1F1F"/>
<path d="M955.96 142.61H912V149.39H955.96V142.61Z" fill="#C4C4C4"/>
<path d="M955.96 142.61H912V149.39H955.96V142.61Z" fill="#323232"/>
<path d="M955.96 130.649H912V137.429H955.96V130.649Z" fill="#323232"/>
</g>
<defs>
<linearGradient id="paint0_linear" x1="1461.98" y1="190.75" x2="1461.98" y2="197.53" gradientUnits="userSpaceOnUse">
<stop stop-color="#EB1F1F"/>
<stop offset="1" stop-color="#E95515"/>
</linearGradient>
<linearGradient id="paint1_linear" x1="1317.98" y1="262.551" x2="1317.98" y2="269.331" gradientUnits="userSpaceOnUse">
<stop stop-color="#EB1F1F"/>
<stop offset="1" stop-color="#E95515"/>
</linearGradient>
<linearGradient id="paint2_linear" x1="1317.98" y1="250.6" x2="1317.98" y2="257.38" gradientUnits="userSpaceOnUse">
<stop stop-color="#EB1F1F"/>
<stop offset="1" stop-color="#E95515"/>
</linearGradient>
<linearGradient id="paint3_linear" x1="1317.98" y1="190.84" x2="1317.98" y2="197.62" gradientUnits="userSpaceOnUse">
<stop stop-color="#EB1F1F"/>
<stop offset="1" stop-color="#E95515"/>
</linearGradient>
<linearGradient id="paint4_linear" x1="1365.98" y1="215.91" x2="1365.98" y2="220.65" gradientUnits="userSpaceOnUse">
<stop stop-color="#EB1F1F"/>
<stop offset="1" stop-color="#E95515"/>
</linearGradient>
<linearGradient id="paint5_linear" x1="1365.98" y1="238.79" x2="1365.98" y2="245.57" gradientUnits="userSpaceOnUse">
<stop stop-color="#EB1F1F"/>
<stop offset="1" stop-color="#E95515"/>
</linearGradient>
<linearGradient id="paint6_linear" x1="1557.98" y1="215.91" x2="1557.98" y2="220.65" gradientUnits="userSpaceOnUse">
<stop stop-color="#EB1F1F"/>
<stop offset="1" stop-color="#E95515"/>
</linearGradient>
<linearGradient id="paint7_linear" x1="1557.98" y1="238.79" x2="1557.98" y2="245.57" gradientUnits="userSpaceOnUse">
<stop stop-color="#EB1F1F"/>
<stop offset="1" stop-color="#E95515"/>
</linearGradient>
<linearGradient id="paint8_linear" x1="1605.98" y1="262.7" x2="1605.98" y2="269.48" gradientUnits="userSpaceOnUse">
<stop stop-color="#EB1F1F"/>
<stop offset="1" stop-color="#E95515"/>
</linearGradient>
<linearGradient id="paint9_linear" x1="1605.98" y1="250.75" x2="1605.98" y2="257.53" gradientUnits="userSpaceOnUse">
<stop stop-color="#EB1F1F"/>
<stop offset="1" stop-color="#E95515"/>
</linearGradient>
<linearGradient id="paint10_linear" x1="1653.98" y1="250.75" x2="1653.98" y2="257.53" gradientUnits="userSpaceOnUse">
<stop stop-color="#EB1F1F"/>
<stop offset="1" stop-color="#E95515"/>
</linearGradient>
<linearGradient id="paint11_linear" x1="1749.98" y1="274.65" x2="1749.98" y2="281.43" gradientUnits="userSpaceOnUse">
<stop stop-color="#EB1F1F"/>
<stop offset="1" stop-color="#E95515"/>
</linearGradient>
<linearGradient id="paint12_linear" x1="1797.98" y1="262.7" x2="1797.98" y2="269.48" gradientUnits="userSpaceOnUse">
<stop stop-color="#EB1F1F"/>
<stop offset="1" stop-color="#E95515"/>
</linearGradient>
<linearGradient id="paint13_linear" x1="1845.98" y1="274.65" x2="1845.98" y2="281.43" gradientUnits="userSpaceOnUse">
<stop stop-color="#EB1F1F"/>
<stop offset="1" stop-color="#E95515"/>
</linearGradient>
<linearGradient id="paint14_linear" x1="837.98" y1="178.41" x2="837.98" y2="185.19" gradientUnits="userSpaceOnUse">
<stop stop-color="#EB1F1F"/>
<stop offset="1" stop-color="#E95515"/>
</linearGradient>
<linearGradient id="paint15_linear" x1="837.98" y1="166.461" x2="837.98" y2="173.241" gradientUnits="userSpaceOnUse">
<stop stop-color="#EB1F1F"/>
<stop offset="1" stop-color="#E95515"/>
</linearGradient>
<linearGradient id="paint16_linear" x1="837.98" y1="94.75" x2="837.98" y2="101.53" gradientUnits="userSpaceOnUse">
<stop stop-color="#EB1F1F"/>
<stop offset="1" stop-color="#E95515"/>
</linearGradient>
<linearGradient id="paint17_linear" x1="645.98" y1="178.41" x2="645.98" y2="185.19" gradientUnits="userSpaceOnUse">
<stop stop-color="#EB1F1F"/>
<stop offset="1" stop-color="#E95515"/>
</linearGradient>
<linearGradient id="paint18_linear" x1="645.98" y1="142.561" x2="645.98" y2="149.341" gradientUnits="userSpaceOnUse">
<stop stop-color="#EB1F1F"/>
<stop offset="1" stop-color="#E95515"/>
</linearGradient>
<linearGradient id="paint19_linear" x1="597.98" y1="166.461" x2="597.98" y2="173.241" gradientUnits="userSpaceOnUse">
<stop stop-color="#EB1F1F"/>
<stop offset="1" stop-color="#E95515"/>
</linearGradient>
<linearGradient id="paint20_linear" x1="597.98" y1="94.75" x2="597.98" y2="101.53" gradientUnits="userSpaceOnUse">
<stop stop-color="#EB1F1F"/>
<stop offset="1" stop-color="#E95515"/>
</linearGradient>
<linearGradient id="paint21_linear" x1="453.98" y1="106.7" x2="453.98" y2="113.48" gradientUnits="userSpaceOnUse">
<stop stop-color="#EB1F1F"/>
<stop offset="1" stop-color="#E95515"/>
</linearGradient>
<linearGradient id="paint22_linear" x1="453.98" y1="154.51" x2="453.98" y2="161.29" gradientUnits="userSpaceOnUse">
<stop stop-color="#EB1F1F"/>
<stop offset="1" stop-color="#E95515"/>
</linearGradient>
<linearGradient id="paint23_linear" x1="453.98" y1="142.561" x2="453.98" y2="149.341" gradientUnits="userSpaceOnUse">
<stop stop-color="#EB1F1F"/>
<stop offset="1" stop-color="#E95515"/>
</linearGradient>
<linearGradient id="paint24_linear" x1="357.98" y1="82.79" x2="357.98" y2="89.57" gradientUnits="userSpaceOnUse">
<stop stop-color="#EB1F1F"/>
<stop offset="1" stop-color="#E95515"/>
</linearGradient>
<linearGradient id="paint25_linear" x1="357.98" y1="94.75" x2="357.98" y2="101.53" gradientUnits="userSpaceOnUse">
<stop stop-color="#EB1F1F"/>
<stop offset="1" stop-color="#E95515"/>
</linearGradient>
<linearGradient id="paint26_linear" x1="357.98" y1="130.6" x2="357.98" y2="137.38" gradientUnits="userSpaceOnUse">
<stop stop-color="#EB1F1F"/>
<stop offset="1" stop-color="#E95515"/>
</linearGradient>
<linearGradient id="paint27_linear" x1="165.98" y1="94.75" x2="165.98" y2="101.53" gradientUnits="userSpaceOnUse">
<stop stop-color="#EB1F1F"/>
<stop offset="1" stop-color="#E95515"/>
</linearGradient>
<linearGradient id="paint28_linear" x1="69.98" y1="59.9102" x2="69.98" y2="64.6502" gradientUnits="userSpaceOnUse">
<stop stop-color="#EB1F1F"/>
<stop offset="1" stop-color="#E95515"/>
</linearGradient>
<linearGradient id="paint29_linear" x1="69.98" y1="82.79" x2="69.98" y2="89.57" gradientUnits="userSpaceOnUse">
<stop stop-color="#EB1F1F"/>
<stop offset="1" stop-color="#E95515"/>
</linearGradient>
<linearGradient id="paint30_linear" x1="69.98" y1="94.75" x2="69.98" y2="101.53" gradientUnits="userSpaceOnUse">
<stop stop-color="#EB1F1F"/>
<stop offset="1" stop-color="#E95515"/>
</linearGradient>
<linearGradient id="paint31_linear" x1="21.98" y1="59.9102" x2="21.98" y2="64.6502" gradientUnits="userSpaceOnUse">
<stop stop-color="#EB1F1F"/>
<stop offset="1" stop-color="#E95515"/>
</linearGradient>
<linearGradient id="paint32_linear" x1="21.98" y1="0" x2="21.98" y2="4.74002" gradientUnits="userSpaceOnUse">
<stop stop-color="#EB1F1F"/>
<stop offset="1" stop-color="#E95515"/>
</linearGradient>
<linearGradient id="paint33_linear" x1="21.98" y1="142.561" x2="21.98" y2="149.341" gradientUnits="userSpaceOnUse">
<stop stop-color="#EB1F1F"/>
<stop offset="1" stop-color="#E95515"/>
</linearGradient>
<linearGradient id="paint34_linear" x1="21.98" y1="130.6" x2="21.98" y2="137.38" gradientUnits="userSpaceOnUse">
<stop stop-color="#EB1F1F"/>
<stop offset="1" stop-color="#E95515"/>
</linearGradient>
<linearGradient id="paint35_linear" x1="1077.98" y1="190.36" x2="1077.98" y2="197.14" gradientUnits="userSpaceOnUse">
<stop stop-color="#EB1F1F"/>
<stop offset="1" stop-color="#E95515"/>
</linearGradient>
<linearGradient id="paint36_linear" x1="1077.98" y1="202.32" x2="1077.98" y2="209.1" gradientUnits="userSpaceOnUse">
<stop stop-color="#EB1F1F"/>
<stop offset="1" stop-color="#E95515"/>
</linearGradient>
<linearGradient id="paint37_linear" x1="1173.98" y1="178.79" x2="1173.98" y2="185.57" gradientUnits="userSpaceOnUse">
<stop stop-color="#EB1F1F"/>
<stop offset="1" stop-color="#E95515"/>
</linearGradient>
<linearGradient id="paint38_linear" x1="1173.98" y1="190.75" x2="1173.98" y2="197.53" gradientUnits="userSpaceOnUse">
<stop stop-color="#EB1F1F"/>
<stop offset="1" stop-color="#E95515"/>
</linearGradient>
<linearGradient id="paint39_linear" x1="981.98" y1="238.27" x2="981.98" y2="245.05" gradientUnits="userSpaceOnUse">
<stop stop-color="#EB1F1F"/>
<stop offset="1" stop-color="#E95515"/>
</linearGradient>
<linearGradient id="paint40_linear" x1="981.98" y1="130.7" x2="981.98" y2="137.48" gradientUnits="userSpaceOnUse">
<stop stop-color="#EB1F1F"/>
<stop offset="1" stop-color="#E95515"/>
</linearGradient>
<linearGradient id="paint41_linear" x1="981.98" y1="118.75" x2="981.98" y2="125.53" gradientUnits="userSpaceOnUse">
<stop stop-color="#EB1F1F"/>
<stop offset="1" stop-color="#E95515"/>
</linearGradient>
</defs>
</svg>
